<svg width="252" height="82" viewBox="0 0 252 82" fill="none" xmlns="http://www.w3.org/2000/svg">
<g clip-path="url(#clip0_147_4946)">
<path d="M108.495 54.8315H99.2338C99.2338 55.1775 99.1905 55.4478 99.1905 55.7181V68.0661C99.1905 69.3799 99.9058 69.8124 101.055 69.1474C101.759 68.7979 102.363 68.2777 102.813 67.6344C103.263 66.9911 103.543 66.2454 103.629 65.4657C103.629 65.2765 103.71 65.0873 103.764 64.844C104.848 65.9252 105.932 66.9362 106.946 68.0229C107.14 68.3719 107.193 68.7824 107.092 69.169C106.512 72.5318 102.914 74.0347 100.258 71.8722C98.8019 70.6282 97.4928 69.2225 96.3562 67.6823C95.8644 66.942 95.6041 66.0727 95.6083 65.1846C95.5 62.0705 95.5216 58.9457 95.5 55.8262C95.5 55.5289 95.5 55.2261 95.5 54.8855H87.1488V59.3403C86.3225 59.1167 85.4849 58.9362 84.6397 58.7997C83.8834 58.7084 83.1175 58.7339 82.369 58.8754C81.5236 59.0538 81.2472 59.7188 81.5615 60.5406C82.1014 61.8565 83.1391 62.9073 84.45 63.4654C85.8374 64.1195 87.2735 64.6602 88.65 65.336C89.4959 65.7512 90.2953 66.2551 91.0345 66.8389C91.365 67.1083 91.5972 67.4789 91.6951 67.8934C91.7931 68.3078 91.7514 68.7428 91.5764 69.1312C91.3241 69.844 90.926 70.4966 90.4072 71.0476C89.8885 71.5986 89.2605 72.0359 88.5633 72.3317C86.5415 73.2384 84.3047 73.5588 82.1089 73.2562C79.5858 73.1145 77.1628 72.224 75.1505 70.699C73.6169 69.4718 72.7606 67.9256 73.1183 65.8874C73.4163 64.1844 74.2672 63.46 76.0122 63.46C77.6257 63.4704 79.1845 64.0442 80.4181 65.0819C79.8598 65.1068 79.3039 65.17 78.7543 65.2711C76.8088 65.7793 76.2344 67.8175 77.7301 69.1582C78.4341 69.7374 79.2575 70.1546 80.1417 70.3801C82.0364 70.8847 84.0432 70.7729 85.8699 70.0611C86.302 69.9055 86.705 69.6789 87.0621 69.3907C87.2313 69.2816 87.3726 69.1346 87.4749 68.9615C87.5772 68.7884 87.6375 68.5938 87.6512 68.3933C87.6649 68.1928 87.6315 67.9919 87.5537 67.8065C87.4759 67.6212 87.3558 67.4564 87.203 67.3255C86.4875 66.717 85.708 66.1877 84.8781 65.7468C83.4366 64.9359 81.8975 64.2871 80.5048 63.3951C79.7593 62.8573 79.1261 62.1797 78.6405 61.4002C78.2395 60.8919 78.0113 60.2693 77.9888 59.6229C77.9664 58.9764 78.151 58.3397 78.5159 57.805C79.3505 56.5561 80.6348 56.1831 82.0764 56.3074C82.6258 56.3915 83.169 56.5126 83.7021 56.6696V54.9126H67.4118C67.4118 55.8371 67.3792 56.7723 67.4389 57.7022C67.4389 57.9185 67.7478 58.1402 67.9483 58.324C68.4181 58.7017 68.8074 59.1694 69.0931 59.6996C69.3788 60.2298 69.5553 60.8117 69.612 61.411C69.715 63.2978 68.6745 64.5683 67.2275 65.509C65.1358 66.8638 62.7388 67.6776 60.2529 67.8769C58.8059 67.9959 58.1827 67.6012 57.9063 66.4713C58.8384 66.1847 59.776 65.8874 60.7135 65.6117C62.3738 65.1626 63.921 64.3706 65.2549 63.287C65.8347 62.8058 66.2791 62.249 66.0624 61.438C65.9638 61.1047 65.7677 60.8084 65.4993 60.5869C65.2309 60.3653 64.9024 60.2287 64.5558 60.1945C60.681 59.416 57.3644 61.9949 56.9092 64.898C56.7759 65.6041 56.821 66.3322 57.0406 67.0166C57.2601 67.7009 57.647 68.3199 58.1664 68.8176C61.1796 71.8289 65.2115 71.5208 67.7911 68.1526C67.8345 68.0878 67.8887 68.0283 67.9645 67.931L70.2948 70.0449C70.116 70.2341 69.9859 70.4125 69.8233 70.5531C66.42 73.5914 60.4859 74.0888 56.7303 70.7423C53.4354 67.8012 52.9802 62.6328 55.8253 59.535C57.7112 57.486 60.6268 56.5128 64.0084 56.8318V54.9072H49.501V72.7913C48.2058 71.5532 47.0569 70.4774 45.9514 69.3637C45.8165 69.1239 45.7633 68.8469 45.7996 68.5743C45.7996 64.325 45.7996 60.081 45.7996 55.8371V54.8964H30.7123V61.8381C31.7962 60.8812 32.8367 59.9999 33.8609 59.1349C34.7985 58.3402 35.6981 57.513 36.7006 56.7886C38.1151 55.7884 38.6516 55.8425 39.7788 57.14C40.6028 58.1465 41.3664 59.2008 42.0657 60.2973C42.1111 60.4112 42.1274 60.5345 42.1132 60.6562C42.099 60.7779 42.0548 60.8942 41.9844 60.9947C41.2474 61.8435 40.467 62.6544 39.6541 63.5248C39.2206 62.9842 38.8413 62.4436 38.4077 61.9516C37.4106 60.8109 36.874 60.6703 35.5572 61.3515C34.0777 62.1138 32.6524 62.9734 31.1892 63.7573C31.0065 63.8435 30.8557 63.985 30.7584 64.1617C30.6611 64.3384 30.6222 64.5412 30.6473 64.7413C30.6473 67.12 30.6473 69.4934 30.6473 71.8722V72.8399C29.3466 71.5748 28.1869 70.472 27.0705 69.3366C26.9296 69.1961 26.9622 68.8555 26.9622 68.6068C26.9622 64.3358 26.9622 60.0648 26.9622 55.7938V54.9126H9.36029V60.2108C9.73964 59.9026 10.054 59.6323 10.3845 59.3782C12.1133 58.032 13.9179 56.8318 16.1073 56.3885C16.9997 56.2227 17.9173 56.2501 18.7981 56.469C19.6789 56.6878 20.5023 57.0929 21.2125 57.6568C21.9227 58.2207 22.5032 58.9303 22.9145 59.7375C23.3259 60.5448 23.5585 61.4307 23.5968 62.3355C23.7323 66.8605 21.4291 69.9043 17.7439 72.2236C15.2348 73.7914 12.7203 73.6725 10.119 72.5858L9.32778 72.2452V81.4035C8.01089 80.1276 6.85658 79.0302 5.74021 77.8948C5.58847 77.738 5.61556 77.3542 5.61556 77.1001C5.61556 70.0106 5.61556 62.9265 5.61556 55.8479V54.8423C4.90021 54.8423 4.23906 54.799 3.58875 54.8423C3.35279 54.8722 3.11354 54.8238 2.90787 54.7046C2.70221 54.5854 2.54156 54.402 2.4507 54.1827C1.95754 53.3015 1.39393 52.4635 0.857422 51.6093V51.3066H95.4674C95.5804 49.1669 95.374 47.0224 94.8551 44.9433C94.6596 44.5039 94.4388 44.0761 94.1939 43.662C94.0852 43.389 94.0589 43.0902 94.118 42.8024C95.8223 43.3572 97.2481 44.5435 98.1012 46.1165C98.952 47.7384 99.1363 49.4522 99.1851 51.3066H102.133C103.412 51.3066 104.697 51.3066 105.975 51.3066C106.094 51.3071 106.21 51.3318 106.318 51.3793C106.427 51.4267 106.524 51.4958 106.604 51.5823C107.254 52.6473 107.834 53.6908 108.495 54.8315ZM19.5702 65.7739C20.0258 64.6554 20.1463 63.429 19.9171 62.2435C19.8299 61.8262 19.6601 61.4303 19.4176 61.0792C19.1752 60.7281 18.865 60.4287 18.5052 60.1987C18.1454 59.9686 17.7432 59.8124 17.3222 59.7393C16.9011 59.6662 16.4697 59.6776 16.0531 59.7729C14.1564 60.2594 12.6444 61.4704 11.0078 62.476C9.72339 63.2653 8.84004 64.152 9.30068 65.5306C9.30068 68.0662 9.30068 68.0662 10.3358 69.315C11.9616 71.2775 14.3244 71.6019 16.4216 70.126C17.8911 69.0292 18.9897 67.5107 19.5702 65.7739Z" fill="#157E42"/>
<path d="M50.0209 45.4028L47.669 47.8303L47.4197 47.6248L45.1436 45.565L47.8044 42.9646C48.4819 43.7161 49.2677 44.5919 50.0209 45.4028Z" fill="#157E42"/>
<path d="M19.9169 62.2327C20.1461 63.4182 20.0256 64.6445 19.57 65.7631C18.9846 67.49 17.8865 68.9985 16.4214 70.0881C14.3242 71.564 11.9776 71.2397 10.3356 69.2772C9.30048 68.0337 9.30048 68.0337 9.30048 65.4927C8.829 64.1141 9.72319 63.2275 11.0076 62.4382C12.6333 61.4434 14.1562 60.2324 16.0529 59.735C16.4714 59.6401 16.9047 59.6297 17.3272 59.7045C17.7497 59.7793 18.153 59.9378 18.5131 60.1706C18.8733 60.4034 19.183 60.7058 19.4241 61.06C19.6652 61.4142 19.8328 61.8129 19.9169 62.2327Z" fill="white"/>
<path d="M238.32 63.8005C237.755 63.8107 237.191 63.8649 236.634 63.9627C236.278 64.0305 235.947 64.1939 235.677 64.4353C235.407 64.6768 235.208 64.9871 235.101 65.333C234.995 65.6789 234.985 66.0472 235.073 66.3983C235.16 66.7493 235.342 67.0699 235.599 67.3254C236.181 67.9285 236.906 68.3749 237.707 68.623C239.568 69.1558 241.552 69.0781 243.365 68.4013C243.553 68.3342 243.734 68.251 243.907 68.1526C245.273 67.4011 245.386 66.3199 244.124 65.3954C243.391 64.889 242.608 64.4579 241.788 64.1087C240.103 63.3464 238.385 62.6219 237.209 61.1244C236.67 60.5068 236.297 59.7627 236.125 58.9619C235.778 56.6588 237.892 55.091 240.39 55.6856C240.683 55.7559 240.975 55.8478 241.317 55.9451V54.2908H226.05C226.05 55.1288 226.05 55.983 226.05 56.8372C226.05 57.0102 226.316 57.1886 226.479 57.34C228.766 59.4647 228.646 62.0867 226.105 63.8708C223.971 65.408 221.404 66.2296 218.772 66.2171C217.819 66.2171 217.472 65.9144 217.206 64.9521C217.97 64.7142 218.734 64.4547 219.515 64.2384C221.129 63.8299 222.642 63.0938 223.959 62.0759C224.501 61.638 224.967 61.1352 224.831 60.4C224.759 60.0556 224.577 59.7439 224.312 59.5118C224.047 59.2798 223.714 59.1399 223.362 59.1132C219.818 58.4375 216.859 60.7351 216.317 63.2383C216.149 63.8596 216.138 64.5131 216.286 65.1397C216.433 65.7664 216.735 66.3465 217.163 66.8281C219.455 69.342 223.52 70.4233 226.544 66.3361L228.711 68.304C226.987 70.0351 224.654 71.028 222.208 71.072C220.574 71.1599 218.949 70.7704 217.533 69.9514C216.118 69.1323 214.972 67.9191 214.236 66.4604C212.031 61.8813 214.778 56.8534 219.948 56.1182C220.875 55.983 221.823 55.9938 222.826 55.9343V54.3124H208.118V58.3942C206.969 58.3942 205.885 58.3942 204.796 58.3942C203.32 58.372 201.887 58.8871 200.764 59.8431C199.138 61.1731 198.179 62.8598 198.596 65.0115C199.014 67.1633 200.704 68.2013 202.628 68.796C203.597 69.1143 204.641 69.1217 205.614 68.8172C206.587 68.5127 207.44 67.9116 208.053 67.0984C208.226 66.8821 208.394 66.6605 208.595 66.3847C208.974 66.7199 209.337 67.0281 209.679 67.3471C210.02 67.666 210.378 68.0066 210.763 68.3689C209.501 69.6844 207.865 70.5809 206.075 70.9369C202.596 71.6235 199.528 70.8612 197.225 68.0391C194.207 64.3358 195.058 57.3724 201.913 56.4263C202.888 56.2912 203.886 56.3236 204.926 56.2749V54.3395H191.692V71.0234C191.286 70.6557 191.026 70.4449 190.793 70.2124C189.942 69.3636 188.782 68.6446 188.343 67.6228C187.904 66.601 188.218 65.3089 188.218 64.1357C188.218 61.1677 188.218 58.1888 188.218 55.2315V54.3395H183.764C182.956 56.9615 182.214 59.6052 181.33 62.2057C180.707 64.0384 179.943 65.8225 179.163 67.612C178.658 68.7703 177.831 69.7594 176.778 70.4611C175.245 71.4883 173.911 71.2072 173.218 69.515C171.559 65.4603 170.004 61.3623 168.422 57.2751C168.097 56.4425 167.853 55.5829 167.522 54.7558C167.471 54.646 167.396 54.5491 167.302 54.4724C167.208 54.3956 167.098 54.341 166.98 54.3124C162.932 54.3124 158.884 54.3124 154.781 54.3124V60.8C155.865 59.881 156.835 59.0159 157.843 58.1726C158.743 57.4157 159.615 56.6155 160.58 55.956C161.664 55.2207 162.206 55.291 163.057 56.2695C163.907 57.2481 164.59 58.3077 165.322 59.3511C165.37 59.44 165.395 59.5394 165.395 59.6404C165.395 59.7413 165.37 59.8407 165.322 59.9296C164.606 60.7568 163.848 61.5515 163.111 62.3408C162.52 61.6704 162 61.0487 161.442 60.4648C161.216 60.1962 160.898 60.0216 160.55 59.9756C160.202 59.9296 159.849 60.0154 159.561 60.2161C158.13 61.0109 156.7 61.8002 155.258 62.5679C155.075 62.6524 154.924 62.7928 154.827 62.9688C154.729 63.1447 154.691 63.347 154.716 63.5464C154.716 65.9793 154.716 68.4121 154.716 71.0558C154.031 70.3207 153.308 69.6223 152.549 68.9636C151.541 68.1796 151.259 67.2443 151.291 65.9901C151.378 62.4111 151.324 58.8267 151.324 55.2423V54.3611H145.265C145.265 55.1666 145.233 55.983 145.265 56.7831C145.265 57.0102 145.552 57.2427 145.747 57.4265C146.197 57.7873 146.569 58.2355 146.84 58.7438C147.111 59.2521 147.276 59.81 147.324 60.3837C147.347 61.0544 147.194 61.7193 146.882 62.3135C146.569 62.9077 146.107 63.4108 145.541 63.7735C143.37 65.3865 140.737 66.262 138.03 66.2712C137.028 66.2712 136.659 65.9468 136.475 64.9899C137.385 64.7088 138.301 64.4114 139.228 64.1411C140.684 63.734 142.043 63.037 143.222 62.0921C143.764 61.6542 144.219 61.1406 144.051 60.3946C143.966 60.0692 143.783 59.7774 143.528 59.5582C143.272 59.3389 142.956 59.2026 142.62 59.1673C139.13 58.4699 136.085 60.7135 135.575 63.3302C135.417 63.9398 135.411 64.5788 135.558 65.1913C135.704 65.8038 135.999 66.3713 136.415 66.8443C138.897 69.5853 142.918 70.1854 145.536 66.7145L145.812 66.3739L147.98 68.3418C146.832 69.565 145.343 70.4163 143.704 70.7855C140.106 71.6235 136.892 70.9639 134.491 68.0012C130.752 63.3896 133.305 57.0318 139.195 56.1614C140.122 56.0262 141.076 56.0371 142.089 55.9776V54.3557H126.135V58.4483C125.219 58.2482 124.39 58.0212 123.55 57.9076C122.996 57.8335 122.434 57.8518 121.886 57.9617C120.905 58.1726 120.607 58.8267 121.014 59.7512C121.562 60.9235 122.528 61.8503 123.723 62.3516C124.948 62.9301 126.216 63.4329 127.436 63.9735C128.154 64.3055 128.839 64.7076 129.479 65.1737C130.454 65.9036 130.611 66.6659 130.194 67.812C129.549 69.5691 128.086 70.3638 126.465 70.9693C126.265 71.045 126.054 71.1045 125.685 71.2234L127.696 72.3695L125.75 74.5321C124.503 73.9312 123.395 73.0767 122.499 72.0235C122.238 71.7431 121.894 71.5536 121.518 71.4829C119.269 71.1531 117.101 70.6071 115.237 69.2231C114.088 68.3689 113.21 67.2984 113.069 65.8333C112.814 63.1301 114.657 61.5461 117.334 62.011C118.094 62.1384 118.812 62.4447 119.429 62.9045C120.047 63.3642 120.545 63.9643 120.884 64.6547C121.512 65.7955 122.146 66.9308 122.748 68.0823C122.806 68.2439 122.9 68.3905 123.022 68.5114C123.144 68.6324 123.292 68.7247 123.454 68.7816C123.617 68.8385 123.79 68.8587 123.961 68.8406C124.132 68.8225 124.297 68.7666 124.444 68.677C124.944 68.4881 125.426 68.2565 125.886 67.985C126.801 67.3471 126.894 66.4767 126.064 65.7306C125.451 65.2053 124.776 64.7568 124.054 64.3952C122.927 63.7951 121.74 63.314 120.629 62.6814C119.539 62.0906 118.65 61.189 118.076 60.0918C116.993 58.005 118.174 55.8046 120.521 55.6316C121.343 55.6375 122.164 55.7062 122.975 55.837V54.253H122.13C119.128 54.253 116.131 54.253 113.129 54.253C112.894 54.2783 112.657 54.2266 112.455 54.1056C112.252 53.9846 112.095 53.8009 112.007 53.5826C111.562 52.696 111.048 51.8472 110.5 50.8794H111.422C131.625 50.8794 151.83 50.8794 172.036 50.8794C172.295 50.8503 172.557 50.9077 172.779 51.0427C173.002 51.1778 173.173 51.3828 173.267 51.6255C173.695 52.4905 174.199 53.3123 174.73 54.2584H171.12C171.662 55.7938 172.172 57.2319 172.697 58.6591C173.565 61.0325 174.421 63.4059 175.326 65.7576C175.83 67.0605 176.41 67.1578 177.385 66.1415C177.744 65.7829 178.052 65.3773 178.301 64.9359C180.03 61.5893 181.054 57.9833 182.257 54.2962C181.13 54.2962 180.089 54.2962 179.06 54.2962C178.887 54.3197 178.711 54.2858 178.559 54.1998C178.407 54.1139 178.288 53.9806 178.22 53.8205C177.705 52.8581 177.163 51.9607 176.567 50.8794H177.418C201.338 50.8794 225.261 50.8794 249.185 50.8794C249.419 50.85 249.656 50.8974 249.861 51.0145C250.065 51.1316 250.226 51.3119 250.318 51.5282C250.757 52.4148 251.283 53.2636 251.83 54.2313H244.487V58.4483C243.647 58.2258 242.797 58.0453 241.94 57.9076C241.309 57.839 240.671 57.8792 240.054 58.0266C239.893 58.0528 239.741 58.117 239.609 58.2139C239.478 58.3107 239.372 58.4374 239.3 58.5834C239.228 58.7293 239.192 58.8904 239.195 59.053C239.198 59.2157 239.24 59.3754 239.317 59.5187C239.557 60.1398 239.921 60.7059 240.387 61.1826C240.852 61.6593 241.41 62.0368 242.027 62.2922C243.268 62.8869 244.557 63.3734 245.82 63.9735C246.496 64.269 247.14 64.6312 247.744 65.0548C248.871 65.8928 249.034 66.7199 248.465 68.0066C248.138 68.7051 247.659 69.322 247.063 69.8121C246.466 70.3023 245.768 70.6533 245.018 70.8395C243.15 71.4492 241.168 71.6249 239.222 71.3531C237.275 71.0814 235.417 70.3695 233.789 69.2717C232.938 68.8007 232.261 68.0695 231.858 67.1857C231.455 66.3018 231.348 65.3123 231.551 64.3628C231.876 62.8598 232.635 62.2597 234.206 62.2651C235.717 62.2741 237.175 62.8183 238.32 63.8005ZM120.38 69.0447C119.464 67.3579 118.841 65.6549 117.047 64.8872C116.782 65.1813 116.629 65.5581 116.613 65.9529C116.597 66.3476 116.72 66.7355 116.96 67.0497C117.326 67.6328 117.829 68.1187 118.424 68.4661C119.02 68.8135 119.691 69.012 120.38 69.0447Z" fill="#FD642A"/>
<path d="M190.11 43.1971L192.305 45.484L189.996 47.7384L187.731 45.5759L190.11 43.1971Z" fill="#FD642A"/>
<path d="M143.959 14.084C143.963 14.0085 143.951 13.9329 143.924 13.8623C143.896 13.7917 143.855 13.7275 143.801 13.674C143.747 13.6205 143.683 13.5788 143.612 13.5517C143.541 13.5245 143.466 13.5125 143.39 13.5164H143.021C143.108 13.4693 143.18 13.3996 143.229 13.3148C143.279 13.23 143.304 13.1334 143.303 13.0352C143.307 12.9596 143.295 12.8841 143.268 12.8135C143.241 12.7428 143.199 12.6787 143.145 12.6252C143.092 12.5717 143.027 12.53 142.956 12.5028C142.886 12.4757 142.81 12.4637 142.734 12.4675H142.328C142.429 12.426 142.516 12.3546 142.576 12.2629C142.636 12.1712 142.666 12.0634 142.664 11.9539C142.667 11.8304 142.628 11.7094 142.553 11.6111C142.479 11.5127 142.372 11.4429 142.252 11.4133C142.348 11.1882 142.397 10.946 142.397 10.7013C142.396 10.4566 142.346 10.2146 142.25 9.98974C142.153 9.76491 142.012 9.56195 141.834 9.39314C141.656 9.22432 141.447 9.09314 141.217 9.00751H140.225C140.001 9.09987 139.797 9.23542 139.626 9.40641C139.455 9.57741 139.319 9.78047 139.226 10.004C139.133 10.2275 139.086 10.467 139.086 10.7088C139.086 10.9507 139.135 11.1901 139.228 11.4133C139.107 11.4419 138.999 11.5112 138.923 11.6097C138.847 11.7081 138.807 11.8297 138.811 11.9539C138.808 12.0634 138.839 12.1712 138.899 12.2629C138.959 12.3546 139.045 12.426 139.147 12.4675H138.74C138.662 12.4596 138.583 12.4686 138.509 12.494C138.435 12.5193 138.368 12.5604 138.311 12.6143C138.254 12.6683 138.21 12.7338 138.181 12.8065C138.152 12.8792 138.14 12.9572 138.144 13.0352C138.143 13.1334 138.168 13.23 138.218 13.3148C138.268 13.3996 138.339 13.4693 138.426 13.5164H138.079C138.005 13.5163 137.933 13.5311 137.865 13.56C137.798 13.5888 137.737 13.6311 137.686 13.6842C137.635 13.7373 137.596 13.8001 137.57 13.8688C137.545 13.9376 137.533 14.0108 137.537 14.084C137.536 14.1754 137.559 14.2655 137.602 14.3458C137.646 14.4262 137.709 14.4942 137.786 14.5436C135.98 17.2926 134.844 20.4254 134.47 23.6911H147.042C146.668 20.4254 145.532 17.2926 143.726 14.5436C143.8 14.4923 143.86 14.4235 143.901 14.3433C143.941 14.263 143.961 14.1739 143.959 14.084Z" fill="#FD642A"/>
<path d="M169.197 49.663C168.425 41.7715 166.178 34.0938 162.574 27.0268C162.821 26.8945 163.021 26.6912 163.15 26.4435C163.279 26.1957 163.33 25.9149 163.297 25.6378C163.264 25.3606 163.147 25.0999 162.963 24.8896C162.779 24.6793 162.536 24.5292 162.265 24.4588V23.9182C162.536 23.8479 162.731 23.7019 162.731 23.5289C162.731 23.3559 162.526 23.2045 162.238 23.1396L162.141 19.9878C162.141 19.9304 162.118 19.8754 162.077 19.8349C162.037 19.7943 161.981 19.7715 161.924 19.7715C161.866 19.7715 161.811 19.7943 161.771 19.8349C161.73 19.8754 161.707 19.9304 161.707 19.9878L161.61 23.1396C161.322 23.2045 161.122 23.3559 161.122 23.5289C161.122 23.7019 161.312 23.8479 161.588 23.9182V24.4588C161.317 24.5285 161.073 24.6781 160.888 24.888C160.704 25.098 160.587 25.3586 160.553 25.6359C160.519 25.9131 160.57 26.1941 160.698 26.4422C160.827 26.6904 161.027 26.8941 161.274 27.0268C158.101 33.2454 155.963 39.9375 154.944 46.8409V41.8077H154.51C152.885 38.5639 149.882 25.7131 146.923 24.3182H134.546C131.598 25.7131 128.584 38.5531 126.959 41.8077H126.531V46.8301C125.527 39.9343 123.41 33.2464 120.26 27.0268C120.507 26.8941 120.707 26.6904 120.836 26.4422C120.964 26.1941 121.015 25.9131 120.981 25.6359C120.947 25.3586 120.83 25.098 120.646 24.888C120.461 24.6781 120.217 24.5285 119.946 24.4588V23.9182C120.223 23.8479 120.412 23.7019 120.412 23.5289C120.412 23.3559 120.212 23.2045 119.924 23.1396L119.827 19.9878C119.824 19.9327 119.801 19.8806 119.762 19.8416C119.723 19.8026 119.671 19.7795 119.616 19.7769C119.587 19.7762 119.559 19.7811 119.532 19.7913C119.506 19.8015 119.481 19.8168 119.461 19.8364C119.44 19.856 119.423 19.8794 119.412 19.9054C119.4 19.9314 119.394 19.9594 119.393 19.9878L119.296 23.1396C119.009 23.2045 118.803 23.3559 118.803 23.5289C118.803 23.7019 118.998 23.8479 119.269 23.9182V24.4588C118.998 24.5292 118.755 24.6793 118.571 24.8896C118.387 25.0999 118.27 25.3606 118.237 25.6378C118.204 25.9149 118.255 26.1957 118.384 26.4435C118.513 26.6912 118.713 26.8945 118.96 27.0268C115.356 34.0938 113.11 41.7715 112.337 49.663H111.893V51.1498H169.755V49.663H169.197Z" fill="#FD642A"/>
<path d="M140.989 1.06024H140.669V9.1535H140.989V1.06024Z" fill="#01529C"/>
<path d="M141.168 0.795307C141.168 0.884205 141.133 0.969463 141.07 1.03232C141.007 1.09518 140.921 1.1305 140.832 1.1305C140.743 1.1305 140.658 1.09518 140.595 1.03232C140.532 0.969463 140.496 0.884205 140.496 0.795307C140.496 0.611492 140.832 0.460114 140.832 0.460114C140.832 0.460114 141.168 0.600679 141.168 0.795307Z" fill="#DAD9ED"/>
<path d="M149.709 6.23408C149.393 5.87548 149.005 5.58643 148.571 5.38529C148.082 5.32471 147.612 5.15868 147.194 4.89872C146.808 4.62522 146.396 4.38984 145.964 4.1959C146.435 4.09341 146.891 3.93552 147.324 3.72555C147.807 3.45524 148.04 2.95785 148.479 2.77945C148.742 2.67581 149.024 2.62617 149.308 2.63348C148.866 2.34887 148.342 2.21949 147.818 2.26585C147.041 2.39122 146.244 2.27416 145.536 1.93065C144.991 1.60356 144.354 1.46132 143.721 1.52518C143.171 1.58088 142.616 1.51631 142.095 1.33596C141.608 1.2147 141.106 1.16013 140.604 1.17377V6.42871C140.692 6.4271 140.78 6.43802 140.865 6.46115C141.649 6.64883 142.453 6.73962 143.26 6.73146C144.029 6.65037 145.14 6.34762 145.753 6.36384C146.365 6.38006 147.379 6.81256 148.343 6.5044C148.907 6.32183 149.511 6.3068 150.083 6.46115C150.083 6.46115 149.817 6.31518 149.709 6.23408Z" fill="#01529C"/>
<path d="M138.794 41.4995C138.794 41.4995 138.762 41.1048 139.038 41.1697C141.748 41.786 142.626 35.9256 146.311 35.8769C148.88 35.8391 150.587 38.4233 150.495 41.1697C150.321 46.3003 147.216 47.387 146.083 47.387C142.62 47.387 142.398 43.5161 143.227 42.3429C143.417 43.662 144.571 45.2785 145.97 45.2785C147.883 45.2785 149.004 43.3755 149.059 41.4941C149.118 39.2883 147.801 38.1368 146.349 38.0286C143.851 37.834 143.515 42.0401 140.529 42.0401C139.087 42.0401 139.575 43.2674 139.472 42.5808C139.461 42.451 138.751 41.5698 138.794 41.4995Z" fill="white"/>
<path d="M132.595 35.8769C133.343 34.3578 135.136 33.4387 137.12 33.4387C138.204 33.4387 140.545 34.1145 140.545 36.623C140.537 37.437 140.252 38.224 139.737 38.8555C139.222 39.487 138.508 39.9255 137.71 40.0993C139.905 41.0886 141.639 42.4997 141.504 45.6786C141.406 46.7261 140.915 47.698 140.129 48.3997C139.343 49.1014 138.321 49.4812 137.266 49.463C131.489 49.463 129.679 43.4296 130.806 40.0776C130.936 42.0834 132.4 46.6788 136.914 46.6788C138.513 46.6788 139.39 45.6299 139.374 44.3865C139.342 41.386 135.478 41.0075 135.548 40.0993C135.651 38.8396 138.892 38.8288 138.892 37.2123C138.892 35.904 137.808 35.5904 137.006 35.5904C135.803 35.5904 134.806 36.6717 134.036 37.2123C132.866 38.0449 132.058 36.9636 132.595 35.8769Z" fill="white"/>
<path d="M138.952 28.7622C137.927 29.93 138.756 33.3197 142.387 34.1307C145.097 34.7362 147.763 33.709 147.763 32.1628C147.776 31.9917 147.753 31.8199 147.696 31.6582C147.638 31.4964 147.548 31.3484 147.43 31.2233C147.313 31.0983 147.17 30.999 147.012 30.9318C146.854 30.8646 146.683 30.8309 146.511 30.8328C145.428 30.8328 145.818 32.3196 143.157 32.3196C142.145 32.3279 141.164 31.9733 140.392 31.3204C139.62 30.6674 139.109 29.7596 138.952 28.7622Z" fill="white"/>
<path d="M144.571 29.6326C144.571 29.9331 144.482 30.2268 144.315 30.4766C144.147 30.7265 143.909 30.9212 143.631 31.0362C143.353 31.1512 143.047 31.1812 142.751 31.1226C142.456 31.064 142.185 30.9193 141.972 30.7069C141.759 30.4944 141.614 30.2237 141.555 29.929C141.496 29.6343 141.526 29.3289 141.642 29.0513C141.757 28.7737 141.952 28.5364 142.202 28.3695C142.453 28.2026 142.747 28.1135 143.048 28.1135C143.452 28.1135 143.84 28.2735 144.125 28.5584C144.411 28.8433 144.571 29.2297 144.571 29.6326Z" fill="white"/>
</g>
<defs>
<clipPath id="clip0_147_4946">
<rect width="251" height="81" fill="white" transform="translate(0.835449 0.445343)"/>
</clipPath>
</defs>
</svg>
