<svg width="98" height="98" viewBox="0 0 98 98" fill="none" xmlns="http://www.w3.org/2000/svg">
<g filter="url(#filter0_d_1350_2366)">
<circle cx="49.3198" cy="45.0077" r="44.3916" fill="white"/>
</g>
<mask id="mask0_1350_2366" style="mask-type:alpha" maskUnits="userSpaceOnUse" x="4" y="0" width="90" height="90">
<circle cx="48.958" cy="45.0077" r="44.3916" fill="white"/>
</mask>
<g mask="url(#mask0_1350_2366)">
<path d="M75.0858 71.7118H75.058H63.0073V87.3932H75.058H75.0858H87.1339V71.7118H75.0858Z" fill="#370C38"/>
<path d="M82.8772 71.6389H67.4963V86.805H82.8772V71.6389Z" fill="#3F1142"/>
<path d="M83.0817 34.8109C81.327 28.6922 75.0858 27.2367 75.0858 27.2367C75.0858 27.2367 68.8446 28.6922 67.0899 34.8109C65.3352 40.9297 59.1899 64.6227 60.9446 71.7093H89.2269C90.9816 64.6202 84.8389 40.9271 83.0817 34.8109Z" fill="#7C2C78"/>
<path d="M83.0816 34.8109C81.3269 28.6922 75.0857 27.2367 75.0857 27.2367V71.7093H89.2269C90.9816 64.6202 84.8388 40.9271 83.0816 34.8109Z" fill="#682368"/>
<path d="M72.5839 71.6389H61.0028C60.6897 70.3241 60.6241 68.3583 60.8109 65.7942C60.9876 63.3658 61.3916 60.3743 62.0102 56.8976C62.0177 56.8574 61.99 56.8197 61.9521 56.8122C61.9117 56.8046 61.8738 56.8323 61.8663 56.87C61.2452 60.3491 60.8412 63.3482 60.6645 65.7816C60.4751 68.396 60.5433 70.397 60.874 71.7268C60.8816 71.7595 60.9119 71.7822 60.9447 71.7822H72.5813C72.6217 71.7822 72.6545 71.7495 72.6545 71.7092C72.6545 71.669 72.6217 71.6363 72.5813 71.6363L72.5839 71.6389Z" fill="#370C38"/>
<path d="M75.0683 27.1663C75.0051 27.1814 68.7639 28.7023 67.0168 34.7908C67.0067 34.8285 67.0294 34.8688 67.0673 34.8813C67.0749 34.8813 67.0799 34.8838 67.0875 34.8838C67.1203 34.8838 67.1481 34.8637 67.1582 34.831C68.8801 28.828 75.0405 27.3222 75.1011 27.3071C75.1415 27.297 75.1642 27.2593 75.1566 27.2191C75.1465 27.1789 75.1087 27.1563 75.0683 27.1638V27.1663Z" fill="#370C38"/>
<path d="M88.4518 57.7096C87.4445 51.8548 85.9978 45.711 84.9626 41.5857C84.9525 41.5455 84.9121 41.5229 84.8743 41.533C84.8339 41.543 84.8111 41.5832 84.8212 41.6209C85.8564 45.7411 87.3031 51.8825 88.3079 57.7322C89.4794 64.5372 89.7647 69.2331 89.1562 71.6917C89.1461 71.7319 89.1714 71.7696 89.2093 71.7796C89.2143 71.7796 89.2219 71.7796 89.2269 71.7796C89.2598 71.7796 89.2901 71.757 89.2976 71.7243C89.9111 69.2482 89.6258 64.5322 88.4518 57.7071V57.7096Z" fill="#370C38"/>
<path d="M71.6119 30.0045C71.6119 30.0045 63.3837 45.2007 63.0908 71.7093H64.7496C64.7496 71.7093 63.361 54.7156 71.6119 30.0045Z" fill="#934A93"/>
<path d="M72.5838 30.0045C72.5838 30.0045 66.3956 46.6587 65.3276 71.7093H66.9788C66.9788 71.7093 68.0317 46.2691 72.5813 30.0045H72.5838Z" fill="#934A93"/>
<path d="M79.176 30.0045C79.176 30.0045 87.4042 45.2007 87.6971 71.7093H86.0383C86.0383 71.7093 87.4269 54.7156 79.176 30.0045Z" fill="#934A93"/>
<path d="M78.2041 30.0045C78.2041 30.0045 84.3923 46.6587 85.4603 71.7093H83.8091C83.8091 71.7093 82.7562 46.2691 78.2066 30.0045H78.2041Z" fill="#934A93"/>
<path d="M69.6981 73.8964H60.3843V74.3564H69.6981V73.8964Z" fill="#F2A661"/>
<path d="M89.7875 73.8964H80.4736V74.3564H89.7875V73.8964Z" fill="#F2A661"/>
<path d="M90.0551 73.6299L84.7152 61.7595H65.4539L60.114 73.6299H69.6955C70.867 68.9692 75.0833 69.3337 75.0833 69.3337C75.0833 69.3337 79.3022 68.9692 80.4711 73.6299H90.0526H90.0551Z" fill="#F2A661"/>
<path d="M69.6955 73.6299H60.6316V73.8964H69.6955V73.6299Z" fill="#915422"/>
<path d="M80.4762 73.8964H89.54V73.6299H80.4762V73.8964Z" fill="#915422"/>
<path d="M68.3725 69.2784L67.2212 69.7334L67.9079 70.1708L68.5947 70.6082L68.529 69.3764C68.529 69.3764 70.8114 68.9566 70.4377 66.2316C67.7943 67.036 68.37 69.2758 68.37 69.2758L68.3725 69.2784Z" fill="white"/>
<path d="M69.2586 72.8509H61.495L65.4639 63.9795C65.4841 63.9343 65.4639 63.884 65.4184 63.8639C65.373 63.8438 65.3225 63.8639 65.3023 63.9091L61.2803 72.9037C61.2677 72.9313 61.2703 72.9615 61.2879 72.9867C61.3031 73.0118 61.3308 73.0269 61.3611 73.0269H69.2611C69.3091 73.0269 69.3495 72.9866 69.3495 72.9389C69.3495 72.8911 69.3091 72.8509 69.2611 72.8509H69.2586Z" fill="white"/>
<path d="M81.5744 70.6107L82.2612 70.1733L82.9479 69.7359L81.7966 69.2809C81.7966 69.2809 82.3697 67.0411 79.7288 66.2366C79.3552 68.9617 81.6376 69.3815 81.6376 69.3815L81.5719 70.6133L81.5744 70.6107Z" fill="white"/>
<path d="M88.8911 72.9008L84.8691 63.9063C84.8489 63.861 84.7959 63.8434 84.753 63.861C84.7075 63.8811 84.6899 63.9314 84.7075 63.9767L88.6765 72.8481H80.9128C80.8649 72.8481 80.8245 72.8883 80.8245 72.936C80.8245 72.9838 80.8649 73.024 80.9128 73.024H88.8128C88.8431 73.024 88.8709 73.0089 88.886 72.9838C88.9012 72.9587 88.9037 72.9285 88.8936 72.9008H88.8911Z" fill="white"/>
<path d="M75.0705 65.945C74.3838 65.945 73.8284 66.4981 73.8284 67.1818C73.8284 67.8656 74.3838 68.4212 75.0705 68.4212C75.7573 68.4212 76.3127 67.8681 76.3127 67.1818C76.3127 66.4955 75.7573 65.945 75.0705 65.945Z" fill="white"/>
<path d="M75.0858 59.7408H65.3276V60.3542H65.8225V63.9993C65.8225 64.5725 66.2896 65.0375 66.8652 65.0375H67.0975C67.6731 65.0375 68.1402 64.5725 68.1402 63.9993C68.1402 64.5725 68.6073 65.0375 69.1829 65.0375H69.4152C69.9909 65.0375 70.4579 64.5725 70.4579 63.9993C70.4579 64.5725 70.925 65.0375 71.5007 65.0375H71.7329C72.3086 65.0375 72.7757 64.5725 72.7757 63.9993C72.7757 64.5725 73.2427 65.0375 73.8184 65.0375H74.0507C74.6263 65.0375 75.0934 64.5725 75.0934 63.9993C75.0934 64.5725 75.5605 65.0375 76.1361 65.0375H76.3684C76.944 65.0375 77.4111 64.5725 77.4111 63.9993C77.4111 64.5725 77.8782 65.0375 78.4538 65.0375H78.6861C79.2618 65.0375 79.7288 64.5725 79.7288 63.9993C79.7288 64.5725 80.1959 65.0375 80.7716 65.0375H81.0038C81.5795 65.0375 82.0466 64.5725 82.0466 63.9993C82.0466 64.5725 82.5137 65.0375 83.0893 65.0375H83.3216C83.8972 65.0375 84.3643 64.5725 84.3643 63.9993V60.3542H84.8592V59.7408H75.101H75.0858Z" fill="#F4CA19"/>
<path d="M67.9129 60.4824H66.0446C66.0244 60.4824 66.0093 60.5 66.0093 60.5176V63.9968C66.0093 64.4795 66.4031 64.8716 66.8879 64.8716H67.0747C67.5595 64.8716 67.9533 64.4795 67.9533 63.9968V60.5176C67.9533 60.4975 67.9382 60.4824 67.918 60.4824H67.9129ZM67.8776 63.9968C67.8776 64.4392 67.5166 64.7987 67.0722 64.7987H66.8854C66.441 64.7987 66.08 64.4392 66.08 63.9968V60.5553H67.8751V63.9968H67.8776Z" fill="white"/>
<path d="M70.2306 60.4824H68.3623C68.3421 60.4824 68.3269 60.5 68.3269 60.5176V63.9968C68.3269 64.4795 68.7208 64.8716 69.2055 64.8716H69.3924C69.8771 64.8716 70.271 64.4795 70.271 63.9968V60.5176C70.271 60.4975 70.2558 60.4824 70.2356 60.4824H70.2306ZM70.1952 63.9968C70.1952 64.4392 69.8342 64.7987 69.3898 64.7987H69.203C68.7586 64.7987 68.3976 64.4392 68.3976 63.9968V60.5553H70.1927V63.9968H70.1952Z" fill="white"/>
<path d="M72.5458 60.4824H70.6774C70.6572 60.4824 70.6421 60.5 70.6421 60.5176V63.9968C70.6421 64.4795 71.0359 64.8716 71.5207 64.8716H71.7075C72.1923 64.8716 72.5861 64.4795 72.5861 63.9968V60.5176C72.5861 60.4975 72.571 60.4824 72.5508 60.4824H72.5458ZM72.5104 63.9968C72.5104 64.4392 72.1494 64.7987 71.705 64.7987H71.5182C71.0738 64.7987 70.7128 64.4392 70.7128 63.9968V60.5553H72.5079V63.9968H72.5104Z" fill="white"/>
<path d="M74.8612 60.4824H72.9929C72.9727 60.4824 72.9575 60.5 72.9575 60.5176V63.9968C72.9575 64.4795 73.3514 64.8716 73.8361 64.8716H74.023C74.5077 64.8716 74.9016 64.4795 74.9016 63.9968V60.5176C74.9016 60.4975 74.8864 60.4824 74.8662 60.4824H74.8612ZM74.8258 63.9968C74.8258 64.4392 74.4648 64.7987 74.0204 64.7987H73.8336C73.3893 64.7987 73.0282 64.4392 73.0282 63.9968V60.5553H74.8233V63.9968H74.8258Z" fill="white"/>
<path d="M84.1268 60.4824H82.2585C82.2383 60.4824 82.2231 60.5 82.2231 60.5176V63.9968C82.2231 64.4795 82.617 64.8716 83.1018 64.8716H83.2886C83.7733 64.8716 84.1672 64.4795 84.1672 63.9968V60.5176C84.1672 60.4975 84.1521 60.4824 84.1319 60.4824H84.1268ZM84.0915 63.9968C84.0915 64.4392 83.7304 64.7987 83.2861 64.7987H83.0992C82.6549 64.7987 82.2938 64.4392 82.2938 63.9968V60.5553H84.0889V63.9968H84.0915Z" fill="white"/>
<path d="M81.8116 60.4824H79.9433C79.9231 60.4824 79.908 60.5 79.908 60.5176V63.9968C79.908 64.4795 80.3018 64.8716 80.7866 64.8716H80.9734C81.4582 64.8716 81.852 64.4795 81.852 63.9968V60.5176C81.852 60.4975 81.8369 60.4824 81.8167 60.4824H81.8116ZM81.7763 63.9968C81.7763 64.4392 81.4152 64.7987 80.9709 64.7987H80.784C80.3397 64.7987 79.9787 64.4392 79.9787 63.9968V60.5553H81.7738V63.9968H81.7763Z" fill="white"/>
<path d="M79.494 60.4824H77.6257C77.6055 60.4824 77.5903 60.5 77.5903 60.5176V63.9968C77.5903 64.4795 77.9842 64.8716 78.469 64.8716H78.6558C79.1405 64.8716 79.5344 64.4795 79.5344 63.9968V60.5176C79.5344 60.4975 79.5192 60.4824 79.499 60.4824H79.494ZM79.4587 63.9968C79.4587 64.4392 79.0976 64.7987 78.6533 64.7987H78.4664C78.0221 64.7987 77.661 64.4392 77.661 63.9968V60.5553H79.4561V63.9968H79.4587Z" fill="white"/>
<path d="M77.1788 60.4824H75.3105C75.2903 60.4824 75.2751 60.5 75.2751 60.5176V63.9968C75.2751 64.4795 75.669 64.8716 76.1538 64.8716H76.3406C76.8253 64.8716 77.2192 64.4795 77.2192 63.9968V60.5176C77.2192 60.4975 77.2041 60.4824 77.1839 60.4824H77.1788ZM77.1435 63.9968C77.1435 64.4392 76.7824 64.7987 76.3381 64.7987H76.1512C75.7069 64.7987 75.3458 64.4392 75.3458 63.9968V60.5553H77.1409V63.9968H77.1435Z" fill="white"/>
<path d="M77.9312 57.3527C77.7671 55.2587 75.0858 53.1093 75.0858 53.1093C75.0858 53.1093 72.4045 55.2587 72.2404 57.3527C72.0763 59.4467 75.0858 59.7409 75.0858 59.7409C75.0858 59.7409 78.0978 59.4467 77.9312 57.3527Z" fill="#F4CA19"/>
<path d="M77.3959 57.687C77.2621 55.9877 75.0857 54.243 75.0857 54.243C75.0857 54.243 72.9069 55.9877 72.7756 57.687C72.6418 59.3864 75.0857 59.6252 75.0857 59.6252C75.0857 59.6252 77.5297 59.3864 77.3959 57.687Z" fill="white"/>
<path d="M77.1383 57.5739C77.0222 56.1033 75.2069 54.6327 75.1311 54.5699L75.0857 54.5322L75.0402 54.5699C74.962 54.6327 73.1492 56.1008 73.0331 57.5739C72.9144 59.0848 75.0579 59.311 75.0806 59.3135H75.0882H75.0958C75.1185 59.3135 77.262 59.0848 77.1434 57.5739H77.1383ZM75.0857 59.1677C74.9544 59.1526 73.0735 58.9138 73.177 57.584C73.278 56.3019 74.8004 54.962 75.0857 54.7207C75.371 54.962 76.8934 56.2994 76.9944 57.584C77.0979 58.9113 75.2195 59.1526 75.0857 59.1677Z" fill="#F2A661"/>
<path d="M75.121 20.0697L82.8948 20.8968L75.0857 22.6439L75.121 20.0697Z" fill="#934A93"/>
<path d="M77.0172 27.2392V26.9275H76.5603V26.6736H77.5298V26.201L76.5249 25.653H75.6286V24.7078H76.232V23.9788L75.6842 23.5791L75.0858 20.0647L74.4874 23.5791L73.9396 23.9788V24.7078H74.543V25.653H73.6467L72.6418 26.201V26.6736H73.6113V26.9275H73.1544V27.2392L69.3142 29.5143L70.0767 30.0045H75.0858H80.0949L80.8574 29.5143L77.0172 27.2392Z" fill="#F2A661"/>
<path d="M69.3142 29.5142H80.8574L80.0949 30.0044H70.0767L69.3142 29.5142Z" fill="#915422"/>
<path d="M73.1543 27.2392H77.0172L75.159 27.566L73.1543 27.2392Z" fill="#915422"/>
<path d="M76.5602 26.6736H73.6113V26.9275H76.5602V26.6736Z" fill="#915422"/>
<path d="M75.6286 24.7078H74.543V25.1276H75.6286V24.7078Z" fill="#915422"/>
<path d="M73.629 25.6229L72.6241 26.1684C72.6241 26.1684 72.6039 26.186 72.6039 26.201V26.6736C72.6039 26.6938 72.6191 26.7088 72.6393 26.7088H73.5709V26.8898H73.1493C73.1291 26.8898 73.1139 26.9049 73.1139 26.925V27.2141L69.2915 29.4791C69.2738 29.4892 69.2687 29.5118 69.2788 29.5294C69.2864 29.5419 69.299 29.547 69.3091 29.547C69.3167 29.547 69.3217 29.547 69.3268 29.5419L73.167 27.2669C73.167 27.2669 73.1846 27.2493 73.1846 27.2367V26.9627H73.6063C73.6265 26.9627 73.6416 26.9477 73.6416 26.9275V26.6736C73.6416 26.6535 73.6265 26.6384 73.6063 26.6384H72.6746V26.2237L73.6618 25.6882C73.6795 25.6782 73.6871 25.6555 73.677 25.6379C73.6669 25.6203 73.6441 25.6128 73.6265 25.6229H73.629Z" fill="#66122C"/>
<path d="M74.543 24.6701H73.9749V23.9964L74.5076 23.6067C74.5076 23.6067 74.5203 23.5916 74.5228 23.5841L75.1212 20.0697C75.1237 20.0496 75.1111 20.032 75.0909 20.027C75.0732 20.0245 75.053 20.037 75.0479 20.0572L74.4521 23.5564L73.9143 23.9486C73.9143 23.9486 73.8992 23.9662 73.8992 23.9788V24.7078C73.8992 24.7279 73.9143 24.743 73.9345 24.743H74.5379C74.5581 24.743 74.5733 24.7279 74.5733 24.7078C74.5733 24.6877 74.5581 24.6726 74.5379 24.6726L74.543 24.6701Z" fill="#66122C"/>
<path d="M68.2766 84.3062L68.0039 84.0322V80.6109V80.548V77.1267L68.2766 76.8552V75.9954L68.5089 74.3564H67.4965H66.4866L66.7163 75.9954V76.8552L66.9915 77.1267V80.548V80.6109V84.0322L66.7163 84.3062V85.166L66.4866 86.8025H67.4965H68.5089L68.2766 85.166V84.3062Z" fill="#F2A661"/>
<path d="M68.004 77.0914H67.0092L66.7391 76.7646V75.8823L66.5219 74.3513C66.5194 74.3312 66.5017 74.3161 66.4815 74.3212C66.4613 74.3237 66.4487 74.3413 66.4512 74.3614L66.6684 75.8873V76.7772C66.6684 76.7772 66.6709 76.7948 66.676 76.7998L66.9562 77.1392V84.0322C66.9562 84.0523 66.9713 84.0674 66.9915 84.0674C67.0117 84.0674 67.0269 84.0498 67.0269 84.0322V77.1643H68.0014C68.0216 77.1643 68.0368 77.1467 68.0368 77.1291C68.0368 77.1115 68.0216 77.0939 68.0014 77.0939L68.004 77.0914Z" fill="white"/>
<path d="M63.8052 84.3062L63.5325 84.0322V80.6108V80.5479V77.1266L63.8052 76.8551V75.9954L64.0375 74.3563H63.025H62.0151L62.2474 75.9954V76.8551L62.5201 77.1266V80.5479V80.6108V84.0322L62.2474 84.3062V85.1659L62.0151 86.8024H63.025H64.0375L63.8052 85.1659V84.3062Z" fill="#F2A661"/>
<path d="M63.5325 77.0914H62.5378L62.2676 76.7646V75.8823L62.0505 74.3513C62.048 74.3312 62.0303 74.3161 62.0101 74.3212C61.9899 74.3237 61.9773 74.3413 61.9798 74.3614L62.1969 75.8873V76.7772C62.1969 76.7772 62.1995 76.7948 62.2045 76.7998L62.4848 77.1392V84.0322C62.4848 84.0523 62.4999 84.0674 62.5201 84.0674C62.5403 84.0674 62.5555 84.0498 62.5555 84.0322V77.1643H63.53C63.5502 77.1643 63.5654 77.1467 63.5654 77.1291C63.5654 77.1115 63.5502 77.0939 63.53 77.0939L63.5325 77.0914Z" fill="white"/>
<path d="M82.097 84.3062L82.3722 84.0322V80.6109V80.548V77.1267L82.097 76.8552V75.9954L81.8647 74.3564H82.8772H83.8896L83.6573 75.9954V76.8552L83.3821 77.1267V80.548V80.6109V84.0322L83.6573 84.3062V85.166L83.8896 86.8025H82.8772H81.8647L82.097 85.166V84.3062Z" fill="#F2A661"/>
<path d="M82.3722 77.0914H83.3669L83.6371 76.7646V75.8823L83.8542 74.3513C83.8567 74.3312 83.8744 74.3161 83.8946 74.3212C83.9148 74.3237 83.9274 74.3413 83.9249 74.3614L83.7078 75.8873V76.7772C83.7078 76.7772 83.7053 76.7948 83.7002 76.7998L83.42 77.1392V84.0322C83.42 84.0523 83.4048 84.0674 83.3846 84.0674C83.3644 84.0674 83.3493 84.0498 83.3493 84.0322V77.1643H82.3747C82.3545 77.1643 82.3394 77.1467 82.3394 77.1291C82.3394 77.1115 82.3545 77.0939 82.3747 77.0939L82.3722 77.0914Z" fill="white"/>
<path d="M86.5685 84.3062L86.8411 84.0322V80.6109V80.548V77.1267L86.5685 76.8552V75.9954L86.3362 74.3564H87.3486H88.3585L88.1288 75.9954V76.8552L87.8536 77.1267V80.548V80.6109V84.0322L88.1288 84.3062V85.166L88.3585 86.8025H87.3486H86.3362L86.5685 85.166V84.3062Z" fill="#F2A661"/>
<path d="M86.8412 77.0914H87.8359L88.1061 76.7646V75.8823L88.3232 74.3513C88.3257 74.3312 88.3434 74.3161 88.3636 74.3212C88.3838 74.3237 88.3964 74.3413 88.3939 74.3614L88.1768 75.8873V76.7772C88.1768 76.7772 88.1742 76.7948 88.1692 76.7998L87.8889 77.1392V84.0322C87.8889 84.0523 87.8738 84.0674 87.8536 84.0674C87.8334 84.0674 87.8183 84.0498 87.8183 84.0322V77.1643H86.8437C86.8235 77.1643 86.8083 77.1467 86.8083 77.1291C86.8083 77.1115 86.8235 77.0939 86.8437 77.0939L86.8412 77.0914Z" fill="white"/>
<path d="M93.7664 83.2654H93.8599V82.9814H93.7664V82.8381H93.6629C93.7134 82.7828 93.7462 82.7099 93.7462 82.6294C93.7462 82.461 93.6074 82.3228 93.4382 82.3228C93.2691 82.3228 93.1302 82.461 93.1302 82.6294C93.1302 82.7099 93.163 82.7828 93.2135 82.8381H93.11V82.9814H91.3023V82.8381H91.1988C91.2493 82.7828 91.2821 82.7099 91.2821 82.6294C91.2821 82.461 91.1432 82.3228 90.9741 82.3228C90.8049 82.3228 90.666 82.461 90.666 82.6294C90.666 82.7099 90.6989 82.7828 90.7494 82.8381H90.6458V82.9814H88.9038V82.8381H88.8002C88.8507 82.7828 88.8836 82.7099 88.8836 82.6294C88.8836 82.461 88.7447 82.3228 88.5755 82.3228C88.4064 82.3228 88.2675 82.461 88.2675 82.6294C88.2675 82.7099 88.3003 82.7828 88.3508 82.8381H88.2473V82.9814H86.4396V82.8381H86.3361C86.3866 82.7828 86.4194 82.7099 86.4194 82.6294C86.4194 82.461 86.2805 82.3228 86.1114 82.3228C85.9422 82.3228 85.8034 82.461 85.8034 82.6294C85.8034 82.7099 85.8362 82.7828 85.8867 82.8381H85.7832V82.9814H84.1446V82.8381H84.0411C84.0916 82.7828 84.1244 82.7099 84.1244 82.6294C84.1244 82.461 83.9855 82.3228 83.8164 82.3228C83.6472 82.3228 83.5084 82.461 83.5084 82.6294C83.5084 82.7099 83.5412 82.7828 83.5917 82.8381H83.4882V82.9814H81.6804V82.8381H81.5769C81.6274 82.7828 81.6602 82.7099 81.6602 82.6294C81.6602 82.461 81.5214 82.3228 81.3522 82.3228C81.1831 82.3228 81.0442 82.461 81.0442 82.6294C81.0442 82.7099 81.077 82.7828 81.1275 82.8381H81.024V82.9814H79.2819V82.8381H79.1784C79.2289 82.7828 79.2617 82.7099 79.2617 82.6294C79.2617 82.461 79.1229 82.3228 78.9537 82.3228C78.7845 82.3228 78.6457 82.461 78.6457 82.6294C78.6457 82.7099 78.6785 82.7828 78.729 82.8381H78.6255V82.9814H76.8178V82.8381H76.7142C76.7647 82.7828 76.7976 82.7099 76.7976 82.6294C76.7976 82.461 76.6587 82.3228 76.4895 82.3228C76.3204 82.3228 76.1815 82.461 76.1815 82.6294C76.1815 82.7099 76.2143 82.7828 76.2648 82.8381H76.1613V82.9814H74.5985V82.8381H74.495C74.5455 82.7828 74.5783 82.7099 74.5783 82.6294C74.5783 82.461 74.4394 82.3228 74.2703 82.3228C74.1011 82.3228 73.9623 82.461 73.9623 82.6294C73.9623 82.7099 73.9951 82.7828 74.0456 82.8381H73.942V82.9814H72.1343V82.8381H72.0308C72.0813 82.7828 72.1141 82.7099 72.1141 82.6294C72.1141 82.461 71.9753 82.3228 71.8061 82.3228C71.6369 82.3228 71.4981 82.461 71.4981 82.6294C71.4981 82.7099 71.5309 82.7828 71.5814 82.8381H71.4779V82.9814H69.7358V82.8381H69.6323C69.6828 82.7828 69.7156 82.7099 69.7156 82.6294C69.7156 82.461 69.5767 82.3228 69.4076 82.3228C69.2384 82.3228 69.0996 82.461 69.0996 82.6294C69.0996 82.7099 69.1324 82.7828 69.1829 82.8381H69.0794V82.9814H67.2716V82.8381H67.1681C67.2186 82.7828 67.2514 82.7099 67.2514 82.6294C67.2514 82.461 67.1126 82.3228 66.9434 82.3228C66.7743 82.3228 66.6354 82.461 66.6354 82.6294C66.6354 82.7099 66.6682 82.7828 66.7187 82.8381H66.6152V82.9814H65.1054V82.8381H65.0019C65.0524 82.7828 65.0852 82.7099 65.0852 82.6294C65.0852 82.461 64.9463 82.3228 64.7772 82.3228C64.608 82.3228 64.4692 82.461 64.4692 82.6294C64.4692 82.7099 64.502 82.7828 64.5525 82.8381H64.449V82.9814H62.6412V82.8381H62.5377C62.5882 82.7828 62.621 82.7099 62.621 82.6294C62.621 82.461 62.4822 82.3228 62.313 82.3228C62.1439 82.3228 62.005 82.461 62.005 82.6294C62.005 82.7099 62.0378 82.7828 62.0883 82.8381H61.9848V82.9814H60.2427V82.8381H60.1392C60.1897 82.7828 60.2225 82.7099 60.2225 82.6294C60.2225 82.461 60.0837 82.3228 59.9145 82.3228C59.7453 82.3228 59.6065 82.461 59.6065 82.6294C59.6065 82.7099 59.6393 82.7828 59.6898 82.8381H59.5863V82.9814H57.7786V82.8381H57.675C57.7255 82.7828 57.7584 82.7099 57.7584 82.6294C57.7584 82.461 57.6195 82.3228 57.4503 82.3228C57.2812 82.3228 57.1423 82.461 57.1423 82.6294C57.1423 82.7099 57.1751 82.7828 57.2256 82.8381H57.1221V82.9814H57.054V83.2654H57.1221V85.6561L57.309 85.7642C57.309 85.7642 57.1221 85.9201 57.1221 86.2946C57.1221 86.2946 57.0918 86.7924 57.309 86.7924H57.054V87.9839H93.8674V86.7924H93.5872C93.8068 86.7924 93.774 86.2946 93.774 86.2946C93.774 85.9201 93.5872 85.7642 93.5872 85.7642L93.774 85.6561V83.2654H93.7664ZM57.5816 86.7924C57.8013 86.7924 57.7685 86.2946 57.7685 86.2946C57.7685 85.9201 57.5816 85.7642 57.5816 85.7642L57.7685 85.6561V83.2654H59.5762V85.6561L59.763 85.7642C59.763 85.7642 59.5762 85.9201 59.5762 86.2946C59.5762 86.2946 59.5459 86.7924 59.763 86.7924H57.5791H57.5816ZM60.0458 86.7924C60.2654 86.7924 60.2326 86.2946 60.2326 86.2946C60.2326 85.9201 60.0458 85.7642 60.0458 85.7642L60.2326 85.6561V83.2654H61.9747V85.6561L62.1615 85.7642C62.1615 85.7642 61.9747 85.9201 61.9747 86.2946C61.9747 86.2946 61.9444 86.7924 62.1615 86.7924H60.0433H60.0458ZM62.4443 86.7924C62.664 86.7924 62.6311 86.2946 62.6311 86.2946C62.6311 85.9201 62.4443 85.7642 62.4443 85.7642L62.6311 85.6561V83.2654H64.4389V85.6561L64.6257 85.7642C64.6257 85.7642 64.4389 85.9201 64.4389 86.2946C64.4389 86.2946 64.4086 86.7924 64.6257 86.7924H62.4418H62.4443ZM64.9085 86.7924C65.1281 86.7924 65.0953 86.2946 65.0953 86.2946C65.0953 85.9201 64.9085 85.7642 64.9085 85.7642L65.0953 85.6561V83.2654H66.6051V85.6561L66.7919 85.7642C66.7919 85.7642 66.6051 85.9201 66.6051 86.2946C66.6051 86.2946 66.5748 86.7924 66.7919 86.7924H64.9059H64.9085ZM67.0747 86.7924C67.2944 86.7924 67.2615 86.2946 67.2615 86.2946C67.2615 85.9201 67.0747 85.7642 67.0747 85.7642L67.2615 85.6561V83.2654H69.0693V85.6561L69.2561 85.7642C69.2561 85.7642 69.0693 85.9201 69.0693 86.2946C69.0693 86.2946 69.039 86.7924 69.2561 86.7924H67.0722H67.0747ZM69.5389 86.7924C69.7585 86.7924 69.7257 86.2946 69.7257 86.2946C69.7257 85.9201 69.5389 85.7642 69.5389 85.7642L69.7257 85.6561V83.2654H71.4678V85.6561L71.6546 85.7642C71.6546 85.7642 71.4678 85.9201 71.4678 86.2946C71.4678 86.2946 71.4375 86.7924 71.6546 86.7924H69.5364H69.5389ZM71.9374 86.7924C72.1571 86.7924 72.1242 86.2946 72.1242 86.2946C72.1242 85.9201 71.9374 85.7642 71.9374 85.7642L72.1242 85.6561V83.2654H73.932V85.6561L74.1188 85.7642C74.1188 85.7642 73.932 85.9201 73.932 86.2946C73.932 86.2946 73.9017 86.7924 74.1188 86.7924H71.9349H71.9374ZM74.4016 86.7924C74.6212 86.7924 74.5884 86.2946 74.5884 86.2946C74.5884 85.9201 74.4016 85.7642 74.4016 85.7642L74.5884 85.6561V83.2654H76.1512V85.6561L76.338 85.7642C76.338 85.7642 76.1512 85.9201 76.1512 86.2946C76.1512 86.2946 76.1209 86.7924 76.338 86.7924H74.399H74.4016ZM76.6208 86.7924C76.8405 86.7924 76.8076 86.2946 76.8076 86.2946C76.8076 85.9201 76.6208 85.7642 76.6208 85.7642L76.8076 85.6561V83.2654H78.6154V85.6561L78.8022 85.7642C78.8022 85.7642 78.6154 85.9201 78.6154 86.2946C78.6154 86.2946 78.5851 86.7924 78.8022 86.7924H76.6183H76.6208ZM79.085 86.7924C79.3046 86.7924 79.2718 86.2946 79.2718 86.2946C79.2718 85.9201 79.085 85.7642 79.085 85.7642L79.2718 85.6561V83.2654H81.0139V85.6561L81.2007 85.7642C81.2007 85.7642 81.0139 85.9201 81.0139 86.2946C81.0139 86.2946 80.9836 86.7924 81.2007 86.7924H79.0825H79.085ZM81.4835 86.7924C81.7032 86.7924 81.6703 86.2946 81.6703 86.2946C81.6703 85.9201 81.4835 85.7642 81.4835 85.7642L81.6703 85.6561V83.2654H83.4781V85.6561L83.6649 85.7642C83.6649 85.7642 83.4781 85.9201 83.4781 86.2946C83.4781 86.2946 83.4478 86.7924 83.6649 86.7924H81.481H81.4835ZM83.9477 86.7924C84.1673 86.7924 84.1345 86.2946 84.1345 86.2946C84.1345 85.9201 83.9477 85.7642 83.9477 85.7642L84.1345 85.6561V83.2654H85.7731V85.6561L85.9599 85.7642C85.9599 85.7642 85.7731 85.9201 85.7731 86.2946C85.7731 86.2946 85.7428 86.7924 85.9599 86.7924H83.9477ZM86.2427 86.7924C86.4623 86.7924 86.4295 86.2946 86.4295 86.2946C86.4295 85.9201 86.2427 85.7642 86.2427 85.7642L86.4295 85.6561V83.2654H88.2372V85.6561L88.4241 85.7642C88.4241 85.7642 88.2372 85.9201 88.2372 86.2946C88.2372 86.2946 88.2069 86.7924 88.4241 86.7924H86.2401H86.2427ZM88.7068 86.7924C88.9265 86.7924 88.8937 86.2946 88.8937 86.2946C88.8937 85.9201 88.7068 85.7642 88.7068 85.7642L88.8937 85.6561V83.2654H90.6357V85.6561L90.8226 85.7642C90.8226 85.7642 90.6357 85.9201 90.6357 86.2946C90.6357 86.2946 90.6054 86.7924 90.8226 86.7924H88.7043H88.7068ZM91.1054 86.7924C91.325 86.7924 91.2922 86.2946 91.2922 86.2946C91.2922 85.9201 91.1054 85.7642 91.1054 85.7642L91.2922 85.6561V83.2654H93.0999V85.6561L93.2867 85.7642C93.2867 85.7642 93.0999 85.9201 93.0999 86.2946C93.0999 86.2946 93.0696 86.7924 93.2867 86.7924H91.1028H91.1054Z" fill="#934A93"/>
<path d="M25.9017 74.2548H25.8714H13.8232V89.9362H25.8714H25.9017H37.9498V74.2548H25.9017Z" fill="#3F0814"/>
<path d="M33.6931 74.1819H18.3123V89.348H33.6931V74.1819Z" fill="#490A1B"/>
<path d="M33.8976 37.3539C32.1429 31.2352 25.9017 29.7797 25.9017 29.7797C25.9017 29.7797 19.6605 31.2352 17.9058 37.3539C16.1511 43.4726 10.0058 67.1657 11.7605 74.2522H40.0429C41.7976 67.1632 35.6548 43.4701 33.8976 37.3539Z" fill="#94152A"/>
<path d="M33.8975 37.3539C32.1428 31.2352 25.9016 29.7797 25.9016 29.7797V74.2522H40.0428C41.7975 67.1632 35.6547 43.4701 33.8975 37.3539Z" fill="#760F20"/>
<path d="M23.3972 74.1818H11.8187C11.5056 72.8671 11.44 70.9013 11.6268 68.3371C11.8036 65.9087 12.2075 62.9173 12.8261 59.4406C12.8337 59.4004 12.8059 59.3627 12.768 59.3551C12.7276 59.3476 12.6898 59.3752 12.6822 59.4129C12.0611 62.8921 11.6571 65.8911 11.4804 68.3246C11.291 70.939 11.3592 72.94 11.69 74.2698C11.6975 74.3025 11.7278 74.3251 11.7606 74.3251H23.3972C23.4376 74.3251 23.4705 74.2924 23.4705 74.2522C23.4705 74.212 23.4376 74.1793 23.3972 74.1793V74.1818Z" fill="#723E14"/>
<path d="M25.8842 29.7093C25.8211 29.7244 19.5799 31.2452 17.8327 37.3338C17.8226 37.3715 17.8453 37.4117 17.8832 37.4243C17.8908 37.4243 17.8958 37.4268 17.9034 37.4268C17.9362 37.4268 17.964 37.4067 17.9741 37.374C19.696 31.3709 25.8564 29.8651 25.917 29.85C25.9574 29.84 25.9801 29.8023 25.9725 29.7621C25.9624 29.7218 25.9246 29.6992 25.8842 29.7068V29.7093Z" fill="#723E14"/>
<path d="M39.2678 60.2526C38.2604 54.3978 36.8137 48.2539 35.7785 44.1287C35.7684 44.0885 35.728 44.0659 35.6902 44.0759C35.6498 44.086 35.6271 44.1262 35.6372 44.1639C36.6723 48.2841 38.119 54.4255 39.1238 60.2752C40.2953 67.0802 40.5806 71.7761 39.9722 74.2346C39.9621 74.2748 39.9873 74.3126 40.0252 74.3226C40.0302 74.3226 40.0378 74.3226 40.0429 74.3226C40.0757 74.3226 40.106 74.3 40.1135 74.2673C40.7271 71.7912 40.4418 67.0752 39.2678 60.2501V60.2526Z" fill="#723E14"/>
<path d="M22.4278 32.5474C22.4278 32.5474 14.1996 47.7437 13.9067 74.2523H15.5655C15.5655 74.2523 14.1769 57.2586 22.4278 32.5474Z" fill="#AB3253"/>
<path d="M23.3973 32.5474C23.3973 32.5474 17.2091 49.2017 16.1411 74.2523H17.7923C17.7923 74.2523 18.8451 48.8121 23.3947 32.5474H23.3973Z" fill="#AB3253"/>
<path d="M29.9895 32.5474C29.9895 32.5474 38.2177 47.7437 38.5106 74.2523H36.8518C36.8518 74.2523 38.2404 57.2586 29.9895 32.5474Z" fill="#AB3253"/>
<path d="M29.02 32.5474C29.02 32.5474 35.2082 49.2017 36.2762 74.2523H34.625C34.625 74.2523 33.5722 48.8121 29.0225 32.5474H29.02Z" fill="#AB3253"/>
<path d="M20.514 76.4393H11.2002V76.8994H20.514V76.4393Z" fill="#F7B137"/>
<path d="M40.6034 76.4393H31.2896V76.8994H40.6034V76.4393Z" fill="#F7B137"/>
<path d="M40.871 76.1728L35.5312 64.3024H16.2698L10.9299 76.1728H20.5114C21.6829 71.5122 25.8992 71.8767 25.8992 71.8767C25.8992 71.8767 30.1181 71.5122 31.287 76.1728H40.8685H40.871Z" fill="#F7B137"/>
<path d="M20.5114 76.1729H11.4475V76.4393H20.5114V76.1729Z" fill="#DB7022"/>
<path d="M31.2896 76.4393H40.3535V76.1729H31.2896V76.4393Z" fill="#DB7022"/>
<path d="M19.186 71.8213L18.0347 72.2763L18.7214 72.7137L19.4081 73.1512L19.3425 71.9194C19.3425 71.9194 21.6249 71.4996 21.2512 68.7745C18.6078 69.579 19.1834 71.8188 19.1834 71.8188L19.186 71.8213Z" fill="white"/>
<path d="M20.0746 75.3939H12.3084L16.2773 66.5225C16.2975 66.4772 16.2773 66.427 16.2319 66.4068C16.1865 66.3867 16.136 66.4068 16.1158 66.4521L12.0938 75.4467C12.0812 75.4743 12.0837 75.5045 12.1014 75.5296C12.1165 75.5547 12.1443 75.5698 12.1746 75.5698H20.0746C20.1226 75.5698 20.1629 75.5296 20.1629 75.4819C20.1629 75.4341 20.1226 75.3939 20.0746 75.3939Z" fill="white"/>
<path d="M32.3904 73.1537L33.0771 72.7163L33.7638 72.2789L32.6125 71.8239C32.6125 71.8239 33.1857 69.584 30.5448 68.7796C30.1711 71.5046 32.4535 71.9244 32.4535 71.9244L32.3878 73.1562L32.3904 73.1537Z" fill="white"/>
<path d="M39.707 75.4438L35.685 66.4492C35.6648 66.404 35.6118 66.3864 35.5689 66.404C35.5235 66.4241 35.5058 66.4744 35.5235 66.5196L39.4924 75.391H31.7287C31.6808 75.391 31.6404 75.4312 31.6404 75.479C31.6404 75.5268 31.6808 75.567 31.7287 75.567H39.6287C39.659 75.567 39.6868 75.5519 39.7019 75.5268C39.7171 75.5016 39.7196 75.4715 39.7095 75.4438H39.707Z" fill="white"/>
<path d="M25.8865 68.488C25.1997 68.488 24.6443 69.041 24.6443 69.7248C24.6443 70.4086 25.1997 70.9641 25.8865 70.9641C26.5732 70.9641 27.1286 70.4111 27.1286 69.7248C27.1286 69.0385 26.5732 68.488 25.8865 68.488Z" fill="white"/>
<path d="M25.9017 62.2838H16.1436V62.8972H16.6384V66.5423C16.6384 67.1154 17.1055 67.5805 17.6811 67.5805H17.9134C18.4891 67.5805 18.9561 67.1154 18.9561 66.5423C18.9561 67.1154 19.4232 67.5805 19.9989 67.5805H20.2311C20.8068 67.5805 21.2739 67.1154 21.2739 66.5423C21.2739 67.1154 21.7409 67.5805 22.3166 67.5805H22.5489C23.1245 67.5805 23.5916 67.1154 23.5916 66.5423C23.5916 67.1154 24.0587 67.5805 24.6343 67.5805H24.8666C25.4422 67.5805 25.9093 67.1154 25.9093 66.5423C25.9093 67.1154 26.3764 67.5805 26.952 67.5805H27.1843C27.76 67.5805 28.227 67.1154 28.227 66.5423C28.227 67.1154 28.6941 67.5805 29.2698 67.5805H29.502C30.0777 67.5805 30.5448 67.1154 30.5448 66.5423C30.5448 67.1154 31.0118 67.5805 31.5875 67.5805H31.8198C32.3954 67.5805 32.8625 67.1154 32.8625 66.5423C32.8625 67.1154 33.3296 67.5805 33.9052 67.5805H34.1375C34.7131 67.5805 35.1802 67.1154 35.1802 66.5423V62.8972H35.6751V62.2838H25.9169H25.9017Z" fill="#DE6E24"/>
<path d="M18.7289 63.0255H16.8605C16.8403 63.0255 16.8252 63.0431 16.8252 63.0606V66.5398C16.8252 67.0225 17.2191 67.4146 17.7038 67.4146H17.8906C18.3754 67.4146 18.7693 67.0225 18.7693 66.5398V63.0606C18.7693 63.0405 18.7541 63.0255 18.7339 63.0255H18.7289ZM18.6935 66.5398C18.6935 66.9823 18.3325 67.3417 17.8881 67.3417H17.7013C17.2569 67.3417 16.8959 66.9823 16.8959 66.5398V63.0984H18.691V66.5398H18.6935Z" fill="white"/>
<path d="M21.044 63.0255H19.1757C19.1555 63.0255 19.1404 63.0431 19.1404 63.0606V66.5398C19.1404 67.0225 19.5342 67.4146 20.019 67.4146H20.2058C20.6906 67.4146 21.0844 67.0225 21.0844 66.5398V63.0606C21.0844 63.0405 21.0693 63.0255 21.0491 63.0255H21.044ZM21.0087 66.5398C21.0087 66.9823 20.6477 67.3417 20.2033 67.3417H20.0165C19.5721 67.3417 19.2111 66.9823 19.2111 66.5398V63.0984H21.0062V66.5398H21.0087Z" fill="white"/>
<path d="M23.3617 63.0255H21.4934C21.4732 63.0255 21.458 63.0431 21.458 63.0606V66.5398C21.458 67.0225 21.8519 67.4146 22.3366 67.4146H22.5235C23.0082 67.4146 23.4021 67.0225 23.4021 66.5398V63.0606C23.4021 63.0405 23.3869 63.0255 23.3667 63.0255H23.3617ZM23.3263 66.5398C23.3263 66.9823 22.9653 67.3417 22.5209 67.3417H22.3341C21.8897 67.3417 21.5287 66.9823 21.5287 66.5398V63.0984H23.3238V66.5398H23.3263Z" fill="white"/>
<path d="M25.6771 63.0255H23.8088C23.7886 63.0255 23.7734 63.0431 23.7734 63.0606V66.5398C23.7734 67.0225 24.1673 67.4146 24.6521 67.4146H24.8389C25.3236 67.4146 25.7175 67.0225 25.7175 66.5398V63.0606C25.7175 63.0405 25.7024 63.0255 25.6822 63.0255H25.6771ZM25.6418 66.5398C25.6418 66.9823 25.2807 67.3417 24.8364 67.3417H24.6495C24.2052 67.3417 23.8441 66.9823 23.8441 66.5398V63.0984H25.6392V66.5398H25.6418Z" fill="white"/>
<path d="M34.9427 63.0255H33.0744C33.0542 63.0255 33.0391 63.0431 33.0391 63.0606V66.5398C33.0391 67.0225 33.4329 67.4146 33.9177 67.4146H34.1045C34.5893 67.4146 34.9831 67.0225 34.9831 66.5398V63.0606C34.9831 63.0405 34.968 63.0255 34.9478 63.0255H34.9427ZM34.9074 66.5398C34.9074 66.9823 34.5463 67.3417 34.102 67.3417H33.9152C33.4708 67.3417 33.1098 66.9823 33.1098 66.5398V63.0984H34.9049V66.5398H34.9074Z" fill="white"/>
<path d="M32.6251 63.0255H30.7568C30.7366 63.0255 30.7214 63.0431 30.7214 63.0606V66.5398C30.7214 67.0225 31.1153 67.4146 31.6 67.4146H31.7869C32.2716 67.4146 32.6655 67.0225 32.6655 66.5398V63.0606C32.6655 63.0405 32.6503 63.0255 32.6302 63.0255H32.6251ZM32.5898 66.5398C32.5898 66.9823 32.2287 67.3417 31.7844 67.3417H31.5975C31.1532 67.3417 30.7921 66.9823 30.7921 66.5398V63.0984H32.5872V66.5398H32.5898Z" fill="white"/>
<path d="M30.3099 63.0255H28.4416C28.4214 63.0255 28.4062 63.0431 28.4062 63.0606V66.5398C28.4062 67.0225 28.8001 67.4146 29.2849 67.4146H29.4717C29.9565 67.4146 30.3503 67.0225 30.3503 66.5398V63.0606C30.3503 63.0405 30.3352 63.0255 30.315 63.0255H30.3099ZM30.2746 66.5398C30.2746 66.9823 29.9135 67.3417 29.4692 67.3417H29.2823C28.838 67.3417 28.4769 66.9823 28.4769 66.5398V63.0984H30.272V66.5398H30.2746Z" fill="white"/>
<path d="M27.9947 63.0255H26.1264C26.1062 63.0255 26.0911 63.0431 26.0911 63.0606V66.5398C26.0911 67.0225 26.4849 67.4146 26.9697 67.4146H27.1565C27.6413 67.4146 28.0351 67.0225 28.0351 66.5398V63.0606C28.0351 63.0405 28.02 63.0255 27.9998 63.0255H27.9947ZM27.9594 66.5398C27.9594 66.9823 27.5983 67.3417 27.154 67.3417H26.9672C26.5228 67.3417 26.1618 66.9823 26.1618 66.5398V63.0984H27.9569V66.5398H27.9594Z" fill="white"/>
<path d="M28.7471 59.8957C28.583 57.8016 25.9017 55.6523 25.9017 55.6523C25.9017 55.6523 23.2204 57.8016 23.0563 59.8957C22.8922 61.9897 25.9017 62.2838 25.9017 62.2838C25.9017 62.2838 28.9137 61.9897 28.7471 59.8957Z" fill="#F7B137"/>
<path d="M28.2118 60.23C28.078 58.5306 25.9016 56.786 25.9016 56.786C25.9016 56.786 23.7228 58.5306 23.5915 60.23C23.4577 61.9294 25.9016 62.1682 25.9016 62.1682C25.9016 62.1682 28.3456 61.9294 28.2118 60.23Z" fill="white"/>
<path d="M27.9542 60.1169C27.8381 58.6463 26.0228 57.1757 25.9471 57.1128L25.9016 57.0751L25.8562 57.1128C25.7779 57.1757 23.9651 58.6438 23.849 60.1169C23.7303 61.6277 25.8738 61.854 25.8966 61.8565H25.9041H25.9117C25.9344 61.8565 28.078 61.6277 27.9593 60.1169H27.9542ZM25.9016 61.7107C25.7703 61.6956 23.8894 61.4568 23.9929 60.127C24.0939 58.8449 25.6163 57.505 25.9016 57.2637C26.1869 57.505 27.7093 58.8424 27.8103 60.127C27.9138 61.4543 26.0354 61.6956 25.9016 61.7107Z" fill="#F2A661"/>
<path d="M25.937 22.6127L33.7107 23.4397L25.9016 25.1869L25.937 22.6127Z" fill="#AB3253"/>
<path d="M27.8332 29.7822V29.4705H27.3763V29.2166H28.3458V28.744L27.3384 28.196H26.4446V27.2508H27.048V26.5217L26.4976 26.122L25.9018 22.6077L25.3034 26.122L24.7556 26.5217V27.2508H25.359V28.196H24.4627L23.4578 28.744V29.2166H24.4248V29.4705H23.9678V29.7822L20.1277 32.0572L20.8902 32.5474H25.9018H30.9109L31.6734 32.0572L27.8332 29.7822Z" fill="#F7B137"/>
<path d="M20.1277 32.0572H31.6734L30.9109 32.5474H20.8902L20.1277 32.0572Z" fill="#DB7022"/>
<path d="M23.9678 29.7822H27.8332L25.975 30.109L23.9678 29.7822Z" fill="#DB7022"/>
<path d="M27.3737 29.2166H24.4248V29.4705H27.3737V29.2166Z" fill="#DB7022"/>
<path d="M26.4445 27.2507H25.3589V27.6705H26.4445V27.2507Z" fill="#DB7022"/>
<path d="M24.4449 28.1658L23.44 28.7113C23.44 28.7113 23.4199 28.7289 23.4199 28.744V29.2166C23.4199 29.2367 23.435 29.2518 23.4552 29.2518H24.3868V29.4328H23.9652C23.945 29.4328 23.9299 29.4479 23.9299 29.468V29.7571L20.1074 32.0221C20.0897 32.0321 20.0846 32.0548 20.0947 32.0723C20.1023 32.0849 20.1149 32.0899 20.125 32.0899C20.1326 32.0899 20.1377 32.0899 20.1427 32.0849L23.9829 29.8099C23.9829 29.8099 24.0005 29.7923 24.0005 29.7797V29.5057H24.4222C24.4424 29.5057 24.4575 29.4906 24.4575 29.4705V29.2166C24.4575 29.1965 24.4424 29.1814 24.4222 29.1814H23.4905V28.7666L24.4777 28.2312C24.4954 28.2211 24.503 28.1985 24.4929 28.1809C24.4828 28.1633 24.4601 28.1558 24.4424 28.1658H24.4449Z" fill="#66122C"/>
<path d="M25.3589 27.213H24.7908V26.5393L25.3236 26.1497C25.3236 26.1497 25.3362 26.1346 25.3387 26.1271L25.9371 22.6127C25.9396 22.5926 25.927 22.575 25.9068 22.57C25.8891 22.5674 25.8689 22.58 25.8639 22.6001L25.268 26.0994L24.7302 26.4916C24.7302 26.4916 24.7151 26.5092 24.7151 26.5217V27.2508C24.7151 27.2709 24.7302 27.2859 24.7504 27.2859H25.3539C25.374 27.2859 25.3892 27.2709 25.3892 27.2508C25.3892 27.2306 25.374 27.2156 25.3539 27.2156L25.3589 27.213Z" fill="#66122C"/>
<path d="M19.0926 86.8492L18.8174 86.5752V83.1539V83.091V79.6697L19.0926 79.3982V78.5384L19.3249 76.8994H18.3125H17.3L17.5323 78.5384V79.3982L17.8075 79.6697V83.091V83.1539V86.5752L17.5323 86.8492V87.709L17.3 89.3455H18.3125H19.3249L19.0926 87.709V86.8492Z" fill="#F7B137"/>
<path d="M18.8175 79.6345H17.8227L17.5525 79.3077V78.4253L17.3354 76.8944C17.3329 76.8742 17.3152 76.8592 17.295 76.8642C17.2748 76.8667 17.2622 76.8843 17.2647 76.9044L17.4819 78.4303V79.3202C17.4819 79.3202 17.4844 79.3378 17.4894 79.3429L17.7697 79.6822V86.5752C17.7697 86.5953 17.7848 86.6104 17.805 86.6104C17.8252 86.6104 17.8404 86.5928 17.8404 86.5752V79.7074H18.8149C18.8351 79.7074 18.8503 79.6898 18.8503 79.6722C18.8503 79.6546 18.8351 79.637 18.8149 79.637L18.8175 79.6345Z" fill="white"/>
<path d="M14.6212 86.8492L14.346 86.5752V83.1538V83.091V79.6696L14.6212 79.3981V78.5384L14.8535 76.8994H13.841H12.8286L13.0609 78.5384V79.3981L13.3361 79.6696V83.091V83.1538V86.5752L13.0609 86.8492V87.7089L12.8286 89.3454H13.841H14.8535L14.6212 87.7089V86.8492Z" fill="#F7B137"/>
<path d="M14.346 79.6345H13.3513L13.0811 79.3077V78.4253L12.864 76.8944C12.8615 76.8742 12.8438 76.8592 12.8236 76.8642C12.8034 76.8667 12.7908 76.8843 12.7933 76.9044L13.0104 78.4303V79.3202C13.0104 79.3202 13.0129 79.3378 13.018 79.3429L13.2982 79.6822V86.5752C13.2982 86.5953 13.3134 86.6104 13.3336 86.6104C13.3538 86.6104 13.3689 86.5928 13.3689 86.5752V79.7074H14.3435C14.3637 79.7074 14.3788 79.6898 14.3788 79.6722C14.3788 79.6546 14.3637 79.637 14.3435 79.637L14.346 79.6345Z" fill="white"/>
<path d="M32.9132 86.8492L33.1859 86.5752V83.1538V83.091V79.6696L32.9132 79.3981V78.5384L32.6809 76.8994H33.6933H34.7032L34.471 78.5384V79.3981L34.1983 79.6696V83.091V83.1538V86.5752L34.471 86.8492V87.7089L34.7032 89.3454H33.6933H32.6809L32.9132 87.7089V86.8492Z" fill="#F7B137"/>
<path d="M33.1859 79.6345H34.1807L34.4508 79.3077V78.4253L34.6679 76.8944C34.6705 76.8742 34.6881 76.8592 34.7083 76.8642C34.7285 76.8667 34.7411 76.8843 34.7386 76.9044L34.5215 78.4303V79.3202C34.5215 79.3202 34.519 79.3378 34.5139 79.3429L34.2337 79.6822V86.5752C34.2337 86.5953 34.2185 86.6104 34.1983 86.6104C34.1781 86.6104 34.163 86.5928 34.163 86.5752V79.7074H33.1884C33.1682 79.7074 33.1531 79.6898 33.1531 79.6722C33.1531 79.6546 33.1682 79.637 33.1884 79.637L33.1859 79.6345Z" fill="white"/>
<path d="M37.3819 86.8492L37.6571 86.5752V83.1538V83.091V79.6696L37.3819 79.3981V78.5384L37.1521 76.8994H38.162H39.1744L38.9422 78.5384V79.3981L38.6695 79.6696V83.091V83.1538V86.5752L38.9422 86.8492V87.7089L39.1744 89.3454H38.162H37.1521L37.3819 87.7089V86.8492Z" fill="#F7B137"/>
<path d="M37.6571 79.6345H38.6518L38.922 79.3077V78.4253L39.1391 76.8944C39.1416 76.8742 39.1593 76.8592 39.1795 76.8642C39.1997 76.8667 39.2123 76.8843 39.2098 76.9044L38.9927 78.4303V79.3202C38.9927 79.3202 38.9902 79.3378 38.9851 79.3429L38.7049 79.6822V86.5752C38.7049 86.5953 38.6897 86.6104 38.6695 86.6104C38.6493 86.6104 38.6342 86.5928 38.6342 86.5752V79.7074H37.6596C37.6394 79.7074 37.6243 79.6898 37.6243 79.6722C37.6243 79.6546 37.6394 79.637 37.6596 79.637L37.6571 79.6345Z" fill="white"/>
<path d="M44.5824 85.8084H44.6759V85.5244H44.5824V85.3811H44.4789C44.5294 85.3258 44.5622 85.2529 44.5622 85.1724C44.5622 85.004 44.4234 84.8657 44.2542 84.8657C44.0851 84.8657 43.9462 85.004 43.9462 85.1724C43.9462 85.2529 43.979 85.3258 44.0295 85.3811H43.926V85.5244H42.1183V85.3811H42.0148C42.0653 85.3258 42.0981 85.2529 42.0981 85.1724C42.0981 85.004 41.9592 84.8657 41.7901 84.8657C41.6209 84.8657 41.482 85.004 41.482 85.1724C41.482 85.2529 41.5149 85.3258 41.5654 85.3811H41.4618V85.5244H39.7198V85.3811H39.6163C39.6667 85.3258 39.6996 85.2529 39.6996 85.1724C39.6996 85.004 39.5607 84.8657 39.3915 84.8657C39.2224 84.8657 39.0835 85.004 39.0835 85.1724C39.0835 85.2529 39.1163 85.3258 39.1668 85.3811H39.0633V85.5244H37.2556V85.3811H37.1521C37.2026 85.3258 37.2354 85.2529 37.2354 85.1724C37.2354 85.004 37.0965 84.8657 36.9274 84.8657C36.7582 84.8657 36.6194 85.004 36.6194 85.1724C36.6194 85.2529 36.6522 85.3258 36.7027 85.3811H36.5992V85.5244H34.9606V85.3811H34.8571C34.9076 85.3258 34.9404 85.2529 34.9404 85.1724C34.9404 85.004 34.8015 84.8657 34.6324 84.8657C34.4632 84.8657 34.3244 85.004 34.3244 85.1724C34.3244 85.2529 34.3572 85.3258 34.4077 85.3811H34.3042V85.5244H32.4964V85.3811H32.3929C32.4434 85.3258 32.4762 85.2529 32.4762 85.1724C32.4762 85.004 32.3374 84.8657 32.1682 84.8657C31.9991 84.8657 31.8602 85.004 31.8602 85.1724C31.8602 85.2529 31.893 85.3258 31.9435 85.3811H31.84V85.5244H30.0979V85.3811H29.9944C30.0449 85.3258 30.0777 85.2529 30.0777 85.1724C30.0777 85.004 29.9389 84.8657 29.7697 84.8657C29.6005 84.8657 29.4617 85.004 29.4617 85.1724C29.4617 85.2529 29.4945 85.3258 29.545 85.3811H29.4415V85.5244H27.6338V85.3811H27.5302C27.5807 85.3258 27.6136 85.2529 27.6136 85.1724C27.6136 85.004 27.4747 84.8657 27.3055 84.8657C27.1364 84.8657 26.9975 85.004 26.9975 85.1724C26.9975 85.2529 27.0303 85.3258 27.0808 85.3811H26.9773V85.5244H25.4145V85.3811H25.311C25.3615 85.3258 25.3943 85.2529 25.3943 85.1724C25.3943 85.004 25.2554 84.8657 25.0863 84.8657C24.9171 84.8657 24.7783 85.004 24.7783 85.1724C24.7783 85.2529 24.8111 85.3258 24.8616 85.3811H24.7581V85.5244H22.9503V85.3811H22.8468C22.8973 85.3258 22.9301 85.2529 22.9301 85.1724C22.9301 85.004 22.7913 84.8657 22.6221 84.8657C22.453 84.8657 22.3141 85.004 22.3141 85.1724C22.3141 85.2529 22.3469 85.3258 22.3974 85.3811H22.2939V85.5244H20.5518V85.3811H20.4483C20.4988 85.3258 20.5316 85.2529 20.5316 85.1724C20.5316 85.004 20.3928 84.8657 20.2236 84.8657C20.0544 84.8657 19.9156 85.004 19.9156 85.1724C19.9156 85.2529 19.9484 85.3258 19.9989 85.3811H19.8954V85.5244H18.0877V85.3811H17.9841C18.0346 85.3258 18.0675 85.2529 18.0675 85.1724C18.0675 85.004 17.9286 84.8657 17.7594 84.8657C17.5903 84.8657 17.4514 85.004 17.4514 85.1724C17.4514 85.2529 17.4842 85.3258 17.5347 85.3811H17.4312V85.5244H15.9214V85.3811H15.8179C15.8684 85.3258 15.9012 85.2529 15.9012 85.1724C15.9012 85.004 15.7624 84.8657 15.5932 84.8657C15.424 84.8657 15.2852 85.004 15.2852 85.1724C15.2852 85.2529 15.318 85.3258 15.3685 85.3811H15.265V85.5244H13.4572V85.3811H13.3537C13.4042 85.3258 13.4371 85.2529 13.4371 85.1724C13.4371 85.004 13.2982 84.8657 13.129 84.8657C12.9599 84.8657 12.821 85.004 12.821 85.1724C12.821 85.2529 12.8538 85.3258 12.9043 85.3811H12.8008V85.5244H11.0587V85.3811H10.9552C11.0057 85.3258 11.0385 85.2529 11.0385 85.1724C11.0385 85.004 10.8997 84.8657 10.7305 84.8657C10.5614 84.8657 10.4225 85.004 10.4225 85.1724C10.4225 85.2529 10.4553 85.3258 10.5058 85.3811H10.4023V85.5244H8.58447V85.3811H8.48095C8.53145 85.3258 8.56427 85.2529 8.56427 85.1724C8.56427 85.004 8.42541 84.8657 8.25625 84.8657C8.08709 84.8657 7.94823 85.004 7.94823 85.1724C7.94823 85.2529 7.98105 85.3258 8.03155 85.3811H7.92803V85.5244H7.85986V85.8084H7.92803V88.1991L8.11486 88.3072C8.11486 88.3072 7.92803 88.463 7.92803 88.8376C7.92803 88.8376 7.89773 89.3354 8.11486 89.3354H7.85986V90.5269H44.6733V89.3354H44.3931C44.6127 89.3354 44.5799 88.8376 44.5799 88.8376C44.5799 88.463 44.3931 88.3072 44.3931 88.3072L44.5799 88.1991V85.8084H44.5824ZM8.39511 89.3328C8.61477 89.3328 8.58194 88.8351 8.58194 88.8351C8.58194 88.4605 8.39511 88.3047 8.39511 88.3047L8.58194 88.1966V85.8059H10.3897V88.1966L10.5765 88.3047C10.5765 88.3047 10.3897 88.4605 10.3897 88.8351C10.3897 88.8351 10.3594 89.3328 10.5765 89.3328H8.39511ZM10.8593 89.3328C11.0789 89.3328 11.0461 88.8351 11.0461 88.8351C11.0461 88.4605 10.8593 88.3047 10.8593 88.3047L11.0461 88.1966V85.8059H12.7882V88.1966L12.975 88.3047C12.975 88.3047 12.7882 88.4605 12.7882 88.8351C12.7882 88.8351 12.7579 89.3328 12.975 89.3328H10.8618H10.8593ZM13.2578 89.3328C13.4774 89.3328 13.4446 88.8351 13.4446 88.8351C13.4446 88.4605 13.2578 88.3047 13.2578 88.3047L13.4446 88.1966V85.8059H15.2524V88.1966L15.4392 88.3047C15.4392 88.3047 15.2524 88.4605 15.2524 88.8351C15.2524 88.8351 15.2221 89.3328 15.4392 89.3328H13.2553H13.2578ZM15.722 89.3328C15.9416 89.3328 15.9088 88.8351 15.9088 88.8351C15.9088 88.4605 15.722 88.3047 15.722 88.3047L15.9088 88.1966V85.8059H17.4186V88.1966L17.6054 88.3047C17.6054 88.3047 17.4186 88.4605 17.4186 88.8351C17.4186 88.8351 17.3883 89.3328 17.6054 89.3328H15.7194H15.722ZM17.8882 89.3328C18.1079 89.3328 18.075 88.8351 18.075 88.8351C18.075 88.4605 17.8882 88.3047 17.8882 88.3047L18.075 88.1966V85.8059H19.8828V88.1966L20.0696 88.3047C20.0696 88.3047 19.8828 88.4605 19.8828 88.8351C19.8828 88.8351 19.8525 89.3328 20.0696 89.3328H17.8857H17.8882ZM20.3524 89.3328C20.572 89.3328 20.5392 88.8351 20.5392 88.8351C20.5392 88.4605 20.3524 88.3047 20.3524 88.3047L20.5392 88.1966V85.8059H22.2813V88.1966L22.4681 88.3047C22.4681 88.3047 22.2813 88.4605 22.2813 88.8351C22.2813 88.8351 22.251 89.3328 22.4681 89.3328H20.3498H20.3524ZM22.7509 89.3328C22.9705 89.3328 22.9377 88.8351 22.9377 88.8351C22.9377 88.4605 22.7509 88.3047 22.7509 88.3047L22.9377 88.1966V85.8059H24.7454V88.1966L24.9323 88.3047C24.9323 88.3047 24.7454 88.4605 24.7454 88.8351C24.7454 88.8351 24.7151 89.3328 24.9323 89.3328H22.7484H22.7509ZM25.215 89.3328C25.4347 89.3328 25.4019 88.8351 25.4019 88.8351C25.4019 88.4605 25.215 88.3047 25.215 88.3047L25.4019 88.1966V85.8059H26.9647V88.1966L27.1515 88.3047C27.1515 88.3047 26.9647 88.4605 26.9647 88.8351C26.9647 88.8351 26.9344 89.3328 27.1515 89.3328H25.2125H25.215ZM27.4343 89.3328C27.654 89.3328 27.6211 88.8351 27.6211 88.8351C27.6211 88.4605 27.4343 88.3047 27.4343 88.3047L27.6211 88.1966V85.8059H29.4289V88.1966L29.6157 88.3047C29.6157 88.3047 29.4289 88.4605 29.4289 88.8351C29.4289 88.8351 29.3986 89.3328 29.6157 89.3328H27.4318H27.4343ZM29.8985 89.3328C30.1181 89.3328 30.0853 88.8351 30.0853 88.8351C30.0853 88.4605 29.8985 88.3047 29.8985 88.3047L30.0853 88.1966V85.8059H31.8274V88.1966L32.0142 88.3047C32.0142 88.3047 31.8274 88.4605 31.8274 88.8351C31.8274 88.8351 31.7971 89.3328 32.0142 89.3328H29.8959H29.8985ZM32.297 89.3328C32.5166 89.3328 32.4838 88.8351 32.4838 88.8351C32.4838 88.4605 32.297 88.3047 32.297 88.3047L32.4838 88.1966V85.8059H34.2915V88.1966L34.4784 88.3047C34.4784 88.3047 34.2915 88.4605 34.2915 88.8351C34.2915 88.8351 34.2612 89.3328 34.4784 89.3328H32.2945H32.297ZM34.7611 89.3328C34.9808 89.3328 34.948 88.8351 34.948 88.8351C34.948 88.4605 34.7611 88.3047 34.7611 88.3047L34.948 88.1966V85.8059H36.5865V88.1966L36.7734 88.3047C36.7734 88.3047 36.5865 88.4605 36.5865 88.8351C36.5865 88.8351 36.5562 89.3328 36.7734 89.3328H34.7611ZM37.0561 89.3328C37.2758 89.3328 37.243 88.8351 37.243 88.8351C37.243 88.4605 37.0561 88.3047 37.0561 88.3047L37.243 88.1966V85.8059H39.0507V88.1966L39.2375 88.3047C39.2375 88.3047 39.0507 88.4605 39.0507 88.8351C39.0507 88.8351 39.0204 89.3328 39.2375 89.3328H37.0536H37.0561ZM39.5203 89.3328C39.74 89.3328 39.7071 88.8351 39.7071 88.8351C39.7071 88.4605 39.5203 88.3047 39.5203 88.3047L39.7071 88.1966V85.8059H41.4492V88.1966L41.6361 88.3047C41.6361 88.3047 41.4492 88.4605 41.4492 88.8351C41.4492 88.8351 41.4189 89.3328 41.6361 89.3328H39.5178H39.5203ZM41.9188 89.3328C42.1385 89.3328 42.1057 88.8351 42.1057 88.8351C42.1057 88.4605 41.9188 88.3047 41.9188 88.3047L42.1057 88.1966V85.8059H43.9134V88.1966L44.1002 88.3047C44.1002 88.3047 43.9134 88.4605 43.9134 88.8351C43.9134 88.8351 43.8831 89.3328 44.1002 89.3328H41.9163H41.9188Z" fill="#AB3253"/>
<path d="M50.2603 80.3045H50.2199H33.7307V101.765H50.2199H50.2603H66.7495V80.3045H50.2603Z" fill="#47270D"/>
<path d="M60.9224 80.204H39.8735V100.958H60.9224V80.204Z" fill="#603412"/>
<path d="M61.2051 29.8037C58.8015 21.4326 50.2603 19.4391 50.2603 19.4391C50.2603 19.4391 41.719 21.4326 39.3154 29.8037C36.9119 38.1748 28.5044 70.601 30.908 80.302H69.6125C72.0161 70.601 63.6061 38.1748 61.2051 29.8037Z" fill="#FFB76B"/>
<path d="M61.2051 29.8037C58.8015 21.4326 50.2603 19.4391 50.2603 19.4391V80.3045H69.6125C72.0161 70.6035 63.6061 38.1773 61.2051 29.8062V29.8037Z" fill="#F2A661"/>
<path d="M46.8341 80.204H30.9862C30.557 78.404 30.4686 75.7142 30.7236 72.2049C30.966 68.8816 31.5189 64.7865 32.3647 60.0303C32.3748 59.975 32.337 59.9247 32.2839 59.9147C32.2284 59.9046 32.1779 59.9423 32.1678 59.9951C31.3195 64.7589 30.7666 68.8615 30.5242 72.1898C30.2641 75.7695 30.3601 78.5071 30.8095 80.3271C30.8196 80.3724 30.86 80.4026 30.9054 80.4026H46.8316C46.8871 80.4026 46.9326 80.3573 46.9326 80.302C46.9326 80.2467 46.8871 80.2014 46.8316 80.2014L46.8341 80.204Z" fill="#723E14"/>
<path d="M50.2375 19.3411C50.1517 19.3612 41.6104 21.4452 39.2195 29.7761C39.2043 29.8289 39.2346 29.8842 39.2876 29.8993C39.2977 29.9018 39.3053 29.9043 39.3154 29.9043C39.3583 29.9043 39.3987 29.8766 39.4114 29.8314C41.7695 21.6136 50.1971 19.5547 50.283 19.5346C50.336 19.5221 50.3713 19.4693 50.3587 19.414C50.3461 19.3612 50.2931 19.326 50.2375 19.3386V19.3411Z" fill="#723E14"/>
<path d="M68.5521 61.144C67.1736 53.1298 65.1941 44.721 63.7752 39.0799C63.7626 39.0271 63.7071 38.9944 63.654 39.007C63.601 39.0195 63.5682 39.0748 63.5808 39.1276C64.9972 44.7662 66.9766 53.17 68.3551 61.1766C69.9584 70.4905 70.3472 76.9159 69.5165 80.2794C69.5039 80.3322 69.5367 80.3875 69.5897 80.4001C69.5973 80.4001 69.6049 80.4026 69.615 80.4026C69.6604 80.4026 69.7008 80.3724 69.7109 80.3272C70.5492 76.9385 70.1603 70.4829 68.5546 61.144H68.5521Z" fill="#723E14"/>
<path d="M45.5036 23.2275C45.5036 23.2275 34.2432 44.0246 33.8418 80.3045H36.1116C36.1116 80.3045 34.2104 57.0489 45.5036 23.2275Z" fill="#E8954B"/>
<path d="M46.8342 23.2275C46.8342 23.2275 38.3636 46.0181 36.9043 80.3045H39.164C39.164 80.3045 40.6031 45.4876 46.8316 23.2275H46.8342Z" fill="#E8954B"/>
<path d="M55.8577 23.2275C55.8577 23.2275 67.1181 44.0246 67.5195 80.3045H65.2498C65.2498 80.3045 67.1509 57.0489 55.8577 23.2275Z" fill="#E8954B"/>
<path d="M54.5271 23.2275C54.5271 23.2275 62.9977 46.0181 64.457 80.3045H62.1973C62.1973 80.3045 60.7582 45.4876 54.5296 23.2275H54.5271Z" fill="#E8954B"/>
<path d="M42.8856 83.2935H30.1406V83.9244H42.8856V83.2935Z" fill="#93152A"/>
<path d="M70.3775 83.2935H57.6326V83.9244H70.3775V83.2935Z" fill="#93152A"/>
<path d="M70.7463 82.929L63.4396 66.6819H37.0786L29.772 82.929H42.8856C44.4863 76.5513 50.2604 77.0491 50.2604 77.0491C50.2604 77.0491 56.032 76.5513 57.6352 82.929H70.7488H70.7463Z" fill="#93152A"/>
<path d="M42.8857 82.929H30.479V83.2935H42.8857V82.929Z" fill="#5B0F1F"/>
<path d="M57.6353 83.2935H70.042V82.9289H57.6353V83.2935Z" fill="#5B0F1F"/>
<path d="M41.0705 76.9737L39.4976 77.5971L40.4393 78.1979L41.381 78.7987L41.2901 77.1145C41.2901 77.1145 44.4158 76.5388 43.9033 72.8082C40.2878 73.9093 41.073 76.9762 41.073 76.9762L41.0705 76.9737Z" fill="white"/>
<path d="M42.2848 81.8606H31.6581L37.0888 69.7187C37.1166 69.6584 37.0888 69.588 37.0282 69.5603C36.9676 69.5327 36.8969 69.5603 36.8692 69.6206L31.3627 81.9285C31.345 81.9662 31.3501 82.0089 31.3728 82.0416C31.3955 82.0743 31.4334 82.0969 31.4738 82.0969H42.2848C42.3504 82.0969 42.406 82.0441 42.406 81.9762C42.406 81.9084 42.3529 81.8556 42.2848 81.8556V81.8606Z" fill="white"/>
<path d="M59.14 78.7962L60.0817 78.1954L61.0234 77.5946L59.4505 76.9711C59.4505 76.9711 60.2357 73.9042 56.6203 72.8032C56.1077 76.5337 59.2334 77.1094 59.2334 77.1094L59.1425 78.7937L59.14 78.7962Z" fill="white"/>
<path d="M69.1558 81.9335L63.6493 69.6257C63.6216 69.5654 63.5509 69.5377 63.4903 69.5654C63.4297 69.593 63.4019 69.6634 63.4297 69.7238L68.8604 81.8657H58.2337C58.1681 81.8657 58.1125 81.9185 58.1125 81.9863C58.1125 82.0542 58.1656 82.107 58.2337 82.107H69.0447C69.0851 82.107 69.123 82.0869 69.1457 82.0517C69.1685 82.0165 69.171 81.9738 69.1558 81.9386V81.9335Z" fill="white"/>
<path d="M50.2403 75.8022C51.1801 75.8022 51.9419 75.0436 51.9419 74.1079C51.9419 73.1721 51.1801 72.4135 50.2403 72.4135C49.3004 72.4135 48.5386 73.1721 48.5386 74.1079C48.5386 75.0436 49.3004 75.8022 50.2403 75.8022Z" fill="white"/>
<path d="M50.2603 63.9192H36.9043V64.7588H37.5809V69.7463C37.5809 70.5306 38.2197 71.1666 39.0074 71.1666H39.3255C40.1133 71.1666 40.752 70.5306 40.752 69.7463C40.752 70.5306 41.3908 71.1666 42.1785 71.1666H42.4966C43.2844 71.1666 43.9231 70.5306 43.9231 69.7463C43.9231 70.5306 44.5619 71.1666 45.3496 71.1666H45.6677C46.4555 71.1666 47.0942 70.5306 47.0942 69.7463C47.0942 70.5306 47.733 71.1666 48.5207 71.1666H48.8388C49.6265 71.1666 50.2653 70.5306 50.2653 69.7463C50.2653 70.5306 50.9041 71.1666 51.6918 71.1666H52.0099C52.7976 71.1666 53.4364 70.5306 53.4364 69.7463C53.4364 70.5306 54.0752 71.1666 54.8629 71.1666H55.181C55.9687 71.1666 56.6075 70.5306 56.6075 69.7463C56.6075 70.5306 57.2463 71.1666 58.034 71.1666H58.3521C59.1398 71.1666 59.7786 70.5306 59.7786 69.7463C59.7786 70.5306 60.4174 71.1666 61.2051 71.1666H61.5232C62.3109 71.1666 62.9497 70.5306 62.9497 69.7463V64.7588H63.6263V63.9192H50.2704H50.2603Z" fill="#DD2C52"/>
<path d="M40.444 64.9373H37.8864C37.8587 64.9373 37.8359 64.9599 37.8359 64.9875V69.7463C37.8359 70.4049 38.3737 70.9429 39.0377 70.9429H39.2927C39.9542 70.9429 40.4945 70.4074 40.4945 69.7463V64.9875C40.4945 64.9599 40.4718 64.9373 40.444 64.9373ZM40.3935 69.7463C40.3935 70.3496 39.8987 70.8423 39.2927 70.8423H39.0377C38.4318 70.8423 37.9369 70.3496 37.9369 69.7463V65.0353H40.396V69.7463H40.3935Z" fill="white"/>
<path d="M43.6152 64.9373H41.0576C41.0298 64.9373 41.0071 64.9599 41.0071 64.9875V69.7463C41.0071 70.4049 41.5449 70.9429 42.2089 70.9429H42.4639C43.1253 70.9429 43.6656 70.4074 43.6656 69.7463V64.9875C43.6656 64.9599 43.6429 64.9373 43.6152 64.9373ZM43.5647 69.7463C43.5647 70.3496 43.0698 70.8423 42.4639 70.8423H42.2089C41.6029 70.8423 41.1081 70.3496 41.1081 69.7463V65.0353H43.5672V69.7463H43.5647Z" fill="white"/>
<path d="M46.7836 64.9373H44.226C44.1983 64.9373 44.1755 64.9599 44.1755 64.9875V69.7463C44.1755 70.4049 44.7133 70.9429 45.3773 70.9429H45.6323C46.2938 70.9429 46.8341 70.4074 46.8341 69.7463V64.9875C46.8341 64.9599 46.8114 64.9373 46.7836 64.9373ZM46.7331 69.7463C46.7331 70.3496 46.2383 70.8423 45.6323 70.8423H45.3773C44.7714 70.8423 44.2765 70.3496 44.2765 69.7463V65.0353H46.7356V69.7463H46.7331Z" fill="white"/>
<path d="M49.9547 64.9373H47.3972C47.3694 64.9373 47.3467 64.9599 47.3467 64.9875V69.7463C47.3467 70.4049 47.8845 70.9429 48.5485 70.9429H48.8035C49.4649 70.9429 50.0052 70.4074 50.0052 69.7463V64.9875C50.0052 64.9599 49.9825 64.9373 49.9547 64.9373ZM49.9043 69.7463C49.9043 70.3496 49.4094 70.8423 48.8035 70.8423H48.5485C47.9425 70.8423 47.4477 70.3496 47.4477 69.7463V65.0353H49.9068V69.7463H49.9043Z" fill="white"/>
<path d="M62.6342 64.9373H60.0766C60.0488 64.9373 60.0261 64.9599 60.0261 64.9875V69.7463C60.0261 70.4049 60.5639 70.9429 61.2279 70.9429H61.4829C62.1444 70.9429 62.6847 70.4074 62.6847 69.7463V64.9875C62.6847 64.9599 62.662 64.9373 62.6342 64.9373ZM62.5837 69.7463C62.5837 70.3496 62.0889 70.8423 61.4829 70.8423H61.2279C60.622 70.8423 60.1271 70.3496 60.1271 69.7463V65.0353H62.5862V69.7463H62.5837Z" fill="white"/>
<path d="M59.4631 64.9373H56.9055C56.8777 64.9373 56.855 64.9599 56.855 64.9875V69.7463C56.855 70.4049 57.3928 70.9429 58.0568 70.9429H58.3118C58.9733 70.9429 59.5135 70.4074 59.5135 69.7463V64.9875C59.5135 64.9599 59.4908 64.9373 59.4631 64.9373ZM59.4126 69.7463C59.4126 70.3496 58.9177 70.8423 58.3118 70.8423H58.0568C57.4508 70.8423 56.956 70.3496 56.956 69.7463V65.0353H59.4151V69.7463H59.4126Z" fill="white"/>
<path d="M56.2944 64.9373H53.7368C53.709 64.9373 53.6863 64.9599 53.6863 64.9875V69.7463C53.6863 70.4049 54.2241 70.9429 54.8881 70.9429H55.1431C55.8046 70.9429 56.3449 70.4074 56.3449 69.7463V64.9875C56.3449 64.9599 56.3221 64.9373 56.2944 64.9373ZM56.2439 69.7463C56.2439 70.3496 55.749 70.8423 55.1431 70.8423H54.8881C54.2821 70.8423 53.7873 70.3496 53.7873 69.7463V65.0353H56.2464V69.7463H56.2439Z" fill="white"/>
<path d="M53.1235 64.9373H50.5659C50.5381 64.9373 50.5154 64.9599 50.5154 64.9875V69.7463C50.5154 70.4049 51.0532 70.9429 51.7172 70.9429H51.9722C52.6337 70.9429 53.1739 70.4074 53.1739 69.7463V64.9875C53.1739 64.9599 53.1512 64.9373 53.1235 64.9373ZM53.073 69.7463C53.073 70.3496 52.5781 70.8423 51.9722 70.8423H51.7172C51.1112 70.8423 50.6164 70.3496 50.6164 69.7463V65.0353H53.0755V69.7463H53.073Z" fill="white"/>
<path d="M54.156 60.6512C53.9313 57.7854 50.2603 54.8467 50.2603 54.8467C50.2603 54.8467 46.5893 57.7879 46.3646 60.6512C46.1399 63.517 50.2603 63.9192 50.2603 63.9192C50.2603 63.9192 54.3807 63.517 54.156 60.6512Z" fill="#DD2C52"/>
<path d="M53.4237 61.1112C53.242 58.7834 50.2602 56.3977 50.2602 56.3977C50.2602 56.3977 47.281 58.7859 47.0967 61.1112C46.9124 63.4365 50.2602 63.7658 50.2602 63.7658C50.2602 63.7658 53.6055 63.439 53.4237 61.1112Z" fill="white"/>
<path d="M53.0704 60.9553C52.9113 58.9417 50.4295 56.9307 50.3235 56.8452L50.2603 56.7949L50.1972 56.8452C50.0912 56.9307 47.6068 58.9417 47.4503 60.9553C47.2887 63.0217 50.2225 63.3335 50.2502 63.336H50.2603H50.2704C50.3007 63.3335 53.2345 63.0217 53.0704 60.9553ZM50.2603 63.1374C50.0786 63.1173 47.5058 62.7905 47.6497 60.9704C47.7886 59.2158 49.869 57.3832 50.2603 57.0513C50.6517 57.3806 52.7321 59.2132 52.8709 60.9704C53.0148 62.7879 50.4396 63.1147 50.2603 63.1374Z" fill="#F2A661"/>
<path d="M50.3082 9.63L60.9475 10.7612L50.2603 13.1519L50.3082 9.63Z" fill="#603412"/>
<path d="M52.9037 19.4391V19.0168H52.2776V18.6673H53.6056V18.0188L52.2271 17.2722H51.0026V15.975H51.8282V14.9795L51.0783 14.4315L50.2603 9.6225L49.4423 14.4315L48.6924 14.9795V15.975H49.518V17.2722H48.291L46.915 18.0188V18.6673H48.2405V19.0168H47.6144V19.4391L42.3604 22.5538L43.4031 23.2275H50.2603H57.1176L58.1603 22.5538L52.9037 19.4391Z" fill="#DD2C52"/>
<path d="M42.3604 22.5537H58.1603L57.1176 23.2274H43.4031L42.3604 22.5537Z" fill="#A81D41"/>
<path d="M47.6143 19.4391H52.9036L50.3587 19.8866L47.6143 19.4391Z" fill="#A81D41"/>
<path d="M52.2776 18.6673H48.2405V19.0167H52.2776V18.6673Z" fill="#A81D41"/>
<path d="M51.0026 15.975H49.5181V16.5481H51.0026V15.975Z" fill="#A81D41"/>
<path d="M48.2657 17.2269L46.8897 17.9735C46.8745 17.981 46.8644 17.9986 46.8644 18.0162V18.6648C46.8644 18.6925 46.8872 18.7151 46.9149 18.7151H48.1899V18.964H47.6143C47.5865 18.964 47.5638 18.9866 47.5638 19.0142V19.4089L42.3325 22.5085C42.3098 22.5236 42.2997 22.5537 42.3148 22.5764C42.3249 22.5914 42.3401 22.6015 42.3577 22.6015C42.3653 22.6015 42.3754 22.6015 42.383 22.594L47.637 19.4793C47.6522 19.4692 47.6623 19.4542 47.6623 19.4366V19.062H48.2379C48.2657 19.062 48.2884 19.0394 48.2884 19.0117V18.6623C48.2884 18.6346 48.2657 18.612 48.2379 18.612H46.9604V18.0439L48.3111 17.3098C48.3364 17.2973 48.3439 17.2671 48.3313 17.242C48.3187 17.2168 48.2884 17.2093 48.2631 17.2219L48.2657 17.2269Z" fill="#66122C"/>
<path d="M49.5179 15.9247H48.7428V15.0021L49.4725 14.4692C49.4725 14.4692 49.4902 14.4491 49.4927 14.4365L50.3082 9.63002C50.3132 9.60237 50.2956 9.57723 50.2678 9.57221C50.2425 9.56718 50.2148 9.58478 50.2097 9.61243L49.3967 14.4013L48.662 14.9368C48.6494 14.9468 48.6418 14.9619 48.6418 14.977V15.9725C48.6418 16.0001 48.6646 16.0228 48.6923 16.0228H49.5179C49.5457 16.0228 49.5684 16.0001 49.5684 15.9725C49.5684 15.9448 49.5457 15.9222 49.5179 15.9222V15.9247Z" fill="#66122C"/>
<path d="M40.9415 97.5395L40.5653 97.1674V92.4841V92.3986V87.7153L40.9415 87.3433V86.1643L41.2596 83.9244H39.8736H38.49L38.8056 86.1643V87.3433L39.1818 87.7153V92.3986V92.4841V97.1674L38.8056 97.5395V98.7185L38.49 100.958H39.8736H41.2596L40.9415 98.7185V97.5395Z" fill="#DD2C52"/>
<path d="M40.5653 87.6676H39.2045L38.8358 87.2226V86.016L38.5379 83.9194C38.5329 83.8918 38.5076 83.8717 38.4824 83.8767C38.4546 83.8792 38.4369 83.9069 38.4394 83.932L38.7348 86.021V87.2402C38.7348 87.2402 38.7399 87.2629 38.7475 87.2729L39.1312 87.7355V97.1674C39.1312 97.1951 39.154 97.2177 39.1817 97.2177C39.2095 97.2177 39.2322 97.1951 39.2322 97.1674V87.7681H40.5678C40.5956 87.7681 40.6183 87.7455 40.6183 87.7179C40.6183 87.6902 40.5956 87.6676 40.5678 87.6676H40.5653Z" fill="white"/>
<path d="M34.8239 97.5395L34.4477 97.1674V92.4841V92.3986V87.7153L34.8239 87.3433V86.1643L35.1395 83.9244H33.756H32.3699L32.688 86.1643V87.3433L33.0642 87.7153V92.3986V92.4841V97.1674L32.688 97.5395V98.7185L32.3699 100.958H33.756H35.1395L34.8239 98.7185V97.5395Z" fill="#DD2C52"/>
<path d="M34.4479 87.6676H33.087L32.7184 87.2226V86.016L32.4205 83.9194C32.4154 83.8918 32.3902 83.8717 32.3649 83.8767C32.3372 83.8792 32.3195 83.9069 32.322 83.932L32.6174 86.021V87.2402C32.6174 87.2402 32.6225 87.2629 32.63 87.2729L33.0138 87.7355V97.1674C33.0138 97.1951 33.0365 97.2177 33.0643 97.2177C33.0921 97.2177 33.1148 97.1951 33.1148 97.1674V87.7681H34.4504C34.4782 87.7681 34.5009 87.7455 34.5009 87.7179C34.5009 87.6902 34.4782 87.6676 34.4504 87.6676H34.4479Z" fill="white"/>
<path d="M59.8544 97.5395L60.2306 97.1674V92.4841V92.3986V87.7153L59.8544 87.3433V86.1643L59.5388 83.9244H60.9224H62.306L61.9904 86.1643V87.3433L61.6142 87.7153V92.3986V92.4841V97.1674L61.9904 97.5395V98.7185L62.306 100.958H60.9224H59.5388L59.8544 98.7185V97.5395Z" fill="#DD2C52"/>
<path d="M60.2305 87.6676H61.5914L61.96 87.2226V86.016L62.2579 83.9194C62.2629 83.8918 62.2882 83.8717 62.3134 83.8767C62.3412 83.8792 62.3589 83.9069 62.3564 83.932L62.061 86.021V87.2402C62.061 87.2402 62.0559 87.2629 62.0483 87.2729L61.6646 87.7355V97.1674C61.6646 97.1951 61.6418 97.2177 61.6141 97.2177C61.5863 97.2177 61.5636 97.1951 61.5636 97.1674V87.7681H60.228C60.2002 87.7681 60.1775 87.7455 60.1775 87.7179C60.1775 87.6902 60.2002 87.6676 60.228 87.6676H60.2305Z" fill="white"/>
<path d="M65.9746 97.5395L66.3483 97.1674V92.4841V92.3986V87.7153L65.9746 87.3433V86.1643L65.6565 83.9244H67.0426H68.4262L68.108 86.1643V87.3433L67.7344 87.7153V92.3986V92.4841V97.1674L68.108 97.5395V98.7185L68.4262 100.958H67.0426H65.6565L65.9746 98.7185V97.5395Z" fill="#DD2C52"/>
<path d="M66.3482 87.6676H67.709L68.0776 87.2226V86.016L68.3756 83.9194C68.3806 83.8918 68.4059 83.8717 68.4311 83.8767C68.4589 83.8792 68.4766 83.9069 68.474 83.932L68.1786 86.021V87.2402C68.1786 87.2402 68.1736 87.2629 68.166 87.2729L67.7822 87.7355V97.1674C67.7822 97.1951 67.7595 97.2177 67.7318 97.2177C67.704 97.2177 67.6813 97.1951 67.6813 97.1674V87.7681H66.3457C66.3179 87.7681 66.2952 87.7455 66.2952 87.7179C66.2952 87.6902 66.3179 87.6676 66.3457 87.6676H66.3482Z" fill="white"/>
</g>
<defs>
<filter id="filter0_d_1350_2366" x="0.928223" y="0.616089" width="96.7832" height="96.7832" filterUnits="userSpaceOnUse" color-interpolation-filters="sRGB">
<feFlood flood-opacity="0" result="BackgroundImageFix"/>
<feColorMatrix in="SourceAlpha" type="matrix" values="0 0 0 0 0 0 0 0 0 0 0 0 0 0 0 0 0 0 127 0" result="hardAlpha"/>
<feOffset dy="4"/>
<feGaussianBlur stdDeviation="2"/>
<feComposite in2="hardAlpha" operator="out"/>
<feColorMatrix type="matrix" values="0 0 0 0 0 0 0 0 0 0 0 0 0 0 0 0 0 0 0.25 0"/>
<feBlend mode="normal" in2="BackgroundImageFix" result="effect1_dropShadow_1350_2366"/>
<feBlend mode="normal" in="SourceGraphic" in2="effect1_dropShadow_1350_2366" result="shape"/>
</filter>
</defs>
</svg>
