<svg width="391" height="278" viewBox="0 0 391 278" fill="none" xmlns="http://www.w3.org/2000/svg">
<g filter="url(#filter0_d_147_3687)">
<path d="M370.611 133.013V140.829C365.906 140.829 356.32 142.376 356.32 154.717C356.32 170.785 347.041 182.423 330.18 176.024C336.064 194.359 325.33 204.45 310.587 204.45C295.553 204.45 297.946 222.768 297.946 222.768H261.912C256.529 238.238 236.483 240.348 220.835 240.348C202.584 240.348 195.665 253.691 195.665 253.691C195.665 253.691 188.746 240.348 170.495 240.348C154.846 240.348 134.801 238.326 129.417 222.768H93.3839C93.3839 222.768 95.7926 204.45 80.7423 204.45C65.9829 204.45 55.265 194.359 61.1494 176.024C44.3046 182.423 35.0255 170.75 35.0255 154.717C35.0255 142.411 25.423 140.847 20.7188 140.829V133.013H370.611Z" fill="white"/>
<path d="M370.611 136.987V129.171C365.906 129.171 356.32 127.624 356.32 115.283C356.32 99.2151 347.041 87.5773 330.18 93.9763C336.064 75.6407 325.33 65.55 310.587 65.55C295.553 65.55 297.946 47.2319 297.946 47.2319H261.912C256.529 31.7618 236.483 29.6522 220.835 29.6522C202.584 29.6522 195.665 16.3092 195.665 16.3092C195.665 16.3092 188.746 29.6522 170.495 29.6522C154.846 29.6522 134.801 31.6739 129.417 47.2319H93.3839C93.3839 47.2319 95.7926 65.55 80.7423 65.55C65.9829 65.55 55.265 75.6407 61.1494 93.9763C44.3046 87.5773 35.0255 99.2503 35.0255 115.283C35.0255 127.589 25.423 129.153 20.7188 129.171V136.987H370.611Z" fill="white"/>
<g clip-path="url(#clip0_147_3687)">
<path d="M176.696 137.978H166.848C166.848 138.349 166.802 138.639 166.802 138.929V152.168C166.802 153.577 167.563 154.041 168.785 153.328C169.533 152.953 170.176 152.395 170.654 151.705C171.132 151.016 171.431 150.216 171.522 149.38C171.522 149.177 171.608 148.974 171.666 148.713C172.818 149.873 173.97 150.957 175.048 152.122C175.255 152.496 175.311 152.936 175.204 153.351C174.587 156.956 170.761 158.568 167.937 156.249C166.389 154.915 164.997 153.408 163.789 151.757C163.266 150.963 162.989 150.031 162.994 149.079C162.878 145.74 162.901 142.389 162.878 139.045C162.878 138.726 162.878 138.401 162.878 138.036H153.999V142.812C153.12 142.573 152.23 142.379 151.331 142.233C150.527 142.135 149.712 142.162 148.917 142.314C148.018 142.505 147.724 143.218 148.058 144.099C148.632 145.51 149.735 146.637 151.129 147.235C152.604 147.937 154.131 148.516 155.595 149.241C156.494 149.686 157.344 150.226 158.13 150.852C158.482 151.141 158.729 151.539 158.833 151.983C158.937 152.427 158.893 152.894 158.706 153.31C158.438 154.074 158.015 154.774 157.463 155.365C156.912 155.956 156.244 156.425 155.503 156.742C153.353 157.714 150.975 158.058 148.64 157.733C145.957 157.581 143.381 156.626 141.241 154.991C139.611 153.675 138.7 152.018 139.081 149.832C139.398 148.006 140.302 147.229 142.158 147.229C143.873 147.241 145.531 147.856 146.842 148.969C146.249 148.995 145.658 149.063 145.073 149.171C143.005 149.716 142.394 151.902 143.984 153.339C144.733 153.96 145.608 154.408 146.548 154.649C148.563 155.19 150.697 155.071 152.639 154.307C153.098 154.14 153.527 153.898 153.907 153.588C154.087 153.472 154.237 153.314 154.346 153.128C154.454 152.943 154.518 152.734 154.533 152.519C154.548 152.304 154.512 152.089 154.429 151.89C154.347 151.691 154.219 151.515 154.056 151.374C153.296 150.722 152.467 150.154 151.584 149.682C150.052 148.812 148.415 148.116 146.934 147.16C146.142 146.583 145.468 145.857 144.952 145.021C144.526 144.476 144.283 143.808 144.259 143.115C144.235 142.422 144.432 141.739 144.82 141.166C145.707 139.827 147.073 139.427 148.605 139.56C149.19 139.651 149.767 139.78 150.334 139.949V138.065H133.013C133.013 139.056 132.978 140.059 133.042 141.056C133.042 141.288 133.37 141.526 133.584 141.723C134.083 142.128 134.497 142.629 134.801 143.198C135.105 143.766 135.292 144.39 135.352 145.033C135.462 147.056 134.356 148.418 132.817 149.426C130.593 150.879 128.044 151.752 125.401 151.965C123.863 152.093 123.2 151.67 122.906 150.458C123.897 150.151 124.894 149.832 125.891 149.537C127.656 149.055 129.301 148.206 130.72 147.044C131.336 146.528 131.809 145.931 131.578 145.062C131.473 144.704 131.265 144.386 130.98 144.149C130.694 143.911 130.345 143.765 129.976 143.728C125.856 142.894 122.33 145.659 121.846 148.771C121.704 149.529 121.752 150.309 121.986 151.043C122.219 151.777 122.631 152.44 123.183 152.974C126.387 156.203 130.674 155.872 133.416 152.261C133.462 152.191 133.52 152.128 133.601 152.023L136.079 154.29C135.888 154.493 135.75 154.684 135.577 154.835C131.959 158.093 125.649 158.626 121.656 155.038C118.152 151.884 117.668 146.343 120.694 143.021C122.699 140.824 125.799 139.781 129.394 140.123V138.059H113.969V157.235C112.592 155.907 111.37 154.754 110.195 153.56C110.052 153.302 109.995 153.005 110.034 152.713C110.034 148.157 110.034 143.607 110.034 139.056V138.048H93.9918V145.49C95.1442 144.464 96.2505 143.52 97.3396 142.592C98.3364 141.74 99.2929 140.853 100.359 140.076C101.863 139.004 102.433 139.062 103.632 140.453C104.508 141.532 105.32 142.663 106.063 143.838C106.112 143.961 106.129 144.093 106.114 144.223C106.099 144.354 106.052 144.478 105.977 144.586C105.193 145.496 104.364 146.366 103.499 147.299C103.038 146.719 102.635 146.14 102.174 145.612C101.114 144.389 100.543 144.238 99.1431 144.969C97.57 145.786 96.0546 146.708 94.4988 147.548C94.3045 147.641 94.1442 147.792 94.0408 147.982C93.9373 148.171 93.8959 148.389 93.9226 148.603C93.9226 151.154 93.9226 153.699 93.9226 156.249V157.287C92.5397 155.93 91.3066 154.748 90.1196 153.531C89.9698 153.38 90.0043 153.015 90.0043 152.748C90.0043 148.169 90.0043 143.589 90.0043 139.01V138.065H71.2889V143.746C71.6922 143.415 72.0264 143.125 72.3779 142.853C74.216 141.41 76.1348 140.123 78.4627 139.647C79.4116 139.47 80.3873 139.499 81.3238 139.734C82.2603 139.968 83.1358 140.403 83.8909 141.007C84.6461 141.612 85.2632 142.373 85.7006 143.238C86.138 144.104 86.3854 145.054 86.426 146.024C86.5701 150.876 84.1212 154.139 80.2029 156.626C77.535 158.307 74.8614 158.179 72.0956 157.014L71.2543 156.649V166.469C69.8541 165.101 68.6268 163.924 67.4397 162.707C67.2784 162.539 67.3072 162.127 67.3072 161.855C67.3072 154.253 67.3072 146.658 67.3072 139.068V137.99C66.5466 137.99 65.8436 137.943 65.1522 137.99C64.9013 138.022 64.6469 137.97 64.4282 137.842C64.2096 137.714 64.0387 137.517 63.9421 137.282C63.4178 136.337 62.8185 135.439 62.248 134.523V134.198H162.844C162.964 131.904 162.744 129.605 162.193 127.376C161.985 126.905 161.75 126.446 161.49 126.002C161.374 125.709 161.346 125.389 161.409 125.08C163.221 125.675 164.737 126.947 165.644 128.634C166.549 130.373 166.745 132.21 166.797 134.198H169.931C171.291 134.198 172.657 134.198 174.017 134.198C174.142 134.199 174.266 134.226 174.381 134.276C174.496 134.327 174.6 134.401 174.685 134.494C175.376 135.636 175.993 136.755 176.696 137.978ZM82.1448 149.71C82.6292 148.511 82.7573 147.196 82.5135 145.925C82.4208 145.478 82.2403 145.053 81.9825 144.677C81.7248 144.3 81.3949 143.979 81.0124 143.733C80.6298 143.486 80.2021 143.319 79.7545 143.24C79.3068 143.162 78.8481 143.174 78.4051 143.276C76.3884 143.798 74.7807 145.096 73.0406 146.174C71.6749 147.021 70.7357 147.971 71.2255 149.45C71.2255 152.168 71.2255 152.168 72.3261 153.507C74.0547 155.612 76.567 155.959 78.797 154.377C80.3594 153.201 81.5275 151.573 82.1448 149.71Z" fill="#157E42"/>
<path d="M114.522 127.868L112.021 130.471L111.756 130.251L109.336 128.042L112.165 125.254C112.885 126.06 113.721 126.999 114.522 127.868Z" fill="#157E42"/>
<path d="M82.5131 145.914C82.7569 147.185 82.6288 148.5 82.1443 149.699C81.5219 151.551 80.3543 153.168 78.7965 154.336C76.5666 155.919 74.0716 155.571 72.3256 153.467C71.2251 152.134 71.2251 152.134 71.2251 149.409C70.7238 147.931 71.6745 146.98 73.0401 146.134C74.7688 145.067 76.388 143.769 78.4047 143.236C78.8496 143.134 79.3103 143.123 79.7596 143.203C80.2089 143.283 80.6376 143.453 81.0205 143.703C81.4035 143.952 81.7328 144.276 81.9892 144.656C82.2455 145.036 82.4237 145.464 82.5131 145.914Z" fill="white"/>
<path d="M314.734 147.595C314.133 147.606 313.534 147.664 312.942 147.769C312.563 147.841 312.211 148.016 311.924 148.275C311.637 148.534 311.425 148.867 311.312 149.238C311.199 149.609 311.188 150.004 311.281 150.38C311.375 150.756 311.568 151.1 311.841 151.374C312.46 152.021 313.231 152.499 314.083 152.765C316.061 153.337 318.17 153.253 320.098 152.528C320.298 152.456 320.491 152.367 320.675 152.261C322.127 151.455 322.248 150.296 320.905 149.305C320.126 148.762 319.294 148.3 318.422 147.925C316.63 147.108 314.803 146.331 313.553 144.725C312.979 144.063 312.583 143.265 312.4 142.407C312.031 139.937 314.279 138.256 316.935 138.894C317.246 138.969 317.557 139.068 317.92 139.172V137.398H301.688C301.688 138.297 301.688 139.213 301.688 140.129C301.688 140.314 301.971 140.505 302.144 140.668C304.575 142.946 304.448 145.757 301.746 147.67C299.478 149.318 296.748 150.199 293.95 150.186C292.936 150.186 292.567 149.861 292.284 148.829C293.097 148.574 293.909 148.296 294.739 148.064C296.456 147.626 298.064 146.837 299.464 145.746C300.04 145.276 300.536 144.737 300.392 143.949C300.315 143.579 300.122 143.245 299.84 142.996C299.558 142.747 299.204 142.597 298.83 142.569C295.062 141.844 291.916 144.308 291.339 146.992C291.16 147.658 291.149 148.359 291.306 149.031C291.463 149.702 291.783 150.325 292.238 150.841C294.676 153.536 298.997 154.696 302.213 150.313L304.518 152.423C302.684 154.279 300.204 155.344 297.603 155.391C295.865 155.485 294.138 155.068 292.632 154.19C291.127 153.311 289.909 152.011 289.127 150.447C286.782 145.537 289.703 140.146 295.2 139.358C296.185 139.213 297.194 139.224 298.26 139.16V137.421H282.621V141.798C281.4 141.798 280.247 141.798 279.089 141.798C277.52 141.774 275.996 142.326 274.802 143.351C273.073 144.777 272.054 146.586 272.497 148.893C272.941 151.2 274.739 152.313 276.784 152.951C277.814 153.292 278.924 153.3 279.959 152.974C280.994 152.647 281.901 152.003 282.552 151.131C282.737 150.899 282.915 150.661 283.128 150.366C283.532 150.725 283.918 151.055 284.281 151.397C284.644 151.739 285.024 152.105 285.433 152.493C284.092 153.903 282.352 154.865 280.449 155.246C276.75 155.983 273.488 155.165 271.039 152.139C267.83 148.169 268.735 140.702 276.024 139.688C277.061 139.543 278.121 139.578 279.227 139.526V137.45H265.156V155.339C264.724 154.945 264.448 154.719 264.2 154.47C263.295 153.559 262.062 152.789 261.595 151.693C261.129 150.597 261.463 149.212 261.463 147.954C261.463 144.772 261.463 141.578 261.463 138.407V137.45H256.726C255.868 140.262 255.078 143.096 254.139 145.885C253.476 147.85 252.664 149.763 251.834 151.681C251.298 152.923 250.418 153.984 249.299 154.736C247.668 155.838 246.251 155.536 245.513 153.722C243.75 149.374 242.096 144.98 240.414 140.598C240.068 139.705 239.809 138.784 239.457 137.897C239.403 137.779 239.323 137.675 239.223 137.593C239.123 137.511 239.006 137.452 238.881 137.421C234.576 137.421 230.272 137.421 225.91 137.421V144.378C227.063 143.392 228.094 142.465 229.166 141.56C230.122 140.749 231.05 139.891 232.076 139.184C233.228 138.395 233.804 138.471 234.709 139.52C235.614 140.569 236.34 141.705 237.118 142.824C237.169 142.919 237.195 143.026 237.195 143.134C237.195 143.242 237.169 143.349 237.118 143.444C236.357 144.331 235.55 145.183 234.767 146.03C234.139 145.311 233.585 144.644 232.992 144.018C232.752 143.73 232.414 143.543 232.044 143.494C231.674 143.444 231.298 143.536 230.992 143.751C229.471 144.604 227.95 145.45 226.417 146.273C226.223 146.364 226.062 146.514 225.959 146.703C225.855 146.892 225.814 147.108 225.841 147.322C225.841 149.931 225.841 152.539 225.841 155.374C225.113 154.586 224.343 153.837 223.536 153.131C222.464 152.29 222.165 151.287 222.199 149.942C222.292 146.105 222.234 142.262 222.234 138.419V137.474H215.792C215.792 138.337 215.757 139.213 215.792 140.071C215.792 140.314 216.097 140.563 216.305 140.76C216.783 141.147 217.178 141.628 217.466 142.173C217.755 142.718 217.93 143.316 217.981 143.931C218.005 144.65 217.843 145.363 217.511 146C217.178 146.637 216.687 147.177 216.086 147.566C213.777 149.295 210.978 150.234 208.099 150.244C207.033 150.244 206.642 149.896 206.446 148.87C207.414 148.569 208.387 148.25 209.373 147.96C210.921 147.523 212.366 146.776 213.62 145.763C214.196 145.293 214.68 144.743 214.501 143.943C214.411 143.594 214.216 143.281 213.945 143.046C213.673 142.811 213.336 142.665 212.98 142.627C209.269 141.879 206.031 144.285 205.489 147.09C205.321 147.744 205.315 148.429 205.47 149.086C205.626 149.743 205.939 150.351 206.382 150.858C209.021 153.797 213.297 154.441 216.08 150.719L216.374 150.354L218.679 152.464C217.458 153.775 215.874 154.688 214.132 155.084C210.306 155.983 206.889 155.275 204.337 152.099C200.361 147.154 203.075 140.337 209.338 139.404C210.324 139.259 211.338 139.271 212.415 139.207V137.468H195.451V141.856C194.478 141.641 193.596 141.398 192.703 141.276C192.114 141.197 191.516 141.216 190.934 141.334C189.891 141.56 189.574 142.262 190.006 143.253C190.589 144.51 191.616 145.504 192.887 146.041C194.19 146.661 195.538 147.201 196.834 147.78C197.599 148.136 198.326 148.567 199.007 149.067C200.044 149.85 200.211 150.667 199.767 151.896C199.082 153.78 197.526 154.632 195.803 155.281C195.59 155.362 195.365 155.426 194.973 155.554L197.111 156.782L195.042 159.101C193.716 158.457 192.538 157.541 191.585 156.411C191.308 156.111 190.943 155.908 190.542 155.832C188.151 155.478 185.846 154.893 183.864 153.409C182.642 152.493 181.709 151.345 181.559 149.774C181.288 146.876 183.247 145.177 186.094 145.676C186.902 145.813 187.665 146.141 188.322 146.634C188.978 147.127 189.508 147.77 189.868 148.511C190.536 149.734 191.211 150.951 191.85 152.186C191.912 152.359 192.012 152.516 192.142 152.646C192.272 152.775 192.429 152.874 192.601 152.935C192.774 152.996 192.958 153.018 193.14 152.999C193.322 152.979 193.498 152.919 193.654 152.823C194.185 152.621 194.698 152.372 195.186 152.081C196.16 151.397 196.258 150.464 195.377 149.664C194.725 149.101 194.007 148.62 193.239 148.232C192.04 147.589 190.778 147.073 189.597 146.395C188.438 145.761 187.493 144.795 186.883 143.618C185.731 141.381 186.987 139.021 189.482 138.836C190.356 138.842 191.229 138.916 192.092 139.056V137.358H191.193C188.001 137.358 184.815 137.358 181.622 137.358C181.373 137.385 181.121 137.329 180.906 137.2C180.691 137.07 180.523 136.873 180.43 136.639C179.957 135.688 179.41 134.778 178.828 133.741H179.807C201.289 133.741 222.772 133.741 244.257 133.741C244.532 133.709 244.81 133.771 245.047 133.916C245.284 134.06 245.466 134.28 245.565 134.541C246.02 135.468 246.556 136.349 247.121 137.363H243.283C243.859 139.01 244.401 140.552 244.96 142.082C245.882 144.627 246.792 147.172 247.755 149.693C248.29 151.09 248.907 151.194 249.944 150.105C250.326 149.72 250.653 149.285 250.918 148.812C252.756 145.224 253.845 141.357 255.124 137.404C253.926 137.404 252.819 137.404 251.725 137.404C251.541 137.429 251.354 137.393 251.192 137.301C251.031 137.209 250.904 137.066 250.832 136.894C250.284 135.862 249.708 134.9 249.074 133.741H249.979C275.413 133.741 300.849 133.741 326.287 133.741C326.536 133.709 326.788 133.76 327.005 133.885C327.222 134.011 327.393 134.204 327.491 134.436C327.958 135.387 328.517 136.297 329.099 137.335H321.291V141.856C320.399 141.617 319.495 141.424 318.583 141.276C317.912 141.203 317.234 141.246 316.578 141.404C316.407 141.432 316.245 141.501 316.105 141.605C315.966 141.708 315.853 141.844 315.776 142.001C315.7 142.157 315.661 142.33 315.664 142.504C315.668 142.679 315.712 142.85 315.794 143.004C316.049 143.67 316.436 144.277 316.932 144.788C317.427 145.299 318.02 145.704 318.675 145.977C319.995 146.615 321.366 147.137 322.709 147.78C323.427 148.097 324.113 148.485 324.754 148.94C325.953 149.838 326.126 150.725 325.521 152.105C325.173 152.853 324.664 153.515 324.03 154.04C323.396 154.566 322.653 154.942 321.856 155.142C319.87 155.796 317.762 155.984 315.693 155.693C313.623 155.401 311.648 154.638 309.917 153.461C309.012 152.956 308.292 152.172 307.864 151.224C307.435 150.277 307.321 149.216 307.537 148.198C307.883 146.586 308.689 145.943 310.36 145.948C311.966 145.958 313.516 146.542 314.734 147.595ZM189.332 153.217C188.358 151.409 187.696 149.583 185.788 148.76C185.507 149.075 185.344 149.479 185.327 149.902C185.31 150.326 185.441 150.742 185.696 151.079C186.086 151.704 186.62 152.225 187.253 152.597C187.886 152.97 188.599 153.182 189.332 153.217Z" fill="#FD642A"/>
<path d="M263.473 125.503L265.807 127.955L263.352 130.373L260.944 128.054L263.473 125.503Z" fill="#FD642A"/>
<path d="M214.403 94.2881C214.407 94.2071 214.394 94.1261 214.365 94.0504C214.336 93.9746 214.292 93.9059 214.235 93.8485C214.178 93.7911 214.11 93.7464 214.034 93.7173C213.959 93.6882 213.879 93.6753 213.798 93.6795H213.406C213.498 93.629 213.574 93.5543 213.627 93.4634C213.68 93.3725 213.707 93.2688 213.706 93.1636C213.71 93.0826 213.697 93.0016 213.668 92.9258C213.639 92.8501 213.595 92.7813 213.538 92.7239C213.481 92.6666 213.412 92.6219 213.337 92.5928C213.262 92.5637 213.181 92.5508 213.101 92.5549H212.669C212.777 92.5103 212.869 92.4338 212.932 92.3355C212.996 92.2371 213.029 92.1216 213.026 92.0042C213.03 91.8718 212.988 91.7421 212.909 91.6366C212.829 91.5311 212.716 91.4563 212.588 91.4246C212.69 91.1832 212.742 90.9235 212.742 90.6611C212.742 90.3988 212.688 90.1393 212.586 89.8982C212.483 89.6571 212.332 89.4395 212.144 89.2585C211.955 89.0775 211.732 88.9368 211.487 88.845H210.433C210.195 88.9441 209.978 89.0894 209.796 89.2727C209.614 89.4561 209.469 89.6738 209.371 89.9134C209.272 90.1531 209.222 90.4099 209.222 90.6692C209.222 90.9285 209.274 91.1852 209.373 91.4246C209.244 91.4552 209.129 91.5295 209.048 91.6351C208.968 91.7407 208.925 91.871 208.929 92.0042C208.926 92.1216 208.959 92.2371 209.022 92.3355C209.086 92.4338 209.178 92.5103 209.286 92.5549H208.854C208.771 92.5464 208.688 92.5561 208.609 92.5833C208.53 92.6104 208.458 92.6544 208.398 92.7123C208.337 92.7701 208.29 92.8404 208.26 92.9184C208.229 92.9963 208.216 93.0799 208.22 93.1636C208.219 93.2688 208.246 93.3725 208.299 93.4634C208.352 93.5543 208.428 93.629 208.52 93.6795H208.151C208.073 93.6794 207.996 93.6953 207.924 93.7262C207.852 93.7571 207.787 93.8025 207.733 93.8594C207.679 93.9163 207.637 93.9837 207.61 94.0574C207.583 94.1311 207.571 94.2096 207.575 94.2881C207.574 94.3861 207.598 94.4827 207.644 94.5689C207.691 94.655 207.758 94.728 207.84 94.7809C205.919 97.7284 204.712 101.087 204.313 104.589H217.682C217.283 101.087 216.076 97.7284 214.155 94.7809C214.234 94.7259 214.298 94.6521 214.341 94.5661C214.384 94.4801 214.406 94.3845 214.403 94.2881Z" fill="#FD642A"/>
<path d="M241.238 132.436C240.417 123.975 238.028 115.743 234.196 108.165C234.458 108.024 234.672 107.806 234.809 107.54C234.946 107.274 235 106.973 234.965 106.676C234.929 106.379 234.806 106.099 234.61 105.874C234.414 105.648 234.156 105.488 233.868 105.412V104.832C234.156 104.757 234.363 104.6 234.363 104.415C234.363 104.23 234.144 104.067 233.839 103.998L233.735 100.618C233.735 100.557 233.711 100.498 233.668 100.454C233.625 100.411 233.566 100.386 233.505 100.386C233.444 100.386 233.385 100.411 233.342 100.454C233.299 100.498 233.274 100.557 233.274 100.618L233.171 103.998C232.865 104.067 232.652 104.23 232.652 104.415C232.652 104.6 232.854 104.757 233.148 104.832V105.412C232.859 105.487 232.6 105.647 232.404 105.872C232.207 106.097 232.083 106.377 232.047 106.674C232.011 106.971 232.065 107.273 232.202 107.539C232.338 107.805 232.551 108.023 232.813 108.165C229.44 114.833 227.166 122.008 226.083 129.41V124.014H225.622C223.894 120.536 220.701 106.757 217.555 105.261H204.394C201.26 106.757 198.056 120.524 196.327 124.014H195.872V129.399C194.805 122.005 192.554 114.834 189.205 108.165C189.467 108.023 189.68 107.805 189.817 107.539C189.954 107.273 190.008 106.971 189.972 106.674C189.936 106.377 189.811 106.097 189.615 105.872C189.419 105.647 189.159 105.487 188.871 105.412V104.832C189.165 104.757 189.367 104.6 189.367 104.415C189.367 104.23 189.154 104.067 188.848 103.998L188.744 100.618C188.742 100.559 188.717 100.503 188.675 100.461C188.634 100.42 188.578 100.395 188.52 100.392C188.489 100.391 188.459 100.397 188.431 100.407C188.403 100.418 188.377 100.435 188.355 100.456C188.333 100.477 188.315 100.502 188.303 100.53C188.291 100.558 188.284 100.588 188.283 100.618L188.18 103.998C187.874 104.067 187.655 104.23 187.655 104.415C187.655 104.6 187.863 104.757 188.151 104.832V105.412C187.863 105.488 187.604 105.648 187.409 105.874C187.213 106.099 187.089 106.379 187.054 106.676C187.019 106.973 187.073 107.274 187.21 107.54C187.347 107.806 187.56 108.024 187.822 108.165C183.99 115.743 181.602 123.975 180.781 132.436H180.309V134.03H241.831V132.436H241.238Z" fill="#FD642A"/>
<path d="M211.245 80.3239H210.905V89.0015H211.245V80.3239Z" fill="#01529C"/>
<path d="M211.436 80.0398C211.436 80.1351 211.398 80.2266 211.331 80.294C211.264 80.3614 211.173 80.3992 211.078 80.3992C210.984 80.3992 210.893 80.3614 210.826 80.294C210.759 80.2266 210.721 80.1351 210.721 80.0398C210.721 79.8427 211.078 79.6804 211.078 79.6804C211.078 79.6804 211.436 79.8311 211.436 80.0398Z" fill="#DAD9ED"/>
<path d="M220.517 85.8713C220.181 85.4868 219.768 85.1769 219.307 84.9612C218.787 84.8962 218.288 84.7182 217.843 84.4395C217.433 84.1462 216.994 83.8939 216.535 83.6859C217.035 83.576 217.521 83.4067 217.981 83.1816C218.494 82.8918 218.742 82.3585 219.209 82.1672C219.489 82.0561 219.789 82.0028 220.09 82.0107C219.621 81.7055 219.063 81.5668 218.506 81.6165C217.68 81.7509 216.833 81.6254 216.08 81.2571C215.5 80.9064 214.823 80.7539 214.15 80.8223C213.566 80.8821 212.976 80.8128 212.421 80.6195C211.903 80.4894 211.37 80.4309 210.836 80.4456V86.08C210.93 86.0782 211.023 86.0899 211.113 86.1147C211.947 86.316 212.802 86.4133 213.66 86.4046C214.478 86.3176 215.659 85.993 216.31 86.0104C216.962 86.0278 218.039 86.4915 219.065 86.1611C219.664 85.9654 220.306 85.9492 220.914 86.1147C220.914 86.1147 220.632 85.9582 220.517 85.8713Z" fill="#01529C"/>
<path d="M208.912 123.683C208.912 123.683 208.877 123.26 209.171 123.33C212.052 123.99 212.986 117.707 216.904 117.655C219.635 117.614 221.45 120.385 221.352 123.33C221.168 128.831 217.866 129.996 216.662 129.996C212.98 129.996 212.744 125.845 213.625 124.588C213.827 126.002 215.054 127.735 216.541 127.735C218.575 127.735 219.768 125.695 219.825 123.677C219.889 121.312 218.488 120.078 216.944 119.962C214.288 119.753 213.931 124.263 210.756 124.263C209.223 124.263 209.741 125.579 209.632 124.843C209.62 124.703 208.866 123.759 208.912 123.683Z" fill="white"/>
<path d="M202.32 117.655C203.115 116.026 205.022 115.04 207.131 115.04C208.283 115.04 210.773 115.765 210.773 118.455C210.764 119.327 210.461 120.171 209.914 120.848C209.366 121.525 208.607 121.996 207.759 122.182C210.093 123.243 211.937 124.756 211.793 128.164C211.688 129.287 211.166 130.329 210.33 131.082C209.495 131.834 208.408 132.241 207.287 132.222C201.144 132.222 199.22 125.753 200.418 122.159C200.556 124.309 202.112 129.236 206.912 129.236C208.612 129.236 209.545 128.112 209.528 126.779C209.494 123.562 205.385 123.156 205.46 122.182C205.57 120.831 209.015 120.82 209.015 119.086C209.015 117.684 207.863 117.347 207.01 117.347C205.731 117.347 204.671 118.507 203.852 119.086C202.608 119.979 201.749 118.82 202.32 117.655Z" fill="white"/>
<path d="M209.079 110.026C207.99 111.278 208.872 114.913 212.732 115.782C215.613 116.432 218.448 115.33 218.448 113.672C218.462 113.489 218.437 113.305 218.377 113.131C218.316 112.958 218.22 112.799 218.094 112.665C217.969 112.531 217.818 112.424 217.65 112.352C217.481 112.28 217.3 112.244 217.117 112.246C215.965 112.246 216.38 113.84 213.551 113.84C212.474 113.849 211.431 113.469 210.61 112.769C209.79 112.069 209.246 111.096 209.079 110.026Z" fill="white"/>
<path d="M215.054 110.959C215.054 111.282 214.959 111.597 214.781 111.864C214.603 112.132 214.351 112.341 214.055 112.464C213.759 112.588 213.433 112.62 213.119 112.557C212.805 112.494 212.517 112.339 212.29 112.111C212.064 111.883 211.91 111.593 211.847 111.277C211.785 110.961 211.817 110.634 211.939 110.336C212.062 110.038 212.269 109.784 212.536 109.605C212.802 109.426 213.115 109.331 213.435 109.331C213.864 109.331 214.276 109.502 214.58 109.808C214.884 110.113 215.054 110.527 215.054 110.959Z" fill="white"/>
</g>
</g>
<defs>
<filter id="filter0_d_147_3687" x="0.71875" y="0.309204" width="389.892" height="277.382" filterUnits="userSpaceOnUse" color-interpolation-filters="sRGB">
<feFlood flood-opacity="0" result="BackgroundImageFix"/>
<feColorMatrix in="SourceAlpha" type="matrix" values="0 0 0 0 0 0 0 0 0 0 0 0 0 0 0 0 0 0 127 0" result="hardAlpha"/>
<feOffset dy="4"/>
<feGaussianBlur stdDeviation="10"/>
<feComposite in2="hardAlpha" operator="out"/>
<feColorMatrix type="matrix" values="0 0 0 0 0 0 0 0 0 0 0 0 0 0 0 0 0 0 0.25 0"/>
<feBlend mode="normal" in2="BackgroundImageFix" result="effect1_dropShadow_147_3687"/>
<feBlend mode="normal" in="SourceGraphic" in2="effect1_dropShadow_147_3687" result="shape"/>
</filter>
<clipPath id="clip0_147_3687">
<rect width="266.88" height="86.8491" fill="white" transform="translate(62.2246 79.6646)"/>
</clipPath>
</defs>
</svg>
