<svg width="25" height="24" viewBox="0 0 25 24" fill="none" xmlns="http://www.w3.org/2000/svg">
<path fill-rule="evenodd" clip-rule="evenodd" d="M5.54692 12C5.54692 11.2205 5.67638 10.4732 5.90743 9.77232L1.86315 6.68396C1.07494 8.28432 0.630859 10.0876 0.630859 12C0.630859 13.9107 1.0744 15.7129 1.86151 17.3121L5.90361 14.2178C5.67474 13.5201 5.54692 12.7756 5.54692 12Z" fill="#FBBC05"/>
<path fill-rule="evenodd" clip-rule="evenodd" d="M12.648 4.90909C14.3413 4.90909 15.8708 5.50909 17.0725 6.49091L20.5684 3C18.4381 1.14545 15.7069 0 12.648 0C7.89912 0 3.81769 2.71582 1.86328 6.684L5.90756 9.77236C6.83943 6.94364 9.49574 4.90909 12.648 4.90909Z" fill="#EB4335"/>
<path fill-rule="evenodd" clip-rule="evenodd" d="M12.648 19.0909C9.49574 19.0909 6.83943 17.0564 5.90756 14.2277L1.86328 17.3155C3.81769 21.2842 7.89912 24 12.648 24C15.5791 24 18.3774 22.9593 20.4777 21.0093L16.6388 18.0415C15.5556 18.7238 14.1917 19.0909 12.648 19.0909Z" fill="#34A853"/>
<path fill-rule="evenodd" clip-rule="evenodd" d="M24.1188 12.0001C24.1188 11.291 24.0095 10.5273 23.8456 9.81824H12.6479V14.4546H19.0935C18.7712 16.0353 17.8939 17.2506 16.6387 18.0415L20.4776 21.0093C22.6838 18.9617 24.1188 15.9115 24.1188 12.0001Z" fill="#4285F4"/>
</svg>
