<svg width="429" height="858" viewBox="0 0 429 858" fill="none" xmlns="http://www.w3.org/2000/svg">
<g filter="url(#filter0_d_1350_1001)">
<path d="M419.972 918.309V149.128C414.447 149.128 403.188 147.311 403.188 132.817C403.188 113.946 392.29 100.277 372.487 107.793C379.398 86.2577 366.791 74.4063 349.475 74.4063C331.818 74.4063 334.628 52.892 334.628 52.892H292.307C285.984 34.7225 262.441 32.2448 244.062 32.2448C222.626 32.2448 214.5 16.5737 214.5 16.5737C214.5 16.5737 206.374 32.2448 184.938 32.2448C166.559 32.2448 143.016 34.6193 136.693 52.892H94.3726C94.3726 52.892 97.2016 74.4063 79.5251 74.4063C62.1905 74.4063 49.6025 86.2577 56.5135 107.793C36.7296 100.277 25.8314 113.987 25.8314 132.817C25.8314 147.27 14.5534 149.108 9.02832 149.128V918.309H419.972Z" fill="white"/>
<g clip-path="url(#clip0_1350_1001)">
<path d="M191.495 137.831H182.234C182.234 138.177 182.19 138.448 182.19 138.718V151.066C182.19 152.38 182.906 152.812 184.054 152.147C184.758 151.798 185.363 151.278 185.813 150.634C186.262 149.991 186.543 149.245 186.629 148.466C186.629 148.276 186.71 148.087 186.764 147.844C187.848 148.925 188.932 149.936 189.945 151.023C190.14 151.372 190.193 151.782 190.092 152.169C189.512 155.532 185.913 157.035 183.258 154.872C181.802 153.628 180.493 152.223 179.356 150.682C178.864 149.942 178.604 149.073 178.608 148.185C178.5 145.071 178.521 141.946 178.5 138.826C178.5 138.529 178.5 138.226 178.5 137.886H170.149V142.34C169.322 142.117 168.485 141.936 167.639 141.8C166.883 141.708 166.117 141.734 165.369 141.875C164.523 142.054 164.247 142.719 164.561 143.541C165.101 144.856 166.139 145.907 167.45 146.465C168.837 147.12 170.273 147.66 171.65 148.336C172.496 148.751 173.295 149.255 174.034 149.839C174.365 150.108 174.597 150.479 174.695 150.893C174.793 151.308 174.751 151.743 174.576 152.131C174.324 152.844 173.926 153.497 173.407 154.048C172.888 154.599 172.26 155.036 171.563 155.332C169.541 156.238 167.304 156.559 165.109 156.256C162.586 156.115 160.163 155.224 158.15 153.699C156.617 152.472 155.76 150.926 156.118 148.887C156.416 147.184 157.267 146.46 159.012 146.46C160.625 146.47 162.184 147.044 163.418 148.082C162.86 148.107 162.304 148.17 161.754 148.271C159.809 148.779 159.234 150.817 160.73 152.158C161.434 152.737 162.257 153.155 163.141 153.38C165.036 153.885 167.043 153.773 168.87 153.061C169.302 152.906 169.705 152.679 170.062 152.391C170.231 152.282 170.372 152.135 170.475 151.961C170.577 151.788 170.637 151.594 170.651 151.393C170.665 151.193 170.631 150.992 170.553 150.807C170.476 150.621 170.356 150.456 170.203 150.325C169.487 149.717 168.708 149.188 167.878 148.747C166.436 147.936 164.897 147.287 163.505 146.395C162.759 145.857 162.126 145.18 161.64 144.4C161.239 143.892 161.011 143.269 160.989 142.623C160.966 141.976 161.151 141.34 161.516 140.805C162.35 139.556 163.635 139.183 165.076 139.307C165.626 139.392 166.169 139.513 166.702 139.67V137.913H150.412C150.412 138.837 150.379 139.772 150.439 140.702C150.439 140.918 150.748 141.14 150.948 141.324C151.418 141.702 151.807 142.169 152.093 142.7C152.379 143.23 152.555 143.812 152.612 144.411C152.715 146.298 151.674 147.568 150.227 148.509C148.136 149.864 145.739 150.678 143.253 150.877C141.806 150.996 141.182 150.601 140.906 149.471C141.838 149.185 142.776 148.887 143.713 148.612C145.374 148.163 146.921 147.371 148.255 146.287C148.835 145.806 149.279 145.249 149.062 144.438C148.964 144.105 148.767 143.808 148.499 143.587C148.231 143.365 147.902 143.229 147.556 143.195C143.681 142.416 140.364 144.995 139.909 147.898C139.776 148.604 139.821 149.332 140.04 150.017C140.26 150.701 140.647 151.32 141.166 151.818C144.179 154.829 148.211 154.521 150.791 151.153C150.834 151.088 150.888 151.028 150.964 150.931L153.295 153.045C153.116 153.234 152.986 153.412 152.823 153.553C149.42 156.591 143.486 157.089 139.73 153.742C136.435 150.801 135.98 145.633 138.825 142.535C140.711 140.486 143.627 139.513 147.008 139.832V137.907H132.501V155.791C131.206 154.553 130.057 153.477 128.951 152.364C128.816 152.124 128.763 151.847 128.799 151.574C128.799 147.325 128.799 143.081 128.799 138.837V137.896H113.712V144.838C114.796 143.881 115.836 143 116.861 142.135C117.798 141.34 118.698 140.513 119.7 139.789C121.115 138.788 121.651 138.842 122.779 140.14C123.603 141.147 124.366 142.201 125.065 143.297C125.111 143.411 125.127 143.534 125.113 143.656C125.099 143.778 125.055 143.894 124.984 143.995C124.247 144.843 123.467 145.654 122.654 146.525C122.22 145.984 121.841 145.444 121.407 144.952C120.41 143.811 119.874 143.67 118.557 144.351C117.077 145.114 115.652 145.973 114.189 146.757C114.006 146.843 113.855 146.985 113.758 147.162C113.661 147.338 113.622 147.541 113.647 147.741C113.647 150.12 113.647 152.493 113.647 154.872V155.84C112.346 154.575 111.187 153.472 110.07 152.337C109.929 152.196 109.962 151.855 109.962 151.607C109.962 147.336 109.962 143.065 109.962 138.794V137.913H92.3601V143.211C92.7394 142.903 93.0537 142.632 93.3843 142.378C95.1131 141.032 96.9177 139.832 99.1071 139.389C99.9994 139.223 100.917 139.25 101.798 139.469C102.679 139.688 103.502 140.093 104.212 140.657C104.922 141.221 105.503 141.93 105.914 142.738C106.326 143.545 106.558 144.431 106.597 145.335C106.732 149.861 104.429 152.904 100.744 155.224C98.2346 156.791 95.72 156.672 93.1188 155.586L92.3275 155.245V164.404C91.0106 163.128 89.8563 162.03 88.74 160.895C88.5882 160.738 88.6153 160.354 88.6153 160.1C88.6153 153.011 88.6153 145.927 88.6153 138.848V137.842C87.9 137.842 87.2388 137.799 86.5885 137.842C86.3525 137.872 86.1133 137.824 85.9076 137.705C85.702 137.585 85.5413 137.402 85.4505 137.183C84.9573 136.301 84.3937 135.464 83.8572 134.609V134.307H178.467C178.58 132.167 178.374 130.022 177.855 127.943C177.659 127.504 177.439 127.076 177.194 126.662C177.085 126.389 177.059 126.09 177.118 125.802C178.822 126.357 180.248 127.544 181.101 129.117C181.952 130.738 182.136 132.452 182.185 134.307H185.133C186.412 134.307 187.696 134.307 188.975 134.307C189.093 134.307 189.21 134.332 189.318 134.379C189.426 134.427 189.524 134.496 189.604 134.582C190.254 135.647 190.834 136.691 191.495 137.831ZM102.57 148.774C103.026 147.655 103.146 146.429 102.917 145.244C102.83 144.826 102.66 144.43 102.417 144.079C102.175 143.728 101.865 143.429 101.505 143.199C101.145 142.969 100.743 142.812 100.322 142.739C99.9009 142.666 99.4694 142.678 99.0529 142.773C97.1561 143.259 95.6441 144.47 94.0075 145.476C92.7231 146.265 91.8398 147.152 92.3004 148.531C92.3004 151.066 92.3004 151.066 93.3355 152.315C94.9613 154.278 97.3241 154.602 99.4214 153.126C100.891 152.029 101.989 150.511 102.57 148.774Z" fill="#157E42"/>
<path d="M133.021 128.403L130.669 130.83L130.42 130.625L128.144 128.565L130.804 125.965C131.482 126.716 132.268 127.592 133.021 128.403Z" fill="#157E42"/>
<path d="M102.917 145.233C103.146 146.418 103.026 147.645 102.57 148.763C101.985 150.49 100.886 151.998 99.4214 153.088C97.3242 154.564 94.9776 154.24 93.3356 152.277C92.3005 151.034 92.3005 151.034 92.3005 148.493C91.829 147.114 92.7232 146.227 94.0076 145.438C95.6333 144.443 97.1562 143.232 99.0529 142.735C99.4714 142.64 99.9047 142.63 100.327 142.705C100.75 142.779 101.153 142.938 101.513 143.171C101.873 143.403 102.183 143.706 102.424 144.06C102.665 144.414 102.833 144.813 102.917 145.233Z" fill="white"/>
<path d="M321.32 146.801C320.755 146.811 320.191 146.865 319.634 146.963C319.278 147.03 318.947 147.194 318.677 147.435C318.407 147.677 318.208 147.987 318.101 148.333C317.995 148.679 317.985 149.047 318.073 149.398C318.16 149.749 318.342 150.07 318.599 150.325C319.181 150.929 319.906 151.375 320.707 151.623C322.568 152.156 324.552 152.078 326.365 151.401C326.553 151.334 326.734 151.251 326.907 151.153C328.273 150.401 328.386 149.32 327.124 148.395C326.391 147.889 325.608 147.458 324.788 147.109C323.103 146.346 321.385 145.622 320.209 144.124C319.67 143.507 319.297 142.763 319.125 141.962C318.778 139.659 320.892 138.091 323.39 138.686C323.683 138.756 323.975 138.848 324.317 138.945V137.291H309.05C309.05 138.129 309.05 138.983 309.05 139.837C309.05 140.01 309.316 140.189 309.479 140.34C311.766 142.465 311.646 145.087 309.105 146.871C306.971 148.408 304.404 149.23 301.772 149.217C300.819 149.217 300.472 148.914 300.206 147.952C300.97 147.714 301.734 147.455 302.515 147.238C304.129 146.83 305.642 146.094 306.959 145.076C307.501 144.638 307.967 144.135 307.831 143.4C307.759 143.056 307.577 142.744 307.312 142.512C307.047 142.28 306.714 142.14 306.362 142.113C302.818 141.437 299.859 143.735 299.317 146.238C299.149 146.86 299.138 147.513 299.286 148.14C299.433 148.766 299.735 149.347 300.163 149.828C302.455 152.342 306.52 153.423 309.544 149.336L311.711 151.304C309.987 153.035 307.654 154.028 305.208 154.072C303.574 154.16 301.949 153.77 300.533 152.951C299.118 152.132 297.972 150.919 297.236 149.46C295.031 144.881 297.778 139.853 302.948 139.118C303.875 138.983 304.823 138.994 305.826 138.934V137.312H291.118V141.394C289.969 141.394 288.885 141.394 287.796 141.394C286.32 141.372 284.887 141.887 283.764 142.843C282.138 144.173 281.179 145.86 281.596 148.012C282.014 150.163 283.704 151.201 285.628 151.796C286.597 152.114 287.641 152.122 288.614 151.817C289.587 151.513 290.44 150.912 291.053 150.098C291.226 149.882 291.394 149.66 291.595 149.385C291.974 149.72 292.337 150.028 292.679 150.347C293.02 150.666 293.378 151.007 293.763 151.369C292.501 152.684 290.865 153.581 289.075 153.937C285.596 154.623 282.528 153.861 280.225 151.039C277.207 147.336 278.058 140.372 284.913 139.426C285.888 139.291 286.886 139.324 287.926 139.275V137.339H274.692V154.023C274.286 153.656 274.026 153.445 273.793 153.212C272.942 152.364 271.782 151.645 271.343 150.623C270.904 149.601 271.218 148.309 271.218 147.136C271.218 144.168 271.218 141.189 271.218 138.232V137.339H266.764C265.956 139.962 265.214 142.605 264.33 145.206C263.707 147.038 262.943 148.822 262.163 150.612C261.658 151.77 260.831 152.759 259.778 153.461C258.245 154.488 256.911 154.207 256.218 152.515C254.559 148.46 253.004 144.362 251.422 140.275C251.097 139.443 250.853 138.583 250.522 137.756C250.471 137.646 250.396 137.549 250.302 137.472C250.208 137.396 250.098 137.341 249.98 137.312C245.932 137.312 241.884 137.312 237.781 137.312V143.8C238.865 142.881 239.835 142.016 240.843 141.173C241.743 140.416 242.615 139.616 243.58 138.956C244.664 138.221 245.206 138.291 246.057 139.27C246.907 140.248 247.59 141.308 248.322 142.351C248.37 142.44 248.395 142.539 248.395 142.64C248.395 142.741 248.37 142.841 248.322 142.93C247.606 143.757 246.848 144.551 246.111 145.341C245.52 144.67 245 144.049 244.442 143.465C244.216 143.196 243.898 143.022 243.55 142.976C243.202 142.93 242.849 143.015 242.561 143.216C241.13 144.011 239.7 144.8 238.258 145.568C238.075 145.652 237.924 145.793 237.827 145.969C237.729 146.145 237.691 146.347 237.716 146.546C237.716 148.979 237.716 151.412 237.716 154.056C237.031 153.321 236.308 152.622 235.549 151.964C234.541 151.18 234.259 150.244 234.291 148.99C234.378 145.411 234.324 141.827 234.324 138.242V137.361H228.265C228.265 138.167 228.233 138.983 228.265 139.783C228.265 140.01 228.552 140.243 228.747 140.426C229.197 140.787 229.569 141.235 229.84 141.744C230.111 142.252 230.276 142.81 230.324 143.384C230.347 144.054 230.194 144.719 229.882 145.313C229.569 145.908 229.107 146.411 228.541 146.773C226.37 148.386 223.737 149.262 221.03 149.271C220.028 149.271 219.659 148.947 219.475 147.99C220.385 147.709 221.301 147.411 222.228 147.141C223.684 146.734 225.043 146.037 226.222 145.092C226.764 144.654 227.219 144.141 227.051 143.395C226.966 143.069 226.783 142.777 226.528 142.558C226.272 142.339 225.956 142.203 225.62 142.167C222.13 141.47 219.085 143.714 218.575 146.33C218.417 146.94 218.411 147.579 218.558 148.191C218.704 148.804 218.999 149.371 219.415 149.844C221.897 152.585 225.918 153.185 228.536 149.715L228.812 149.374L230.98 151.342C229.832 152.565 228.343 153.416 226.704 153.785C223.106 154.623 219.892 153.964 217.491 151.001C213.752 146.39 216.305 140.032 222.195 139.161C223.122 139.026 224.076 139.037 225.089 138.978V137.356H209.135V141.448C208.219 141.248 207.39 141.021 206.55 140.908C205.996 140.834 205.434 140.852 204.886 140.962C203.905 141.173 203.607 141.827 204.014 142.751C204.562 143.923 205.528 144.85 206.723 145.352C207.948 145.93 209.216 146.433 210.436 146.974C211.154 147.306 211.839 147.708 212.479 148.174C213.454 148.904 213.611 149.666 213.194 150.812C212.549 152.569 211.086 153.364 209.465 153.969C209.265 154.045 209.054 154.104 208.685 154.223L210.696 155.37L208.75 157.532C207.503 156.931 206.395 156.077 205.499 155.024C205.238 154.743 204.894 154.554 204.518 154.483C202.269 154.153 200.101 153.607 198.237 152.223C197.088 151.369 196.21 150.298 196.069 148.833C195.814 146.13 197.657 144.546 200.334 145.011C201.094 145.138 201.812 145.445 202.429 145.904C203.047 146.364 203.545 146.964 203.884 147.655C204.512 148.795 205.146 149.931 205.748 151.082C205.806 151.244 205.9 151.39 206.022 151.511C206.144 151.632 206.292 151.725 206.454 151.782C206.617 151.839 206.79 151.859 206.961 151.841C207.132 151.823 207.297 151.767 207.444 151.677C207.944 151.488 208.426 151.257 208.886 150.985C209.801 150.347 209.894 149.477 209.064 148.731C208.451 148.205 207.776 147.757 207.054 147.395C205.927 146.795 204.74 146.314 203.629 145.681C202.539 145.091 201.65 144.189 201.076 143.092C199.993 141.005 201.174 138.805 203.521 138.632C204.343 138.638 205.164 138.706 205.975 138.837V137.253H205.13C202.128 137.253 199.131 137.253 196.129 137.253C195.894 137.278 195.657 137.227 195.455 137.106C195.252 136.985 195.095 136.801 195.007 136.583C194.562 135.696 194.048 134.847 193.5 133.879H194.422C214.625 133.879 234.83 133.879 255.036 133.879C255.295 133.85 255.557 133.908 255.779 134.043C256.002 134.178 256.173 134.383 256.267 134.626C256.695 135.491 257.199 136.312 257.73 137.258H254.12C254.662 138.794 255.172 140.232 255.697 141.659C256.565 144.032 257.421 146.406 258.326 148.758C258.83 150.061 259.41 150.158 260.385 149.141C260.744 148.783 261.052 148.377 261.301 147.936C263.03 144.589 264.054 140.983 265.257 137.296C264.13 137.296 263.089 137.296 262.06 137.296C261.887 137.32 261.711 137.286 261.559 137.2C261.407 137.114 261.288 136.981 261.22 136.82C260.705 135.858 260.163 134.961 259.567 133.879H260.418C284.338 133.879 308.261 133.879 332.185 133.879C332.419 133.85 332.656 133.897 332.861 134.015C333.065 134.132 333.226 134.312 333.318 134.528C333.757 135.415 334.283 136.264 334.83 137.231H327.487V141.448C326.647 141.226 325.797 141.045 324.94 140.908C324.309 140.839 323.671 140.879 323.054 141.027C322.893 141.053 322.741 141.117 322.609 141.214C322.478 141.311 322.372 141.437 322.3 141.583C322.228 141.729 322.192 141.89 322.195 142.053C322.198 142.216 322.24 142.375 322.317 142.519C322.557 143.14 322.921 143.706 323.387 144.183C323.852 144.659 324.41 145.037 325.027 145.292C326.268 145.887 327.557 146.373 328.82 146.974C329.496 147.269 330.14 147.631 330.744 148.055C331.871 148.893 332.034 149.72 331.465 151.007C331.138 151.705 330.659 152.322 330.063 152.812C329.466 153.302 328.768 153.653 328.018 153.84C326.15 154.449 324.168 154.625 322.222 154.353C320.275 154.081 318.417 153.369 316.789 152.272C315.938 151.801 315.261 151.069 314.858 150.186C314.455 149.302 314.348 148.312 314.551 147.363C314.876 145.86 315.635 145.26 317.206 145.265C318.717 145.274 320.175 145.818 321.32 146.801ZM203.38 152.045C202.464 150.358 201.841 148.655 200.047 147.887C199.782 148.181 199.629 148.558 199.613 148.953C199.597 149.348 199.72 149.736 199.96 150.05C200.326 150.633 200.829 151.119 201.424 151.466C202.02 151.813 202.691 152.012 203.38 152.045Z" fill="#FD642A"/>
<path d="M273.11 126.197L275.305 128.484L272.996 130.738L270.731 128.576L273.11 126.197Z" fill="#FD642A"/>
<path d="M226.959 97.084C226.963 97.0085 226.951 96.9329 226.924 96.8623C226.896 96.7917 226.855 96.7275 226.801 96.674C226.747 96.6205 226.683 96.5788 226.612 96.5517C226.541 96.5245 226.466 96.5125 226.39 96.5164H226.021C226.108 96.4693 226.18 96.3996 226.229 96.3148C226.279 96.23 226.304 96.1334 226.303 96.0352C226.307 95.9596 226.295 95.8841 226.268 95.8135C226.241 95.7428 226.199 95.6787 226.145 95.6252C226.092 95.5717 226.027 95.53 225.956 95.5028C225.886 95.4757 225.81 95.4637 225.734 95.4675H225.328C225.429 95.426 225.516 95.3546 225.576 95.2629C225.636 95.1712 225.666 95.0634 225.664 94.9539C225.667 94.8304 225.628 94.7094 225.553 94.6111C225.479 94.5127 225.372 94.4429 225.252 94.4133C225.348 94.1882 225.397 93.946 225.397 93.7013C225.396 93.4566 225.346 93.2146 225.25 92.9897C225.153 92.7649 225.012 92.562 224.834 92.3931C224.656 92.2243 224.447 92.0931 224.217 92.0075H223.225C223.001 92.0999 222.797 92.2354 222.626 92.4064C222.455 92.5774 222.319 92.7805 222.226 93.004C222.133 93.2275 222.086 93.467 222.086 93.7088C222.086 93.9507 222.135 94.1901 222.228 94.4133C222.107 94.4419 221.999 94.5112 221.923 94.6097C221.847 94.7081 221.807 94.8297 221.811 94.9539C221.808 95.0634 221.839 95.1712 221.899 95.2629C221.959 95.3546 222.045 95.426 222.147 95.4675H221.74C221.662 95.4596 221.583 95.4686 221.509 95.494C221.435 95.5193 221.368 95.5604 221.311 95.6143C221.254 95.6683 221.21 95.7338 221.181 95.8065C221.152 95.8792 221.14 95.9572 221.144 96.0352C221.143 96.1334 221.168 96.23 221.218 96.3148C221.268 96.3996 221.339 96.4693 221.426 96.5164H221.079C221.005 96.5163 220.933 96.5311 220.865 96.56C220.798 96.5888 220.737 96.6311 220.686 96.6842C220.635 96.7373 220.596 96.8001 220.57 96.8688C220.545 96.9376 220.533 97.0108 220.537 97.084C220.536 97.1754 220.559 97.2655 220.602 97.3458C220.646 97.4262 220.709 97.4942 220.786 97.5436C218.98 100.293 217.844 103.425 217.47 106.691H230.042C229.668 103.425 228.532 100.293 226.726 97.5436C226.8 97.4923 226.86 97.4235 226.901 97.3433C226.941 97.263 226.961 97.1739 226.959 97.084Z" fill="#FD642A"/>
<path d="M252.197 132.663C251.425 124.771 249.178 117.094 245.574 110.027C245.821 109.894 246.021 109.691 246.15 109.443C246.279 109.196 246.33 108.915 246.297 108.638C246.264 108.361 246.147 108.1 245.963 107.89C245.779 107.679 245.536 107.529 245.265 107.459V106.918C245.536 106.848 245.731 106.702 245.731 106.529C245.731 106.356 245.526 106.205 245.238 106.14L245.141 102.988C245.141 102.93 245.118 102.875 245.077 102.835C245.037 102.794 244.981 102.772 244.924 102.772C244.866 102.772 244.811 102.794 244.771 102.835C244.73 102.875 244.707 102.93 244.707 102.988L244.61 106.14C244.322 106.205 244.122 106.356 244.122 106.529C244.122 106.702 244.312 106.848 244.588 106.918V107.459C244.317 107.528 244.073 107.678 243.888 107.888C243.704 108.098 243.587 108.359 243.553 108.636C243.519 108.913 243.57 109.194 243.698 109.442C243.827 109.69 244.027 109.894 244.274 110.027C241.101 116.245 238.963 122.937 237.944 129.841V124.808H237.51C235.885 121.564 232.882 108.713 229.923 107.318H217.546C214.598 108.713 211.584 121.553 209.959 124.808H209.531V129.83C208.527 122.934 206.41 116.246 203.26 110.027C203.507 109.894 203.707 109.69 203.836 109.442C203.964 109.194 204.015 108.913 203.981 108.636C203.947 108.359 203.83 108.098 203.646 107.888C203.461 107.678 203.217 107.528 202.946 107.459V106.918C203.223 106.848 203.412 106.702 203.412 106.529C203.412 106.356 203.212 106.205 202.924 106.14L202.827 102.988C202.824 102.933 202.801 102.881 202.762 102.842C202.723 102.803 202.671 102.78 202.616 102.777C202.587 102.776 202.559 102.781 202.532 102.791C202.506 102.801 202.481 102.817 202.461 102.836C202.44 102.856 202.423 102.879 202.412 102.905C202.4 102.931 202.394 102.959 202.393 102.988L202.296 106.14C202.009 106.205 201.803 106.356 201.803 106.529C201.803 106.702 201.998 106.848 202.269 106.918V107.459C201.998 107.529 201.755 107.679 201.571 107.89C201.387 108.1 201.27 108.361 201.237 108.638C201.204 108.915 201.255 109.196 201.384 109.443C201.513 109.691 201.713 109.894 201.96 110.027C198.356 117.094 196.11 124.771 195.337 132.663H194.893V134.15H252.755V132.663H252.197Z" fill="#FD642A"/>
<path d="M223.989 84.0602H223.669V92.1535H223.989V84.0602Z" fill="#01529C"/>
<path d="M224.168 83.7953C224.168 83.8842 224.133 83.9695 224.07 84.0323C224.007 84.0952 223.921 84.1305 223.832 84.1305C223.743 84.1305 223.658 84.0952 223.595 84.0323C223.532 83.9695 223.496 83.8842 223.496 83.7953C223.496 83.6115 223.832 83.4601 223.832 83.4601C223.832 83.4601 224.168 83.6007 224.168 83.7953Z" fill="#DAD9ED"/>
<path d="M232.709 89.2341C232.393 88.8755 232.005 88.5864 231.571 88.3853C231.082 88.3247 230.612 88.1587 230.194 87.8987C229.808 87.6252 229.396 87.3898 228.964 87.1959C229.435 87.0934 229.891 86.9355 230.324 86.7256C230.807 86.4552 231.04 85.9579 231.479 85.7794C231.742 85.6758 232.024 85.6262 232.308 85.6335C231.866 85.3489 231.342 85.2195 230.818 85.2658C230.041 85.3912 229.244 85.2742 228.536 84.9307C227.991 84.6036 227.354 84.4613 226.721 84.5252C226.171 84.5809 225.616 84.5163 225.095 84.336C224.608 84.2147 224.106 84.1601 223.604 84.1738V89.4287C223.692 89.4271 223.78 89.438 223.865 89.4611C224.649 89.6488 225.453 89.7396 226.26 89.7315C227.029 89.6504 228.14 89.3476 228.753 89.3638C229.365 89.3801 230.379 89.8126 231.343 89.5044C231.907 89.3218 232.511 89.3068 233.083 89.4611C233.083 89.4611 232.817 89.3152 232.709 89.2341Z" fill="#01529C"/>
<path d="M221.794 124.5C221.794 124.5 221.762 124.105 222.038 124.17C224.748 124.786 225.626 118.926 229.311 118.877C231.88 118.839 233.587 121.423 233.495 124.17C233.321 129.3 230.216 130.387 229.083 130.387C225.62 130.387 225.398 126.516 226.227 125.343C226.417 126.662 227.571 128.279 228.97 128.279C230.883 128.279 232.004 126.375 232.059 124.494C232.118 122.288 230.801 121.137 229.349 121.029C226.851 120.834 226.515 125.04 223.529 125.04C222.087 125.04 222.575 126.267 222.472 125.581C222.461 125.451 221.751 124.57 221.794 124.5Z" fill="white"/>
<path d="M215.595 118.877C216.343 117.358 218.136 116.439 220.12 116.439C221.204 116.439 223.545 117.114 223.545 119.623C223.537 120.437 223.252 121.224 222.737 121.856C222.222 122.487 221.508 122.925 220.71 123.099C222.905 124.089 224.639 125.5 224.504 128.679C224.406 129.726 223.915 130.698 223.129 131.4C222.343 132.101 221.321 132.481 220.266 132.463C214.489 132.463 212.679 126.43 213.806 123.078C213.936 125.083 215.4 129.679 219.914 129.679C221.513 129.679 222.39 128.63 222.374 127.386C222.342 124.386 218.478 124.008 218.548 123.099C218.651 121.84 221.892 121.829 221.892 120.212C221.892 118.904 220.808 118.59 220.006 118.59C218.803 118.59 217.806 119.672 217.036 120.212C215.866 121.045 215.058 119.964 215.595 118.877Z" fill="white"/>
<path d="M221.952 111.762C220.927 112.93 221.756 116.32 225.387 117.131C228.097 117.736 230.763 116.709 230.763 115.163C230.776 114.992 230.753 114.82 230.696 114.658C230.638 114.496 230.548 114.348 230.43 114.223C230.313 114.098 230.17 113.999 230.012 113.932C229.854 113.865 229.683 113.831 229.511 113.833C228.428 113.833 228.818 115.32 226.157 115.32C225.145 115.328 224.164 114.973 223.392 114.32C222.62 113.667 222.109 112.76 221.952 111.762Z" fill="white"/>
<path d="M227.571 112.633C227.571 112.933 227.482 113.227 227.315 113.477C227.147 113.726 226.909 113.921 226.631 114.036C226.353 114.151 226.047 114.181 225.751 114.123C225.456 114.064 225.185 113.919 224.972 113.707C224.759 113.494 224.614 113.224 224.555 112.929C224.496 112.634 224.526 112.329 224.642 112.051C224.757 111.774 224.952 111.536 225.202 111.369C225.453 111.203 225.747 111.113 226.048 111.113C226.452 111.113 226.84 111.274 227.125 111.558C227.411 111.843 227.571 112.23 227.571 112.633Z" fill="white"/>
</g>
</g>
<defs>
<filter id="filter0_d_1350_1001" x="-10.9717" y="0.573669" width="450.944" height="941.735" filterUnits="userSpaceOnUse" color-interpolation-filters="sRGB">
<feFlood flood-opacity="0" result="BackgroundImageFix"/>
<feColorMatrix in="SourceAlpha" type="matrix" values="0 0 0 0 0 0 0 0 0 0 0 0 0 0 0 0 0 0 127 0" result="hardAlpha"/>
<feOffset dy="4"/>
<feGaussianBlur stdDeviation="10"/>
<feComposite in2="hardAlpha" operator="out"/>
<feColorMatrix type="matrix" values="0 0 0 0 0 0 0 0 0 0 0 0 0 0 0 0 0 0 0.25 0"/>
<feBlend mode="normal" in2="BackgroundImageFix" result="effect1_dropShadow_1350_1001"/>
<feBlend mode="normal" in="SourceGraphic" in2="effect1_dropShadow_1350_1001" result="shape"/>
</filter>
<clipPath id="clip0_1350_1001">
<rect width="251" height="81" fill="white" transform="translate(83.8354 83.4453)"/>
</clipPath>
</defs>
</svg>
