<svg width="161" height="161" viewBox="0 0 161 161" fill="none" xmlns="http://www.w3.org/2000/svg">
<path d="M80.5 161C59.157 160.978 38.6945 152.489 23.6027 137.397C8.51094 122.305 0.0224946 101.843 0 80.5C0.0242214 59.1575 8.51323 38.6961 23.6047 23.6047C38.6961 8.51322 59.1575 0.0242214 80.5 0C101.842 0.0259477 122.302 8.5155 137.393 23.6066C152.484 38.6976 160.974 59.158 161 80.5C160.976 101.843 152.487 122.304 137.395 137.395C122.304 152.487 101.842 160.976 80.5 161ZM80.5 5.92229C60.7265 5.94305 41.7688 13.8068 27.7862 27.7881C13.8036 41.7695 5.93825 60.7265 5.91575 80.5C5.93825 100.274 13.8034 119.232 27.7858 133.214C41.7682 147.197 60.7259 155.062 80.5 155.084C100.273 155.06 119.229 147.194 133.21 133.212C147.191 119.23 155.055 100.273 155.078 80.5C155.055 60.7277 147.191 41.7716 133.21 27.7904C119.228 13.8093 100.272 5.94478 80.5 5.92229Z" fill="#00803A"/>
<path d="M80.4999 149.62C62.1741 149.601 44.6043 142.312 31.646 129.354C18.6877 116.396 11.3994 98.8258 11.3804 80.5C11.4011 62.1747 18.69 44.606 31.6479 31.6481C44.6059 18.6901 62.1746 11.4013 80.4999 11.3805C98.824 11.403 116.391 18.6926 129.348 31.6504C142.304 44.6081 149.592 62.1759 149.613 80.5C149.594 98.8247 142.306 116.393 129.35 129.352C116.393 142.31 98.8245 149.599 80.4999 149.62ZM80.4999 13.9167C62.8483 13.941 45.9267 20.9637 33.4452 33.4453C20.9636 45.9268 13.9408 62.8485 13.9166 80.5C13.9408 98.1516 20.9636 115.073 33.4452 127.555C45.9267 140.036 62.8483 147.059 80.4999 147.083C98.1503 147.057 115.07 140.034 127.55 127.552C140.031 115.071 147.052 98.1504 147.077 80.5C147.052 62.8496 140.031 45.9289 127.55 33.4476C115.07 20.9662 98.1503 13.9427 80.4999 13.9167Z" fill="#00803A"/>
<path d="M104.764 28.6506L73.2376 60.1773L61.7002 48.6399L49.9668 60.3734L73.2376 83.6442L116.498 40.384L104.764 28.6506Z" fill="#00803A"/>
<path d="M122.734 119.897H36.9849V122.054H122.734V119.897Z" fill="#00803A"/>
<path d="M49.202 94.1814V95.1096C49.202 97.7831 48.3849 99.4565 46.5873 100.339V100.411C48.7575 101.215 49.6138 103.176 49.6138 105.921V108.039C49.6138 112.053 47.4959 114.203 43.4104 114.203H36.9783V88.2003H43.149C47.3848 88.2003 49.202 90.1678 49.202 94.1814ZM41.0703 91.9131V98.7898H42.6652C44.1883 98.7898 45.1165 98.1361 45.1165 96.0378V94.5867C45.1165 92.7302 44.4628 91.9131 43.0378 91.9131H41.0703ZM41.0703 102.503V110.491H43.4104C44.7831 110.491 45.5283 109.837 45.5283 107.928V105.66C45.5283 103.248 44.7439 102.503 42.9136 102.503H41.0703Z" fill="#00803A"/>
<path d="M51.7317 94.4363C51.7317 90.279 53.9215 87.8996 57.9351 87.8996C61.9486 87.8996 64.1384 90.279 64.1384 94.4363V107.961C64.1384 112.125 61.9486 114.498 57.9351 114.498C53.9215 114.498 51.7317 112.118 51.7317 107.961V94.4363ZM55.8171 108.222C55.8171 110.079 56.6342 110.785 57.9351 110.785C59.2359 110.785 60.053 110.079 60.053 108.222V94.1814C60.053 92.3184 59.2359 91.619 57.9351 91.619C56.6342 91.619 55.8171 92.3184 55.8171 94.1814V108.222Z" fill="#00803A"/>
<path d="M66.4395 94.4363C66.4395 90.279 68.6358 87.8996 72.6428 87.8996C76.6498 87.8996 78.8527 90.279 78.8527 94.4363V107.961C78.8527 112.125 76.6564 114.498 72.6428 114.498C68.6293 114.498 66.4395 112.118 66.4395 107.961V94.4363ZM70.5315 108.222C70.5315 110.079 71.3485 110.785 72.6428 110.785C73.9371 110.785 74.7673 110.079 74.7673 108.222V94.1814C74.7673 92.3184 73.9436 91.619 72.6428 91.619C71.342 91.619 70.5315 92.3184 70.5315 94.1814V108.222Z" fill="#00803A"/>
<path d="M86.8407 103.83L85.5726 106.209V114.203H81.5198V88.2003H85.6052V99.4565H85.6837L90.9588 88.2003H95.0443L89.3573 99.7899L95.0443 114.203H90.815L86.8407 103.83Z" fill="#00803A"/>
<path d="M100.953 99.1558H106.568V102.875H100.953V110.491H108.013V114.203H96.9006V88.2003H108.013V91.9131H100.953V99.1558Z" fill="#00803A"/>
<path d="M110.543 88.2003H117.008C121.093 88.2003 123.1 90.462 123.1 94.6259V107.752C123.1 111.916 121.093 114.177 117.008 114.177H110.543V88.2003ZM114.628 91.9131V110.491H116.929C118.237 110.491 119.015 109.837 119.015 107.961V94.4363C119.015 92.5799 118.23 91.9131 116.929 91.9131H114.628Z" fill="#00803A"/>
</svg>
