<svg width="51" height="51" viewBox="0 0 51 51" fill="none" xmlns="http://www.w3.org/2000/svg">
<g filter="url(#filter0_d_213_1021)">
<circle cx="25.9739" cy="24.7701" r="20" fill="white"/>
<circle cx="25.9739" cy="24.7701" r="21.5" stroke="#FD642A" stroke-width="3"/>
</g>
<path d="M28.0761 17.8209C28.0778 17.7874 28.0725 17.754 28.0605 17.7228C28.0484 17.6915 28.0299 17.6632 28.0062 17.6395C27.9825 17.6158 27.954 17.5974 27.9227 17.5854C27.8914 17.5734 27.8579 17.5681 27.8244 17.5698H27.6614C27.6996 17.5489 27.7314 17.5181 27.7534 17.4806C27.7753 17.4431 27.7866 17.4004 27.7861 17.357C27.7878 17.3235 27.7825 17.2901 27.7704 17.2589C27.7584 17.2276 27.7399 17.1993 27.7162 17.1756C27.6925 17.1519 27.664 17.1335 27.6327 17.1215C27.6014 17.1095 27.5679 17.1041 27.5344 17.1059H27.3546C27.3995 17.0875 27.4378 17.0559 27.4643 17.0153C27.4909 16.9748 27.5044 16.9271 27.5032 16.8787C27.5048 16.8241 27.4876 16.7705 27.4545 16.727C27.4213 16.6835 27.3742 16.6527 27.321 16.6396C27.3635 16.54 27.3853 16.4329 27.3852 16.3246C27.385 16.2164 27.3629 16.1093 27.3201 16.0099C27.2773 15.9104 27.2148 15.8207 27.1362 15.746C27.0577 15.6713 26.9648 15.6133 26.8632 15.5754H26.4246C26.3255 15.6163 26.2354 15.6763 26.1596 15.7519C26.0837 15.8275 26.0236 15.9173 25.9827 16.0162C25.9417 16.115 25.9207 16.221 25.9208 16.328C25.921 16.4349 25.9423 16.5408 25.9835 16.6396C25.9299 16.6522 25.8822 16.6829 25.8486 16.7264C25.815 16.77 25.7975 16.8237 25.7989 16.8787C25.7977 16.9271 25.8113 16.9748 25.8378 17.0153C25.8644 17.0559 25.9026 17.0875 25.9475 17.1059H25.7678C25.7333 17.1024 25.6985 17.1063 25.6657 17.1176C25.6329 17.1288 25.603 17.1469 25.5779 17.1708C25.5529 17.1946 25.5333 17.2236 25.5205 17.2558C25.5078 17.2879 25.5022 17.3224 25.5041 17.357C25.5035 17.4004 25.5149 17.4431 25.5368 17.4806C25.5588 17.5181 25.5905 17.5489 25.6287 17.5698H25.4753C25.4428 17.5697 25.4106 17.5763 25.3807 17.5891C25.3509 17.6018 25.3239 17.6205 25.3014 17.644C25.279 17.6675 25.2616 17.6953 25.2503 17.7257C25.239 17.7561 25.234 17.7885 25.2356 17.8209C25.2353 17.8613 25.2452 17.9011 25.2645 17.9367C25.2838 17.9722 25.3118 18.0023 25.3459 18.0241C24.547 19.2401 24.0446 20.6257 23.8789 22.0702H29.44C29.2744 20.6257 28.7719 19.2401 27.973 18.0241C28.0058 18.0015 28.0324 17.971 28.0504 17.9355C28.0684 17.9 28.0772 17.8606 28.0761 17.8209Z" fill="#FD642A"/>
<path d="M39.2393 33.558C38.8977 30.0674 37.9042 26.6715 36.3101 23.5457C36.4191 23.4871 36.5079 23.3972 36.5649 23.2876C36.6219 23.1781 36.6445 23.0539 36.6298 22.9313C36.615 22.8087 36.5636 22.6934 36.4822 22.6003C36.4008 22.5073 36.2932 22.4409 36.1735 22.4098V22.1707C36.2933 22.1396 36.3796 22.075 36.3796 21.9985C36.3796 21.922 36.2885 21.855 36.1615 21.8263L36.1183 20.4322C36.1183 20.4068 36.1082 20.3825 36.0902 20.3646C36.0723 20.3466 36.0479 20.3365 36.0224 20.3365C35.997 20.3365 35.9726 20.3466 35.9547 20.3646C35.9367 20.3825 35.9266 20.4068 35.9266 20.4322L35.8834 21.8263C35.7564 21.855 35.6677 21.922 35.6677 21.9985C35.6677 22.075 35.7516 22.1396 35.8738 22.1707V22.4098C35.7539 22.4406 35.6461 22.5068 35.5644 22.5997C35.4828 22.6925 35.4311 22.8078 35.4161 22.9304C35.401 23.0531 35.4234 23.1774 35.4803 23.2871C35.5371 23.3968 35.6258 23.487 35.7348 23.5457C34.3313 26.2962 33.3857 29.2562 32.9351 32.3097V30.0834H32.7433C32.0242 28.6487 30.6963 22.9646 29.3875 22.3476H23.9126C22.6087 22.9646 21.2759 28.6439 20.5568 30.0834H20.3674V32.305C19.9237 29.2548 18.9871 26.2967 17.5941 23.5457C17.703 23.487 17.7917 23.3968 17.8486 23.2871C17.9055 23.1774 17.9278 23.0531 17.9128 22.9304C17.8978 22.8078 17.8461 22.6925 17.7645 22.5997C17.6828 22.5068 17.575 22.4406 17.4551 22.4098V22.1707C17.5773 22.1396 17.6612 22.075 17.6612 21.9985C17.6612 21.922 17.5725 21.855 17.4455 21.8263L17.4023 20.4322C17.4012 20.4078 17.3909 20.3848 17.3736 20.3675C17.3564 20.3503 17.3333 20.3401 17.3088 20.3389C17.2962 20.3386 17.2837 20.3408 17.272 20.3453C17.2602 20.3498 17.2495 20.3566 17.2403 20.3653C17.2312 20.3739 17.2239 20.3843 17.2188 20.3958C17.2137 20.4073 17.2109 20.4196 17.2106 20.4322L17.1674 21.8263C17.0404 21.855 16.9493 21.922 16.9493 21.9985C16.9493 22.075 17.0356 22.1396 17.1554 22.1707V22.4098C17.0357 22.4409 16.9281 22.5073 16.8467 22.6003C16.7653 22.6934 16.7139 22.8087 16.6991 22.9313C16.6844 23.0539 16.707 23.1781 16.764 23.2876C16.821 23.3972 16.9098 23.4871 17.0188 23.5457C15.4246 26.6715 14.4311 30.0674 14.0896 33.558H13.8931V34.2156H39.4862V33.558H39.2393Z" fill="#FD642A"/>
<path d="M26.7625 12.0602H26.6211V15.64H26.7625V12.0602Z" fill="#01529C"/>
<path d="M30.6193 14.3487C30.4794 14.1901 30.308 14.0622 30.1159 13.9733C29.8997 13.9465 29.692 13.873 29.5071 13.7581C29.3362 13.6371 29.154 13.533 28.9629 13.4472C29.171 13.4019 29.373 13.332 29.5646 13.2392C29.7779 13.1196 29.881 12.8996 30.0752 12.8207C30.1918 12.7748 30.3166 12.7529 30.4419 12.7561C30.2465 12.6302 30.0145 12.573 29.7827 12.5935C29.4391 12.649 29.0866 12.5972 28.7736 12.4452C28.5323 12.3006 28.2506 12.2377 27.9706 12.2659C27.7276 12.2905 27.4822 12.262 27.2515 12.1822C27.036 12.1286 26.8143 12.1044 26.5923 12.1105V14.4348C26.6311 14.4341 26.6699 14.4389 26.7073 14.4491C27.0543 14.5322 27.4101 14.5723 27.7668 14.5687C28.1072 14.5328 28.5986 14.3989 28.8695 14.4061C29.1403 14.4133 29.5886 14.6046 30.0152 14.4683C30.2644 14.3875 30.5318 14.3809 30.7847 14.4491C30.7847 14.4491 30.6672 14.3846 30.6193 14.3487Z" fill="#01529C"/>
<defs>
<filter id="filter0_d_213_1021" x="0.973877" y="0.770081" width="50" height="50" filterUnits="userSpaceOnUse" color-interpolation-filters="sRGB">
<feFlood flood-opacity="0" result="BackgroundImageFix"/>
<feColorMatrix in="SourceAlpha" type="matrix" values="0 0 0 0 0 0 0 0 0 0 0 0 0 0 0 0 0 0 127 0" result="hardAlpha"/>
<feOffset dy="1"/>
<feGaussianBlur stdDeviation="1"/>
<feComposite in2="hardAlpha" operator="out"/>
<feColorMatrix type="matrix" values="0 0 0 0 0 0 0 0 0 0 0 0 0 0 0 0 0 0 0.25 0"/>
<feBlend mode="normal" in2="BackgroundImageFix" result="effect1_dropShadow_213_1021"/>
<feBlend mode="normal" in="SourceGraphic" in2="effect1_dropShadow_213_1021" result="shape"/>
</filter>
</defs>
</svg>
