<svg width="60" height="165" viewBox="0 0 60 165" fill="none" xmlns="http://www.w3.org/2000/svg">
<mask id="mask0_147_4117" style="mask-type:alpha" maskUnits="userSpaceOnUse" x="0" y="0" width="60" height="165">
<rect x="0.658691" y="0.985809" width="58.8134" height="163.204" fill="#C4C4C4"/>
</mask>
<g mask="url(#mask0_147_4117)">
<path d="M28.7653 157.795C31.0017 157.795 32.8147 155.986 32.8147 153.754C32.8147 151.522 31.0017 149.712 28.7653 149.712C26.5288 149.712 24.7158 151.522 24.7158 153.754C24.7158 155.986 26.5288 157.795 28.7653 157.795Z" fill="url(#paint0_radial_147_4117)"/>
<path d="M29.7425 150.227C30.6629 150.506 31.4384 151.131 31.9051 151.971C32.3719 152.81 32.4932 153.798 32.2436 154.725C31.9939 155.653 31.3927 156.446 30.5672 156.939C29.7417 157.432 28.7564 157.585 27.8198 157.366" fill="url(#paint1_linear_147_4117)"/>
<path d="M28.733 107.216C28.049 107.223 27.3822 107.432 26.817 107.816C26.2518 108.201 25.8135 108.744 25.5577 109.377C25.3018 110.01 25.2398 110.705 25.3795 111.373C25.5193 112.042 25.8544 112.654 26.3425 113.132C26.8307 113.61 27.45 113.933 28.1222 114.06C28.7943 114.187 29.489 114.112 30.1186 113.845C30.7481 113.578 31.2841 113.131 31.6588 112.559C32.0336 111.988 32.2302 111.319 32.2239 110.636C32.2125 109.722 31.839 108.849 31.185 108.208C30.5309 107.567 29.6494 107.211 28.733 107.216ZM28.733 112.577C28.3544 112.581 27.983 112.473 27.6661 112.266C27.3491 112.06 27.1007 111.764 26.9524 111.416C26.8041 111.068 26.7625 110.685 26.8329 110.313C26.9034 109.942 27.0827 109.6 27.3482 109.331C27.6136 109.061 27.9532 108.877 28.3239 108.8C28.6947 108.723 29.0799 108.758 29.4307 108.9C29.7814 109.043 30.0821 109.286 30.2944 109.598C30.5067 109.911 30.6212 110.28 30.6234 110.658C30.6238 111.154 30.4316 111.631 30.0871 111.989C29.7426 112.347 29.2727 112.557 28.7759 112.577H28.733Z" fill="url(#paint2_linear_147_4117)"/>
<g style="mix-blend-mode:multiply">
<path style="mix-blend-mode:multiply" d="M30.3229 113.434C29.9936 113.63 29.6283 113.757 29.2488 113.81C28.4794 113.938 27.6898 113.773 27.0361 113.349C26.3841 112.919 25.9108 112.267 25.7042 111.515C25.6054 111.138 25.5763 110.746 25.6182 110.358C25.6669 109.984 25.7795 109.621 25.9512 109.286C26.3027 108.602 26.8971 108.073 27.6182 107.804C28.3392 107.534 29.1351 107.543 29.8503 107.828C30.5292 108.103 31.0755 108.629 31.3755 109.296C30.9852 108.723 30.4084 108.303 29.7429 108.106C29.4261 108.013 29.095 107.976 28.7654 107.999C28.4381 108.016 28.1172 108.097 27.8202 108.235C27.2298 108.5 26.751 108.963 26.4668 109.543C26.1918 110.118 26.1309 110.771 26.2949 111.387C26.4528 112.009 26.8353 112.551 27.369 112.909C27.9049 113.272 28.5501 113.439 29.1951 113.381C29.8395 113.295 30.6451 113.241 30.3229 113.434Z" fill="url(#paint3_linear_147_4117)"/>
</g>
<g style="mix-blend-mode:multiply">
<path style="mix-blend-mode:multiply" d="M31.1173 108.696C31.6464 109.262 31.9484 110.002 31.9659 110.776C31.9729 111.563 31.6901 112.326 31.171 112.92C30.916 113.211 30.6104 113.455 30.2688 113.638C29.9343 113.814 29.5701 113.926 29.1947 113.97C28.4213 114.067 28.4857 113.499 29.1195 113.413C29.7531 113.322 30.3327 113.006 30.7521 112.523C31.1769 112.043 31.4167 111.427 31.4288 110.786C31.4073 110.143 30.8595 108.417 31.1173 108.696Z" fill="url(#paint4_linear_147_4117)"/>
</g>
<path d="M25.6826 110.004C25.7371 109.671 25.8537 109.351 26.0263 109.06C26.1963 108.766 26.4183 108.504 26.6815 108.289C26.7401 108.227 26.8092 108.176 26.8856 108.138C26.9466 108.082 27.0153 108.035 27.0897 107.999L27.3153 107.87L27.5516 107.785L27.6697 107.731H27.7879L28.0349 107.667L28.5291 107.581C28.3679 107.581 28.2068 107.645 28.0457 107.699L27.7986 107.763H27.6805L27.5731 107.817L27.3367 107.913L27.122 108.031L26.9179 108.171L26.7138 108.321C26.4573 108.532 26.2392 108.786 26.0693 109.071C26.0201 109.139 25.9769 109.21 25.9404 109.286L25.833 109.511C25.7661 109.669 25.7157 109.835 25.6826 110.004Z" fill="url(#paint5_linear_147_4117)"/>
<path d="M46.2198 143.773C42.1166 137.705 41.5151 130.909 40.9673 126.406C39.485 114.067 31.6547 113.134 28.4646 113.156C25.8115 113.156 17.4656 114.228 16.1766 126.61C15.704 131.123 15.2099 137.92 11.2142 144.062C10.3978 145.317 8.20658 147.729 8.21732 149.208C8.21732 151.813 17.4548 153.839 28.7976 153.754C40.1403 153.668 49.3133 151.449 49.3133 148.876C49.3133 147.386 47.0576 145.017 46.2198 143.773Z" fill="url(#paint6_linear_147_4117)"/>
<path style="mix-blend-mode:multiply" d="M20.3119 142.229C20.3119 145.113 17.8415 153.186 15.5536 152.725C13.3461 152.368 11.2079 151.67 9.21622 150.655C8.9292 150.524 8.68357 150.316 8.50569 150.056C8.32781 149.795 8.2244 149.491 8.20654 149.176C8.20654 147.686 10.3548 145.327 11.1926 144.095C15.1991 137.952 15.6932 131.155 16.1551 126.642C17.444 114.281 25.8222 113.209 28.443 113.188C28.4645 113.188 20.0971 120.617 20.3119 142.229Z" fill="url(#paint7_linear_147_4117)"/>
<path style="mix-blend-mode:multiply" d="M49.3131 148.844C48.3842 148.397 47.61 147.684 47.0896 146.796C44.2647 143.505 41.9338 139.806 41.2571 136.387C37.4655 117.326 31.7726 113.938 27.938 113.552C28.2817 113.306 28.475 113.188 28.475 113.188C31.6974 113.188 39.4956 114.099 40.9886 126.438C41.5257 130.941 42.1379 137.737 46.2411 143.805C47.0359 145.017 49.2164 147.354 49.3131 148.844Z" fill="url(#paint8_linear_147_4117)"/>
<g opacity="0.75">
<path style="mix-blend-mode:screen" opacity="0.75" d="M13.8673 144.138C14.1573 143.719 14.4688 143.323 14.7266 142.969C14.9844 142.615 15.3174 142.186 15.5 141.897C19.1198 136.333 19.7428 130.201 20.1939 125.731C20.1939 125.473 20.1939 125.216 20.2691 124.969C21.5581 112.652 29.3561 113.177 29.3561 113.177C27.2079 114.957 24.0714 115.804 24.2433 126.578C24.2433 126.835 24.2433 127.092 24.2433 127.349C24.3185 131.82 24.4259 137.93 21.6976 144.095L21.4291 144.706L17.3045 153.035C14.6284 152.703 12.0155 151.98 9.54932 150.891L12.1165 146.496L13.8673 144.138Z" fill="url(#paint9_linear_147_4117)"/>
<g style="mix-blend-mode:overlay" opacity="0.75">
<path d="M22.9759 126.599C23.0511 130.887 22.9115 138.574 20.1295 144.824C19.6032 145.896 15.9512 152.81 15.9512 152.81C14.3063 152.479 12.6845 152.042 11.0961 151.502C10.4839 151.213 13.6955 147.161 14.5011 145.735C15.0275 144.813 16.08 143.108 16.456 142.519C20.4517 136.376 20.6129 129.526 21.4185 125.066C22.9975 116.265 25.5431 113.531 28.9373 113.102C29.2166 113.177 22.8041 114.849 22.9759 126.599Z" fill="#FFFECF"/>
</g>
</g>
<g style="mix-blend-mode:multiply" opacity="0.75">
<path d="M45.0167 143.945C44.7159 143.537 44.4151 143.141 44.1359 142.787C43.8566 142.433 43.5451 142.026 43.3518 141.715C39.6461 136.215 38.9157 130.105 38.3893 125.634C38.3893 125.377 38.3249 125.12 38.3034 124.873C36.8104 112.577 29.0122 113.209 29.0122 113.209C31.1605 114.957 34.3828 115.75 34.3828 126.524V127.296C34.3828 131.766 34.3828 137.888 37.2078 143.998L40.022 152.907L41.9661 152.553C41.9661 152.553 44.4689 151.803 46.4882 151.299L49.0017 149.701L45.0167 143.945Z" fill="#FFD876"/>
</g>
<g style="mix-blend-mode:screen" opacity="0.23">
<path d="M35.5859 126.513C35.5859 130.801 35.4463 138.949 41.3647 152.649C42.6988 152.404 44.0184 152.085 45.3175 151.695C46.2203 151.404 47.0999 151.046 47.9491 150.623C47.3261 149.776 42.7611 143.001 42.3744 142.433C38.2712 136.354 38.0028 129.568 37.122 125.055C35.3926 116.286 32.8255 113.595 29.3775 113.263C29.1305 113.198 35.5752 114.764 35.5859 126.513Z" fill="#FEFFC7"/>
</g>
<path d="M17.6479 120.563C24.8849 121.575 32.2314 121.521 39.4526 120.403C39.6543 120.624 39.8104 120.882 39.9118 121.164C40.0131 121.445 40.0578 121.744 40.0433 122.043C36.255 122.671 32.4226 122.997 28.5825 123.018C24.7193 123.062 20.8585 122.804 17.0356 122.246C17.0878 121.641 17.299 121.061 17.6479 120.563Z" fill="url(#paint10_linear_147_4117)"/>
<path d="M17.6479 120.563C18.6254 120.724 18.7221 120.724 19.721 120.821C20.7199 120.917 21.6866 121.003 22.6641 121.067C24.6261 121.196 26.5918 121.249 28.561 121.228C30.5267 121.228 32.4923 121.132 34.4472 120.971C35.4282 120.899 36.4057 120.803 37.3796 120.681C38.357 120.563 38.4537 120.574 39.4526 120.403C38.4859 120.595 38.3785 120.596 37.3903 120.735C36.4021 120.874 35.4354 120.981 34.4579 121.067C32.4923 121.239 30.5267 121.324 28.561 121.346C26.5954 121.367 24.619 121.346 22.6533 121.164C21.6795 121.092 20.702 120.996 19.721 120.874C18.7435 120.756 18.6147 120.746 17.6479 120.563Z" fill="url(#paint11_linear_147_4117)"/>
<path d="M17.0894 122.246C18.0131 122.397 19.2376 122.536 20.2258 122.632C21.214 122.729 22.084 122.793 23.0185 122.847C24.8768 122.954 26.7457 122.975 28.6147 122.965C30.4836 122.954 32.3526 122.89 34.2109 122.761C35.1454 122.697 36.0798 122.611 37.0036 122.493C37.9273 122.375 39.1518 122.204 40.097 122.043C39.184 122.225 37.9488 122.429 37.0143 122.557C36.0798 122.686 35.1561 122.772 34.2216 122.847C32.3527 122.997 30.4836 123.061 28.6147 123.083C26.7457 123.104 24.8768 123.083 23.0078 122.943C22.0733 122.879 21.1388 122.793 20.215 122.686C19.2913 122.579 17.9594 122.418 17.0894 122.246Z" fill="url(#paint12_linear_147_4117)"/>
<path d="M13.5557 139.871C23.5274 142.073 33.8703 141.985 43.803 139.614C44.1402 139.929 44.379 140.335 44.4904 140.782C42.3422 141.8 34.4151 142.926 28.7115 143.012C23.0079 143.098 14.748 142.197 12.8145 141.254C12.7931 140.493 13.3838 140.235 13.5557 139.871Z" fill="url(#paint13_linear_147_4117)"/>
<path d="M13.5556 139.453C23.5258 141.666 33.8702 141.582 43.8029 139.206C44.1195 139.689 44.3519 140.222 44.4903 140.782C39.3225 142.036 34.0295 142.705 28.7115 142.776C23.3725 142.854 18.0411 142.344 12.8145 141.254C12.9124 140.603 13.1667 139.985 13.5556 139.453Z" fill="url(#paint14_linear_147_4117)"/>
<path d="M13.5557 139.453C14.7841 139.776 16.028 140.037 17.2828 140.235C18.5396 140.428 19.807 140.589 21.0638 140.696C26.1302 141.125 31.2256 141.082 36.2841 140.568C37.5408 140.439 38.8083 140.267 40.0543 140.042C41.3076 139.832 42.5484 139.553 43.7707 139.206C42.5519 139.567 41.3149 139.864 40.065 140.096C38.819 140.332 37.5515 140.514 36.2948 140.653C33.7599 140.932 31.2249 141.071 28.6793 141.104C26.1336 141.136 23.588 141.018 21.0638 140.782C19.7963 140.653 18.5288 140.503 17.2828 140.289C16.0257 140.08 14.7814 139.801 13.5557 139.453Z" fill="url(#paint15_linear_147_4117)"/>
<path d="M8.31399 148.651C8.31399 148.651 11.0208 152.649 28.9264 152.435C28.9264 152.435 45.3819 152.178 49.0984 148.05C49.0984 148.05 51.1392 150.291 43.0403 152.092C38.348 153.109 33.5558 153.594 28.7545 153.539C28.7545 153.539 10.5696 153.539 8.34618 149.605C8.16357 149.305 8.15287 149.144 8.31399 148.651Z" fill="url(#paint16_linear_147_4117)"/>
<path d="M8.31393 148.651C8.31393 148.651 10.6985 152.939 28.9693 152.649C28.9693 152.649 45.3819 152.65 49.0983 148.05C49.0983 148.05 51.1714 150.505 43.0833 152.339C38.391 153.355 33.5988 153.841 28.7975 153.786C28.7975 153.786 10.6126 153.786 8.38913 149.851C8.2795 149.673 8.21532 149.47 8.20222 149.26C8.18911 149.051 8.22748 148.842 8.31393 148.651Z" fill="url(#paint17_linear_147_4117)"/>
<path d="M28.7332 95.6385H28.4861C27.8897 95.6413 27.3187 95.8798 26.898 96.3016C26.4774 96.7235 26.2412 97.2945 26.2412 97.8898V102.349C26.2412 102.945 26.4774 103.516 26.898 103.938C27.3187 104.359 27.8897 104.598 28.4861 104.601H28.7332C29.3296 104.598 29.9005 104.359 30.3212 103.938C30.7419 103.516 30.9781 102.945 30.9781 102.349V97.8469C30.9668 97.2591 30.7257 96.6991 30.3062 96.2864C29.8867 95.8737 29.3222 95.6412 28.7332 95.6385ZM27.7557 97.8898C27.7557 97.6964 27.8326 97.511 27.9696 97.3743C28.1066 97.2376 28.2924 97.1608 28.4861 97.1608H28.7332C28.9269 97.1608 29.1127 97.2376 29.2497 97.3743C29.3866 97.511 29.4636 97.6964 29.4636 97.8898V102.349C29.4636 102.543 29.3866 102.728 29.2497 102.865C29.1127 103.002 28.9269 103.078 28.7332 103.078H28.4861C28.2924 103.078 28.1066 103.002 27.9696 102.865C27.8326 102.728 27.7557 102.543 27.7557 102.349V97.8898Z" fill="url(#paint18_linear_147_4117)"/>
<g style="mix-blend-mode:multiply" opacity="0.75">
<path d="M29.4524 96.153C29.6698 96.4684 29.7859 96.8423 29.7854 97.2251V101.685C30.1613 103.679 28.3138 103.507 28.4857 103.464C28.2359 103.47 27.992 103.388 27.7959 103.234C27.5999 103.079 27.464 102.861 27.4116 102.617C27.0994 102.336 26.825 102.015 26.5952 101.663C26.5952 101.663 26.5952 102.392 26.5952 102.542C26.6148 102.86 26.7268 103.166 26.9175 103.421C27.0903 103.675 27.3225 103.883 27.5939 104.027C27.8653 104.17 28.1677 104.246 28.4749 104.247H28.7113C28.959 104.247 29.2043 104.198 29.4331 104.103C29.6618 104.008 29.8695 103.869 30.0442 103.694C30.2189 103.518 30.3572 103.31 30.451 103.081C30.5448 102.852 30.5924 102.607 30.591 102.36V97.8468C30.5865 97.4847 30.4764 97.1316 30.2742 96.8309C30.072 96.5301 29.7865 96.2945 29.4524 96.153Z" fill="#FFD876"/>
</g>
<g style="mix-blend-mode:screen" opacity="0.23">
<g style="mix-blend-mode:screen" opacity="0.75">
<g style="mix-blend-mode:screen" opacity="0.75">
<path d="M29.8713 96.3996C30.1065 96.7086 30.2381 97.0837 30.2472 97.4717V101.931C30.2472 102.429 30.0492 102.906 29.6967 103.258C29.3442 103.61 28.8661 103.807 28.3675 103.807H28.1313C27.7153 103.813 27.3098 103.677 26.9819 103.421C27.1559 103.656 27.3824 103.848 27.6435 103.98C27.9046 104.112 28.1929 104.181 28.4857 104.183H28.7328C29.2323 104.18 29.7104 103.98 30.0626 103.626C30.4148 103.273 30.6125 102.794 30.6125 102.296V97.8469C30.6063 97.5655 30.5365 97.2891 30.4081 97.0385C30.2798 96.7878 30.0963 96.5694 29.8713 96.3996Z" fill="#FEFFC7"/>
</g>
</g>
</g>
<g style="mix-blend-mode:overlay">
<path d="M27.24 97.1072C26.982 97.8517 26.8548 98.635 26.864 99.4228C26.6811 98.6159 26.7409 97.7731 27.0359 97C27.1745 96.7344 27.3901 96.5167 27.6545 96.3752C27.9189 96.2337 28.2199 96.1749 28.5182 96.2067C28.2495 96.2467 27.9939 96.3491 27.772 96.5055C27.55 96.6618 27.3678 96.8679 27.24 97.1072Z" fill="#FFFECF"/>
</g>
<g style="mix-blend-mode:overlay">
<path d="M26.8531 99.9591C26.8827 99.9591 26.9068 99.8534 26.9068 99.7231C26.9068 99.5928 26.8827 99.4871 26.8531 99.4871C26.8234 99.4871 26.7993 99.5928 26.7993 99.7231C26.7993 99.8534 26.8234 99.9591 26.8531 99.9591Z" fill="#FFFECF"/>
</g>
<path d="M29.4847 103.132C29.4847 102.647 29.0904 102.253 28.6039 102.253C28.1175 102.253 27.7231 102.647 27.7231 103.132V108.782C27.7231 109.267 28.1175 109.661 28.6039 109.661C29.0904 109.661 29.4847 109.267 29.4847 108.782V103.132Z" fill="url(#paint19_linear_147_4117)"/>
<g style="mix-blend-mode:multiply" opacity="0.75">
<path d="M28.9047 102.617V108.385C28.9073 108.508 28.8668 108.627 28.7903 108.723C28.7138 108.819 28.6061 108.885 28.4858 108.91C28.3991 108.931 28.3078 108.918 28.2301 108.874C28.1525 108.83 28.0942 108.759 28.0669 108.674V109.296H29.141V102.617H28.9047Z" fill="#FFD876"/>
</g>
<g style="mix-blend-mode:overlay">
<path d="M28.2495 107.602C28.291 107.602 28.3247 106.503 28.3247 105.147C28.3247 103.792 28.291 102.693 28.2495 102.693C28.208 102.693 28.1743 103.792 28.1743 105.147C28.1743 106.503 28.208 107.602 28.2495 107.602Z" fill="#FFFECF"/>
</g>
<path d="M28.7332 83.9962H28.4861C27.8897 83.999 27.3187 84.2374 26.898 84.6593C26.4774 85.0812 26.2412 85.6522 26.2412 86.2474V90.7071C26.2412 91.3023 26.4774 91.8733 26.898 92.2952C27.3187 92.7171 27.8897 92.9556 28.4861 92.9584H28.7332C29.3296 92.9556 29.9005 92.7171 30.3212 92.2952C30.7419 91.8733 30.9781 91.3023 30.9781 90.7071V86.2474C30.9781 85.6522 30.7419 85.0812 30.3212 84.6593C29.9005 84.2374 29.3296 83.999 28.7332 83.9962ZM27.7557 86.2474C27.7557 86.0541 27.8326 85.8687 27.9696 85.732C28.1066 85.5953 28.2924 85.5184 28.4861 85.5184H28.7332C28.9269 85.5184 29.1127 85.5953 29.2497 85.732C29.3866 85.8687 29.4636 86.0541 29.4636 86.2474V90.7071C29.4636 90.9015 29.387 91.088 29.2503 91.2264C29.1136 91.3648 28.9279 91.444 28.7332 91.4468H28.4861C28.2914 91.444 28.1056 91.3648 27.969 91.2264C27.8323 91.088 27.7557 90.9015 27.7557 90.7071V86.2474Z" fill="url(#paint20_linear_147_4117)"/>
<g style="mix-blend-mode:multiply" opacity="0.75">
<path d="M29.4524 84.5107C29.6698 84.8261 29.7859 85.2 29.7854 85.5828V90.0425C30.1613 92.0365 28.3138 91.8649 28.4857 91.8221C28.2359 91.8276 27.992 91.7461 27.7959 91.5915C27.5999 91.4369 27.464 91.219 27.4116 90.9751C27.0994 90.6935 26.825 90.3728 26.5952 90.021C26.5952 90.021 26.5952 90.75 26.5952 90.9001C26.6129 91.2185 26.7251 91.5245 26.9175 91.7792C27.0903 92.0327 27.3225 92.2404 27.5939 92.3843C27.8653 92.5281 28.1677 92.6037 28.4749 92.6046H28.7113C28.959 92.6046 29.2043 92.5558 29.4331 92.4608C29.6618 92.3659 29.8695 92.2267 30.0442 92.0514C30.2189 91.876 30.3572 91.6679 30.451 91.4391C30.5448 91.2102 30.5924 90.9651 30.591 90.7179V86.2582C30.597 85.8869 30.4919 85.5222 30.2891 85.2109C30.0862 84.8996 29.7949 84.6558 29.4524 84.5107Z" fill="#FFD876"/>
</g>
<g style="mix-blend-mode:screen" opacity="0.23">
<g style="mix-blend-mode:screen" opacity="0.75">
<g style="mix-blend-mode:screen" opacity="0.75">
<path d="M29.8713 84.7573C30.1175 85.0809 30.2496 85.4766 30.2472 85.8829V90.3426C30.2472 90.8402 30.0492 91.3174 29.6967 91.6692C29.3442 92.021 28.8661 92.2187 28.3675 92.2187H28.1313C27.7153 92.2244 27.3098 92.0883 26.9819 91.8327C27.1559 92.0677 27.3824 92.2589 27.6435 92.391C27.9046 92.5232 28.1929 92.5926 28.4857 92.5939H28.7328C29.2323 92.5911 29.7104 92.391 30.0626 92.0375C30.4148 91.6839 30.6125 91.2056 30.6125 90.7071V86.2474C30.6129 85.9587 30.5462 85.6739 30.4176 85.4153C30.289 85.1567 30.102 84.9315 29.8713 84.7573Z" fill="#FEFFC7"/>
</g>
</g>
</g>
<g style="mix-blend-mode:overlay">
<path d="M27.2399 85.4649C26.9811 86.2129 26.8539 86.9999 26.8639 87.7912C26.684 86.9805 26.7437 86.1351 27.0358 85.3577C27.1745 85.0921 27.39 84.8744 27.6544 84.7329C27.9188 84.5914 28.2198 84.5326 28.5181 84.5644C28.2494 84.6044 27.9938 84.7068 27.7719 84.8631C27.5499 85.0195 27.3678 85.2256 27.2399 85.4649Z" fill="#FFFECF"/>
</g>
<g style="mix-blend-mode:overlay">
<path d="M26.8531 88.3167C26.8827 88.3167 26.9068 88.2111 26.9068 88.0808C26.9068 87.9504 26.8827 87.8448 26.8531 87.8448C26.8234 87.8448 26.7993 87.9504 26.7993 88.0808C26.7993 88.2111 26.8234 88.3167 26.8531 88.3167Z" fill="#FFFECF"/>
</g>
<path d="M29.4847 91.4897C29.4847 91.0042 29.0904 90.6107 28.6039 90.6107C28.1175 90.6107 27.7231 91.0042 27.7231 91.4897V97.1394C27.7231 97.6249 28.1175 98.0184 28.6039 98.0184C29.0904 98.0184 29.4847 97.6249 29.4847 97.1394V91.4897Z" fill="url(#paint21_linear_147_4117)"/>
<g style="mix-blend-mode:multiply" opacity="0.75">
<path d="M28.9047 90.9751V96.7748C28.9073 96.8974 28.8668 97.017 28.7903 97.113C28.7138 97.2089 28.6061 97.2751 28.4858 97.3001C28.3991 97.3206 28.3078 97.3077 28.2301 97.264C28.1525 97.2203 28.0942 97.149 28.0669 97.0643V97.6861H29.141V91.0073L28.9047 90.9751Z" fill="#FFD876"/>
</g>
<g style="mix-blend-mode:overlay">
<path d="M28.2495 95.9601C28.291 95.9601 28.3247 94.861 28.3247 93.5052C28.3247 92.1493 28.291 91.0502 28.2495 91.0502C28.208 91.0502 28.1743 92.1493 28.1743 93.5052C28.1743 94.861 28.208 95.9601 28.2495 95.9601Z" fill="#FFFECF"/>
</g>
<path d="M28.7332 72.3538H28.4861C27.8897 72.3566 27.3187 72.5951 26.898 73.0169C26.4774 73.4388 26.2412 74.0099 26.2412 74.6051V79.0755C26.244 79.6688 26.4815 80.2371 26.9019 80.6567C27.3222 81.0763 27.8916 81.3132 28.4861 81.316H28.7332C29.3277 81.3132 29.897 81.0763 30.3174 80.6567C30.7378 80.2371 30.9752 79.6688 30.9781 79.0755V74.6051C30.9781 74.0099 30.7419 73.4388 30.3212 73.0169C29.9005 72.5951 29.3296 72.3566 28.7332 72.3538ZM27.7557 74.6051C27.7557 74.4117 27.8326 74.2263 27.9696 74.0896C28.1066 73.9529 28.2924 73.8761 28.4861 73.8761H28.7332C28.8291 73.8761 28.924 73.8949 29.0127 73.9316C29.1013 73.9682 29.1818 74.0219 29.2497 74.0896C29.3175 74.1573 29.3713 74.2376 29.408 74.3261C29.4447 74.4145 29.4636 74.5093 29.4636 74.6051V79.0755C29.4608 79.268 29.383 79.4518 29.2466 79.5879C29.1102 79.724 28.926 79.8017 28.7332 79.8045H28.4861C28.2932 79.8017 28.1091 79.724 27.9727 79.5879C27.8363 79.4518 27.7585 79.268 27.7557 79.0755V74.6051Z" fill="url(#paint22_linear_147_4117)"/>
<g style="mix-blend-mode:multiply" opacity="0.75">
<path d="M29.4524 72.8684C29.6698 73.1838 29.7859 73.5577 29.7854 73.9404V78.4001C30.1613 80.3941 28.3138 80.2333 28.4857 80.1797C28.2359 80.1853 27.992 80.1037 27.7959 79.9492C27.5999 79.7946 27.464 79.5766 27.4116 79.3328C27.0966 79.054 26.8218 78.7329 26.5952 78.3787C26.5952 78.3787 26.5952 79.1077 26.5952 79.2578C26.6129 79.5762 26.7251 79.8822 26.9175 80.1368C27.0903 80.3904 27.3225 80.5981 27.5939 80.7419C27.8653 80.8858 28.1677 80.9614 28.4749 80.9623H28.7113C29.2098 80.9623 29.6879 80.7647 30.0404 80.4128C30.3929 80.061 30.591 79.5838 30.591 79.0862V74.6158C30.597 74.2445 30.4919 73.8799 30.2891 73.5686C30.0862 73.2573 29.7949 73.0135 29.4524 72.8684Z" fill="#FFD876"/>
</g>
<g style="mix-blend-mode:screen" opacity="0.23">
<g style="mix-blend-mode:screen" opacity="0.75">
<g style="mix-blend-mode:screen" opacity="0.75">
<path d="M29.8713 73.115C30.1034 73.4256 30.2345 73.7997 30.2472 74.187V78.6467C30.2487 78.8939 30.2011 79.1391 30.1073 79.3679C30.0134 79.5968 29.8752 79.8049 29.7005 79.9802C29.5258 80.1555 29.3181 80.2947 29.0893 80.3896C28.8606 80.4846 28.6153 80.5335 28.3675 80.5335H28.1313C27.7141 80.5353 27.3088 80.3954 26.9819 80.1368C27.1559 80.3718 27.3824 80.563 27.6435 80.6951C27.9046 80.8273 28.1929 80.8967 28.4857 80.898H28.7328C29.2304 80.8951 29.7069 80.6966 30.0588 80.3454C30.4107 79.9941 30.6097 79.5186 30.6125 79.0219V74.5515C30.604 74.2721 30.533 73.9981 30.4048 73.7495C30.2766 73.501 30.0943 73.2842 29.8713 73.115Z" fill="#FEFFC7"/>
</g>
</g>
</g>
<g style="mix-blend-mode:overlay">
<path d="M27.2399 73.8225C26.9811 74.5705 26.8539 75.3575 26.8639 76.1488C26.684 75.3381 26.7437 74.4927 27.0358 73.7153C27.1767 73.4516 27.3927 73.2356 27.6565 73.0944C27.9203 72.9532 28.2202 72.8932 28.5181 72.9219C28.2494 72.962 27.9938 73.0644 27.7719 73.2207C27.5499 73.3771 27.3678 73.5832 27.2399 73.8225Z" fill="#FFFECF"/>
</g>
<g style="mix-blend-mode:overlay">
<path d="M26.8531 76.6744C26.8827 76.6744 26.9068 76.5687 26.9068 76.4384C26.9068 76.3081 26.8827 76.2024 26.8531 76.2024C26.8234 76.2024 26.7993 76.3081 26.7993 76.4384C26.7993 76.5687 26.8234 76.6744 26.8531 76.6744Z" fill="#FFFECF"/>
</g>
<path d="M29.4847 79.8473C29.4847 79.3618 29.0904 78.9683 28.6039 78.9683C28.1175 78.9683 27.7231 79.3618 27.7231 79.8473V85.497C27.7231 85.9825 28.1175 86.3761 28.6039 86.3761C29.0904 86.3761 29.4847 85.9825 29.4847 85.497V79.8473Z" fill="url(#paint23_linear_147_4117)"/>
<g style="mix-blend-mode:multiply" opacity="0.75">
<path d="M28.9047 79.3328V85.1004C28.9058 85.2238 28.865 85.3439 28.7889 85.4413C28.7128 85.5386 28.606 85.6074 28.4858 85.6364C28.398 85.6515 28.3078 85.635 28.2311 85.5898C28.1543 85.5447 28.0961 85.4738 28.0669 85.3898V86.0545H29.141V79.3757L28.9047 79.3328Z" fill="#FFD876"/>
</g>
<g style="mix-blend-mode:overlay">
<path d="M28.2495 84.3178C28.291 84.3178 28.3247 83.2187 28.3247 81.8628C28.3247 80.507 28.291 79.4078 28.2495 79.4078C28.208 79.4078 28.1743 80.507 28.1743 81.8628C28.1743 83.2187 28.208 84.3178 28.2495 84.3178Z" fill="#FFFECF"/>
</g>
<path d="M28.7332 60.7222H28.4861C27.8916 60.725 27.3222 60.9619 26.9019 61.3815C26.4815 61.8011 26.244 62.3694 26.2412 62.9627V67.4331C26.244 68.0265 26.4815 68.5948 26.9019 69.0143C27.3222 69.4339 27.8916 69.6709 28.4861 69.6737H28.7332C29.3277 69.6709 29.897 69.4339 30.3174 69.0143C30.7378 68.5948 30.9752 68.0265 30.9781 67.4331V62.9627C30.9752 62.3694 30.7378 61.8011 30.3174 61.3815C29.897 60.9619 29.3277 60.725 28.7332 60.7222ZM27.7557 62.9627C27.7585 62.7703 27.8363 62.5864 27.9727 62.4503C28.1091 62.3142 28.2932 62.2365 28.4861 62.2337H28.7332C28.926 62.2365 29.1102 62.3142 29.2466 62.4503C29.383 62.5864 29.4608 62.7703 29.4636 62.9627V67.4331C29.4608 67.6256 29.383 67.8094 29.2466 67.9455C29.1102 68.0817 28.926 68.1594 28.7332 68.1621H28.4861C28.2932 68.1594 28.1091 68.0817 27.9727 67.9455C27.8363 67.8094 27.7585 67.6256 27.7557 67.4331V62.9627Z" fill="url(#paint24_linear_147_4117)"/>
<g style="mix-blend-mode:multiply" opacity="0.75">
<path d="M29.4524 61.2261C29.668 61.5423 29.7839 61.9156 29.7854 62.2981V66.7578C30.1613 68.7625 28.3138 68.591 28.4857 68.5374C28.2374 68.5434 27.9947 68.4634 27.7988 68.311C27.603 68.1585 27.4661 67.943 27.4116 67.7012C27.0974 67.4175 26.8229 67.093 26.5952 66.7364C26.5952 66.7364 26.5952 67.4653 26.5952 67.6262C26.6137 67.9411 26.726 68.2435 26.9175 68.4945C27.0883 68.7501 27.32 68.9593 27.5918 69.1034C27.8637 69.2475 28.1671 69.3219 28.4749 69.32H28.7113C29.2098 69.32 29.6879 69.1223 30.0404 68.7705C30.3929 68.4187 30.591 67.9415 30.591 67.4439V62.9735C30.597 62.6022 30.4919 62.2376 30.2891 61.9263C30.0862 61.615 29.7949 61.3711 29.4524 61.2261Z" fill="#FFD876"/>
</g>
<g style="mix-blend-mode:screen" opacity="0.23">
<g style="mix-blend-mode:screen" opacity="0.75">
<g style="mix-blend-mode:screen" opacity="0.75">
<path d="M29.8713 61.4727C30.114 61.7981 30.2457 62.1926 30.2472 62.5983V67.058C30.2388 67.5499 30.037 68.0189 29.6854 68.3638C29.3338 68.7087 28.8605 68.902 28.3675 68.9019H28.1313C27.7141 68.9037 27.3088 68.7639 26.9819 68.5052C27.1559 68.7402 27.3824 68.9314 27.6435 69.0635C27.9046 69.1957 28.1929 69.2651 28.4857 69.2664H28.7328C29.2304 69.2636 29.7069 69.065 30.0588 68.7138C30.4107 68.3626 30.6097 67.887 30.6125 67.3903V62.9199C30.6041 62.6389 30.5332 62.3634 30.405 62.1131C30.2768 61.8628 30.0946 61.644 29.8713 61.4727Z" fill="#FEFFC7"/>
</g>
</g>
</g>
<g style="mix-blend-mode:overlay">
<path d="M27.2401 62.1801C26.9813 62.9281 26.854 63.7152 26.8641 64.5065C26.6818 63.6995 26.7416 62.8569 27.036 62.0837C27.1722 61.8161 27.3873 61.5966 27.6524 61.4548C27.9174 61.313 28.2196 61.2556 28.5183 61.2903C28.2486 61.3233 27.9912 61.4217 27.7684 61.5768C27.5456 61.7319 27.3642 61.939 27.2401 62.1801Z" fill="#FFFECF"/>
</g>
<g style="mix-blend-mode:overlay">
<path d="M26.8531 65.0321C26.8827 65.0321 26.9068 64.9264 26.9068 64.7961C26.9068 64.6657 26.8827 64.5601 26.8531 64.5601C26.8234 64.5601 26.7993 64.6657 26.7993 64.7961C26.7993 64.9264 26.8234 65.0321 26.8531 65.0321Z" fill="#FFFECF"/>
</g>
<path d="M29.4847 68.2157C29.4847 67.7302 29.0904 67.3367 28.6039 67.3367C28.1175 67.3367 27.7231 67.7302 27.7231 68.2157V73.8654C27.7231 74.3509 28.1175 74.7445 28.6039 74.7445C29.0904 74.7445 29.4847 74.3509 29.4847 73.8654V68.2157Z" fill="url(#paint25_linear_147_4117)"/>
<g style="mix-blend-mode:multiply" opacity="0.75">
<path d="M28.9047 67.7012V73.458C28.9078 73.5819 28.8677 73.7031 28.7913 73.8008C28.7149 73.8985 28.607 73.9668 28.4858 73.994C28.3994 74.0098 28.3102 73.9948 28.2337 73.9517C28.1572 73.9086 28.0981 73.8402 28.0669 73.7582V74.3693H29.141V67.7012H28.9047Z" fill="#FFD876"/>
</g>
<g style="mix-blend-mode:overlay">
<path d="M28.2495 72.6862C28.291 72.6862 28.3247 71.587 28.3247 70.2312C28.3247 68.8754 28.291 67.7762 28.2495 67.7762C28.208 67.7762 28.1743 68.8754 28.1743 70.2312C28.1743 71.587 28.208 72.6862 28.2495 72.6862Z" fill="#FFFECF"/>
</g>
<path d="M28.7332 49.0798H28.4861C27.8916 49.0827 27.3222 49.3196 26.9019 49.7392C26.4815 50.1588 26.244 50.727 26.2412 51.3204V55.7908C26.244 56.3842 26.4815 56.9524 26.9019 57.372C27.3222 57.7916 27.8916 58.0286 28.4861 58.0314H28.7332C29.3277 58.0286 29.897 57.7916 30.3174 57.372C30.7378 56.9524 30.9752 56.3842 30.9781 55.7908V51.3204C30.9752 50.727 30.7378 50.1588 30.3174 49.7392C29.897 49.3196 29.3277 49.0827 28.7332 49.0798ZM27.7557 51.3204C27.7585 51.1279 27.8363 50.9441 27.9727 50.808C28.1091 50.6719 28.2932 50.5942 28.4861 50.5914H28.7332C28.926 50.5942 29.1102 50.6719 29.2466 50.808C29.383 50.9441 29.4608 51.1279 29.4636 51.3204V55.7908C29.4608 55.9833 29.383 56.1671 29.2466 56.3032C29.1102 56.4393 28.926 56.517 28.7332 56.5198H28.4861C28.2932 56.517 28.1091 56.4393 27.9727 56.3032C27.8363 56.1671 27.7585 55.9833 27.7557 55.7908V51.3204Z" fill="url(#paint26_linear_147_4117)"/>
<g style="mix-blend-mode:multiply" opacity="0.75">
<path d="M29.4524 49.6052C29.6668 49.922 29.7826 50.2949 29.7854 50.6772V55.1476C30.1613 57.1416 28.3138 56.9701 28.4857 56.9165C28.2374 56.9225 27.9947 56.8425 27.7988 56.6901C27.603 56.5376 27.4661 56.3221 27.4116 56.0803C27.0974 55.7966 26.8229 55.4721 26.5952 55.1155C26.5952 55.1155 26.5952 55.8444 26.5952 56.0052C26.6148 56.3233 26.7268 56.6287 26.9175 56.8843C27.0909 57.1366 27.3234 57.3427 27.5949 57.4847C27.8663 57.6267 28.1684 57.7003 28.4749 57.6991H28.7113C29.2098 57.6991 29.6879 57.5014 30.0404 57.1496C30.3929 56.7977 30.591 56.3206 30.591 55.823V51.3204C30.5893 50.9549 30.4806 50.5978 30.2783 50.2931C30.0761 49.9884 29.789 49.7493 29.4524 49.6052Z" fill="#FFD876"/>
</g>
<g style="mix-blend-mode:screen" opacity="0.23">
<g style="mix-blend-mode:screen" opacity="0.75">
<g style="mix-blend-mode:screen" opacity="0.75">
<path d="M29.8713 49.841C30.1072 50.1496 30.2388 50.525 30.2472 50.9131V55.3835C30.2472 55.881 30.0492 56.3582 29.6967 56.7101C29.3442 57.0619 28.8661 57.2595 28.3675 57.2595H28.1313C27.7141 57.2614 27.3088 57.1215 26.9819 56.8629C27.1559 57.0979 27.3824 57.289 27.6435 57.4212C27.9046 57.5533 28.1929 57.6228 28.4857 57.624H28.7328C29.2313 57.624 29.7094 57.4264 30.0619 57.0745C30.4144 56.7227 30.6125 56.2455 30.6125 55.748V51.3205C30.6121 51.0334 30.5449 50.7504 30.4163 50.4937C30.2876 50.237 30.1011 50.0136 29.8713 49.841Z" fill="#FEFFC7"/>
</g>
</g>
</g>
<g style="mix-blend-mode:overlay">
<path d="M27.2401 50.5378C26.9819 51.286 26.8547 52.0729 26.8641 52.8641C26.6818 52.0572 26.7416 51.2146 27.036 50.4413C27.1722 50.1738 27.3873 49.9543 27.6524 49.8125C27.9174 49.6706 28.2196 49.6132 28.5183 49.648C28.2498 49.6845 27.9938 49.7842 27.7715 49.9389C27.5493 50.0936 27.3671 50.2989 27.2401 50.5378Z" fill="#FFFECF"/>
</g>
<g style="mix-blend-mode:overlay">
<path d="M26.8531 53.3897C26.8827 53.3897 26.9068 53.2841 26.9068 53.1537C26.9068 53.0234 26.8827 52.9177 26.8531 52.9177C26.8234 52.9177 26.7993 53.0234 26.7993 53.1537C26.7993 53.2841 26.8234 53.3897 26.8531 53.3897Z" fill="#FFFECF"/>
</g>
<path d="M29.4847 56.5734C29.4847 56.0879 29.0904 55.6943 28.6039 55.6943C28.1175 55.6943 27.7231 56.0879 27.7231 56.5734V62.223C27.7231 62.7085 28.1175 63.1021 28.6039 63.1021C29.0904 63.1021 29.4847 62.7085 29.4847 62.223V56.5734Z" fill="url(#paint27_linear_147_4117)"/>
<g style="mix-blend-mode:multiply" opacity="0.75">
<path d="M28.9047 56.0374V61.7942C28.9078 61.9181 28.8677 62.0392 28.7913 62.137C28.7149 62.2347 28.607 62.303 28.4858 62.3302C28.3994 62.346 28.3102 62.331 28.2337 62.2879C28.1572 62.2448 28.0981 62.1763 28.0669 62.0944V62.7054H29.141V56.0374H28.9047Z" fill="#FFD876"/>
</g>
<g style="mix-blend-mode:overlay">
<path d="M28.2495 61.0438C28.291 61.0438 28.3247 59.9447 28.3247 58.5889C28.3247 57.233 28.291 56.1339 28.2495 56.1339C28.208 56.1339 28.1743 57.233 28.1743 58.5889C28.1743 59.9447 28.208 61.0438 28.2495 61.0438Z" fill="#FFFECF"/>
</g>
<path d="M28.7332 37.4375H28.4861C27.8897 37.4403 27.3187 37.6788 26.898 38.1007C26.4774 38.5226 26.2412 39.0936 26.2412 39.6888V44.1485C26.2412 44.7437 26.4774 45.3147 26.898 45.7366C27.3187 46.1585 27.8897 46.3969 28.4861 46.3997H28.7332C29.3296 46.3969 29.9005 46.1585 30.3212 45.7366C30.7419 45.3147 30.9781 44.7437 30.9781 44.1485V39.6888C30.9781 39.0936 30.7419 38.5226 30.3212 38.1007C29.9005 37.6788 29.3296 37.4403 28.7332 37.4375ZM27.7557 39.6888C27.7557 39.4944 27.8323 39.3079 27.969 39.1695C28.1056 39.0311 28.2914 38.9519 28.4861 38.9491H28.7332C28.9279 38.9519 29.1136 39.0311 29.2503 39.1695C29.387 39.3079 29.4636 39.4944 29.4636 39.6888V44.1485C29.4636 44.3418 29.3866 44.5272 29.2497 44.6639C29.1127 44.8006 28.9269 44.8774 28.7332 44.8774H28.4861C28.2924 44.8774 28.1066 44.8006 27.9696 44.6639C27.8326 44.5272 27.7557 44.3418 27.7557 44.1485V39.6888Z" fill="url(#paint28_linear_147_4117)"/>
<g style="mix-blend-mode:multiply" opacity="0.75">
<path d="M29.4524 37.9521C29.6704 38.2671 29.7866 38.6412 29.7854 39.0241V43.4945C30.1613 45.4885 28.3138 45.317 28.4857 45.2634C28.2374 45.2694 27.9947 45.1894 27.7988 45.0369C27.603 44.8845 27.4661 44.669 27.4116 44.4272C27.0974 44.1434 26.8229 43.8189 26.5952 43.4623C26.5952 43.4623 26.5952 44.1913 26.5952 44.3521C26.6148 44.6702 26.7268 44.9756 26.9175 45.2312C27.0909 45.4834 27.3234 45.6895 27.5949 45.8316C27.8663 45.9736 28.1684 46.0472 28.4749 46.0459H28.7113C29.2098 46.0459 29.6879 45.8483 30.0404 45.4965C30.3929 45.1446 30.591 44.6674 30.591 44.1699V39.7102C30.6007 39.3368 30.4972 38.9692 30.294 38.6555C30.0908 38.3418 29.7975 38.0966 29.4524 37.9521Z" fill="#FFD876"/>
</g>
<g style="mix-blend-mode:screen" opacity="0.23">
<g style="mix-blend-mode:screen" opacity="0.75">
<g style="mix-blend-mode:screen" opacity="0.75">
<path d="M29.8713 38.1987C30.1072 38.5073 30.2388 38.8826 30.2472 39.2707V43.7411C30.2472 44.2387 30.0492 44.7159 29.6967 45.0677C29.3442 45.4195 28.8661 45.6172 28.3675 45.6172H28.1313C27.7162 45.6172 27.3126 45.4816 26.9819 45.2312C27.1582 45.463 27.3854 45.6512 27.6462 45.7814C27.9069 45.9115 28.1941 45.98 28.4857 45.9817H28.7328C29.2313 45.9817 29.7094 45.784 30.0619 45.4322C30.4144 45.0803 30.6125 44.6031 30.6125 44.1056V39.6459C30.6063 39.3645 30.5365 39.0881 30.4081 38.8375C30.2798 38.5869 30.0963 38.3685 29.8713 38.1987Z" fill="#FEFFC7"/>
</g>
</g>
</g>
<g style="mix-blend-mode:overlay">
<path d="M27.2401 38.8848C26.9814 39.6291 26.8542 40.4126 26.8641 41.2004C26.6818 40.3934 26.7416 39.5508 27.036 38.7776C27.1722 38.51 27.3873 38.2906 27.6524 38.1487C27.9174 38.0069 28.2196 37.9495 28.5183 37.9843C28.2496 38.0243 27.994 38.1267 27.772 38.283C27.55 38.4394 27.3679 38.6455 27.2401 38.8848Z" fill="#FFFECF"/>
</g>
<g style="mix-blend-mode:overlay">
<path d="M26.8531 41.7474C26.8827 41.7474 26.9068 41.6417 26.9068 41.5114C26.9068 41.381 26.8827 41.2754 26.8531 41.2754C26.8234 41.2754 26.7993 41.381 26.7993 41.5114C26.7993 41.6417 26.8234 41.7474 26.8531 41.7474Z" fill="#FFFECF"/>
</g>
<path d="M29.4847 44.931C29.4847 44.4455 29.0904 44.052 28.6039 44.052C28.1175 44.052 27.7231 44.4455 27.7231 44.931V50.5807C27.7231 51.0662 28.1175 51.4598 28.6039 51.4598C29.0904 51.4598 29.4847 51.0662 29.4847 50.5807V44.931Z" fill="url(#paint29_linear_147_4117)"/>
<g style="mix-blend-mode:multiply" opacity="0.75">
<path d="M28.9047 44.4165V50.1841C28.9073 50.3066 28.8668 50.4263 28.7903 50.5222C28.7138 50.6182 28.6061 50.6844 28.4858 50.7094C28.3992 50.7274 28.309 50.7134 28.232 50.67C28.1549 50.6266 28.0963 50.5568 28.0669 50.4735V51.0953H29.141V44.4165H28.9047Z" fill="#FFD876"/>
</g>
<g style="mix-blend-mode:overlay">
<path d="M28.2495 49.4015C28.291 49.4015 28.3247 48.3024 28.3247 46.9465C28.3247 45.5907 28.291 44.4916 28.2495 44.4916C28.208 44.4916 28.1743 45.5907 28.1743 46.9465C28.1743 48.3024 28.208 49.4015 28.2495 49.4015Z" fill="#FFFECF"/>
</g>
<path d="M28.7332 25.7952H28.4861C27.8897 25.798 27.3187 26.0365 26.898 26.4584C26.4774 26.8802 26.2412 27.4513 26.2412 28.0465V32.5062C26.2412 33.1014 26.4774 33.6724 26.898 34.0943C27.3187 34.5162 27.8897 34.7546 28.4861 34.7574H28.7332C29.3296 34.7546 29.9005 34.5162 30.3212 34.0943C30.7419 33.6724 30.9781 33.1014 30.9781 32.5062V28.0465C30.9781 27.4513 30.7419 26.8802 30.3212 26.4584C29.9005 26.0365 29.3296 25.798 28.7332 25.7952ZM27.7557 28.0465C27.7557 27.8531 27.8326 27.6677 27.9696 27.531C28.1066 27.3943 28.2924 27.3175 28.4861 27.3175H28.7332C28.9269 27.3175 29.1127 27.3943 29.2497 27.531C29.3866 27.6677 29.4636 27.8531 29.4636 28.0465V32.5062C29.4636 32.6995 29.3866 32.8849 29.2497 33.0216C29.1127 33.1583 28.9269 33.2351 28.7332 33.2351H28.4861C28.2924 33.2351 28.1066 33.1583 27.9696 33.0216C27.8326 32.8849 27.7557 32.6995 27.7557 32.5062V28.0465Z" fill="url(#paint30_linear_147_4117)"/>
<g style="mix-blend-mode:multiply" opacity="0.75">
<path d="M29.4524 26.3098C29.6704 26.6248 29.7866 26.9989 29.7854 27.3818V31.8522C30.1613 33.8462 28.3138 33.6747 28.4857 33.6318C28.2359 33.6373 27.992 33.5558 27.7959 33.4012C27.5999 33.2466 27.464 33.0287 27.4116 32.7849C27.0994 32.5032 26.825 32.1825 26.5952 31.8308C26.5952 31.8308 26.5952 32.5597 26.5952 32.7098C26.6148 33.0279 26.7268 33.3333 26.9175 33.5889C27.0909 33.8411 27.3234 34.0472 27.5949 34.1893C27.8663 34.3313 28.1684 34.4049 28.4749 34.4037H28.7113C29.2098 34.4037 29.6879 34.206 30.0404 33.8542C30.3929 33.5023 30.591 33.0251 30.591 32.5276V28.0679C30.5992 27.6948 30.4951 27.3278 30.2921 27.0144C30.0891 26.701 29.7966 26.4555 29.4524 26.3098Z" fill="#FFD876"/>
</g>
<g style="mix-blend-mode:screen" opacity="0.23">
<g style="mix-blend-mode:screen" opacity="0.75">
<g style="mix-blend-mode:screen" opacity="0.75">
<path d="M29.8713 26.5563C30.1072 26.8649 30.2388 27.2403 30.2472 27.6284V32.0988C30.2472 32.5963 30.0492 33.0735 29.6967 33.4254C29.3442 33.7772 28.8661 33.9748 28.3675 33.9748H28.1313C27.7162 33.9748 27.3126 33.8393 26.9819 33.5889C27.1564 33.8225 27.3833 34.0121 27.6445 34.1424C27.9056 34.2727 28.1937 34.3402 28.4857 34.3393H28.7328C29.2313 34.3393 29.7094 34.1417 30.0619 33.7898C30.4144 33.438 30.6125 32.9608 30.6125 32.4633V28.0036C30.6063 27.7222 30.5365 27.4458 30.4081 27.1952C30.2798 26.9445 30.0963 26.7261 29.8713 26.5563Z" fill="#FEFFC7"/>
</g>
</g>
</g>
<g style="mix-blend-mode:overlay">
<path d="M27.24 27.2639C26.982 28.0084 26.8548 28.7917 26.864 29.5795C26.6811 28.7726 26.7409 27.9298 27.0359 27.1566C27.1722 26.8891 27.3873 26.6696 27.6523 26.5278C27.9173 26.386 28.2195 26.3286 28.5182 26.3633C28.2495 26.4034 27.9939 26.5058 27.772 26.6621C27.55 26.8185 27.3678 27.0246 27.24 27.2639Z" fill="#FFFECF"/>
</g>
<g style="mix-blend-mode:overlay">
<path d="M26.8531 30.1158C26.8827 30.1158 26.9068 30.0102 26.9068 29.8798C26.9068 29.7495 26.8827 29.6438 26.8531 29.6438C26.8234 29.6438 26.7993 29.7495 26.7993 29.8798C26.7993 30.0102 26.8234 30.1158 26.8531 30.1158Z" fill="#FFFECF"/>
</g>
<path d="M29.4847 33.2887C29.4847 32.8032 29.0904 32.4096 28.6039 32.4096C28.1175 32.4096 27.7231 32.8032 27.7231 33.2887V38.9383C27.7231 39.4238 28.1175 39.8174 28.6039 39.8174C29.0904 39.8174 29.4847 39.4238 29.4847 38.9383V33.2887Z" fill="url(#paint31_linear_147_4117)"/>
<g style="mix-blend-mode:multiply" opacity="0.75">
<path d="M28.9047 32.7742V38.5417C28.9073 38.6643 28.8668 38.784 28.7903 38.8799C28.7138 38.9758 28.6061 39.042 28.4858 39.067C28.3991 39.0875 28.3078 39.0746 28.2301 39.0309C28.1525 38.9872 28.0942 38.9159 28.0669 38.8312V39.453H29.141V32.7742H28.9047Z" fill="#FFD876"/>
</g>
<g style="mix-blend-mode:overlay">
<path d="M28.2495 37.7591C28.291 37.7591 28.3247 36.66 28.3247 35.3042C28.3247 33.9483 28.291 32.8492 28.2495 32.8492C28.208 32.8492 28.1743 33.9483 28.1743 35.3042C28.1743 36.66 28.208 37.7591 28.2495 37.7591Z" fill="#FFFECF"/>
</g>
<path d="M28.7332 14.1528H28.4861C27.8897 14.1556 27.3187 14.3941 26.898 14.816C26.4774 15.2379 26.2412 15.8089 26.2412 16.4041V20.8638C26.2412 21.459 26.4774 22.03 26.898 22.4519C27.3187 22.8738 27.8897 23.1122 28.4861 23.1151H28.7332C29.3296 23.1122 29.9005 22.8738 30.3212 22.4519C30.7419 22.03 30.9781 21.459 30.9781 20.8638V16.3719C30.9696 15.7823 30.7297 15.2195 30.3099 14.8045C29.8902 14.3896 29.324 14.1555 28.7332 14.1528ZM27.7557 16.4041C27.7557 16.2107 27.8326 16.0253 27.9696 15.8886C28.1066 15.7519 28.2924 15.6751 28.4861 15.6751H28.7332C28.8291 15.6751 28.924 15.694 29.0127 15.7306C29.1013 15.7672 29.1818 15.8209 29.2497 15.8886C29.3175 15.9563 29.3713 16.0367 29.408 16.1251C29.4447 16.2136 29.4636 16.3084 29.4636 16.4041V20.8638C29.4636 21.0571 29.3866 21.2425 29.2497 21.3792C29.1127 21.516 28.9269 21.5928 28.7332 21.5928H28.4861C28.2924 21.5928 28.1066 21.516 27.9696 21.3792C27.8326 21.2425 27.7557 21.0571 27.7557 20.8638V16.4041Z" fill="url(#paint32_linear_147_4117)"/>
<g style="mix-blend-mode:multiply" opacity="0.75">
<path d="M29.4524 14.6674C29.6698 14.9828 29.7859 15.3567 29.7854 15.7395V20.1991C30.1613 22.1931 28.3138 22.0216 28.4857 21.9787C28.2359 21.9843 27.992 21.9027 27.7959 21.7482C27.5999 21.5936 27.464 21.3756 27.4116 21.1318C27.0994 20.8502 26.825 20.5295 26.5952 20.1777C26.5952 20.1777 26.5952 20.9067 26.5952 21.0568C26.6148 21.3748 26.7268 21.6803 26.9175 21.9358C27.0903 22.1894 27.3225 22.3971 27.5939 22.5409C27.8653 22.6848 28.1677 22.7604 28.4749 22.7613H28.7113C28.959 22.7613 29.2043 22.7124 29.4331 22.6175C29.6618 22.5225 29.8695 22.3834 30.0442 22.208C30.2189 22.0327 30.3572 21.8246 30.451 21.5958C30.5448 21.3669 30.5924 21.1218 30.591 20.8745V16.372C30.5885 16.0079 30.4795 15.6526 30.2772 15.3497C30.0748 15.0468 29.7881 14.8097 29.4524 14.6674Z" fill="#FFD876"/>
</g>
<g style="mix-blend-mode:screen" opacity="0.23">
<g style="mix-blend-mode:screen" opacity="0.75">
<g style="mix-blend-mode:screen" opacity="0.75">
<path d="M29.8713 14.914C30.1065 15.2229 30.2381 15.5981 30.2472 15.986V20.4457C30.2472 20.9433 30.0492 21.4204 29.6967 21.7723C29.3442 22.1241 28.8661 22.3218 28.3675 22.3218H28.1313C27.7153 22.3275 27.3098 22.1914 26.9819 21.9358C27.1559 22.1708 27.3824 22.362 27.6435 22.4941C27.9046 22.6263 28.1929 22.6957 28.4857 22.697H28.7328C29.2323 22.6941 29.7104 22.4941 30.0626 22.1406C30.4148 21.787 30.6125 21.3087 30.6125 20.8102V16.3719C30.608 16.0887 30.5388 15.8102 30.4104 15.5576C30.282 15.305 30.0977 15.0849 29.8713 14.914Z" fill="#FEFFC7"/>
</g>
</g>
</g>
<g style="mix-blend-mode:overlay">
<path d="M27.24 15.6215C26.982 16.366 26.8548 17.1494 26.864 17.9371C26.6811 17.1302 26.7409 16.2874 27.0359 15.5143C27.1745 15.2487 27.3901 15.031 27.6545 14.8895C27.9189 14.748 28.2199 14.6893 28.5182 14.721C28.2495 14.7611 27.9939 14.8634 27.772 15.0198C27.55 15.1762 27.3678 15.3822 27.24 15.6215Z" fill="#FFFECF"/>
</g>
<g style="mix-blend-mode:overlay">
<path d="M26.8531 18.4734C26.8827 18.4734 26.9068 18.3678 26.9068 18.2374C26.9068 18.1071 26.8827 18.0015 26.8531 18.0015C26.8234 18.0015 26.7993 18.1071 26.7993 18.2374C26.7993 18.3678 26.8234 18.4734 26.8531 18.4734Z" fill="#FFFECF"/>
</g>
<path d="M29.4847 21.6464C29.4847 21.1609 29.0904 20.7673 28.6039 20.7673C28.1175 20.7673 27.7231 21.1609 27.7231 21.6464V27.296C27.7231 27.7815 28.1175 28.1751 28.6039 28.1751C29.0904 28.1751 29.4847 27.7815 29.4847 27.296V21.6464Z" fill="url(#paint33_linear_147_4117)"/>
<g style="mix-blend-mode:multiply" opacity="0.75">
<path d="M28.9047 21.1318V26.8993C28.9073 27.0219 28.8668 27.1416 28.7903 27.2375C28.7138 27.3334 28.6061 27.3996 28.4858 27.4246C28.3991 27.4451 28.3078 27.4322 28.2301 27.3885C28.1525 27.3448 28.0942 27.2735 28.0669 27.1888V27.8106H29.141V21.1318H28.9047Z" fill="#FFD876"/>
</g>
<g style="mix-blend-mode:overlay">
<path d="M28.2495 26.1167C28.291 26.1167 28.3247 25.0176 28.3247 23.6617C28.3247 22.3059 28.291 21.2068 28.2495 21.2068C28.208 21.2068 28.1743 22.3059 28.1743 23.6617C28.1743 25.0176 28.208 26.1167 28.2495 26.1167Z" fill="#FFFECF"/>
</g>
<path d="M28.7332 2.51047H28.4861C27.8897 2.5133 27.3187 2.75174 26.898 3.17363C26.4774 3.59552 26.2412 4.16653 26.2412 4.76175V9.22144C26.2412 9.81667 26.4774 10.3877 26.898 10.8096C27.3187 11.2315 27.8897 11.4699 28.4861 11.4727H28.7332C29.3296 11.4699 29.9005 11.2315 30.3212 10.8096C30.7419 10.3877 30.9781 9.81667 30.9781 9.22144V4.76175C30.9781 4.16653 30.7419 3.59552 30.3212 3.17363C29.9005 2.75174 29.3296 2.5133 28.7332 2.51047ZM27.7557 4.76175C27.7557 4.56841 27.8326 4.383 27.9696 4.24628C28.1066 4.10957 28.2924 4.03276 28.4861 4.03276H28.7332C28.8291 4.03276 28.924 4.05162 29.0127 4.08826C29.1013 4.12489 29.1818 4.17859 29.2497 4.24628C29.3175 4.31398 29.3713 4.39434 29.408 4.48278C29.4447 4.57122 29.4636 4.66602 29.4636 4.76175V9.22144C29.4636 9.41578 29.387 9.60232 29.2503 9.74073C29.1136 9.87915 28.9279 9.95833 28.7332 9.96114H28.4861C28.2914 9.95833 28.1056 9.87915 27.969 9.74073C27.8323 9.60232 27.7557 9.41578 27.7557 9.22144V4.76175Z" fill="url(#paint34_linear_147_4117)"/>
<g style="mix-blend-mode:multiply" opacity="0.75">
<path d="M29.4524 3.02509C29.6698 3.34045 29.7859 3.71434 29.7854 4.09712V8.55679C30.1613 10.5508 28.3138 10.39 28.4857 10.3364C28.2359 10.3419 27.992 10.2604 27.7959 10.1058C27.5999 9.95123 27.464 9.73328 27.4116 9.48947C27.0994 9.20783 26.825 8.88714 26.5952 8.53536C26.5952 8.53536 26.5952 9.26434 26.5952 9.41443C26.6129 9.73286 26.7251 10.0388 26.9175 10.2935C27.0903 10.5471 27.3225 10.7548 27.5939 10.8986C27.8653 11.0424 28.1677 11.1181 28.4749 11.119H28.7113C28.959 11.119 29.2043 11.0701 29.4331 10.9751C29.6618 10.8802 29.8695 10.741 30.0442 10.5657C30.2189 10.3903 30.3572 10.1823 30.451 9.9534C30.5448 9.72455 30.5924 9.47944 30.591 9.23217V4.7725C30.597 4.40121 30.4919 4.03656 30.2891 3.72526C30.0862 3.41395 29.7949 3.17016 29.4524 3.02509Z" fill="#FFD876"/>
</g>
<g style="mix-blend-mode:screen" opacity="0.23">
<g style="mix-blend-mode:screen" opacity="0.75">
<g style="mix-blend-mode:screen" opacity="0.75">
<path d="M29.8713 3.27167C30.1052 3.58132 30.2366 3.95604 30.2472 4.34371V8.86771C30.2487 9.11498 30.2011 9.36009 30.1073 9.58894C30.0134 9.8178 29.8752 10.0259 29.7005 10.2012C29.5258 10.3766 29.3181 10.5157 29.0893 10.6107C28.8606 10.7056 28.6153 10.7545 28.3675 10.7545H28.1313C27.7141 10.7564 27.3088 10.6165 26.9819 10.3578C27.1559 10.5928 27.3824 10.784 27.6435 10.9161C27.9046 11.0483 28.1929 11.1177 28.4857 11.119H28.7328C29.2323 11.1162 29.7104 10.9161 30.0626 10.5626C30.4148 10.2091 30.6125 9.73076 30.6125 9.2322V4.77252C30.6146 4.48203 30.5486 4.19507 30.4199 3.9345C30.2913 3.67393 30.1034 3.44696 29.8713 3.27167Z" fill="#FEFFC7"/>
</g>
</g>
</g>
<g style="mix-blend-mode:overlay">
<path d="M27.2399 3.97917C26.9811 4.72717 26.8539 5.51422 26.8639 6.3055C26.684 5.49482 26.7437 4.64942 27.0358 3.87196C27.1767 3.60832 27.3927 3.39227 27.6565 3.25107C27.9203 3.10987 28.2202 3.04987 28.5181 3.07866C28.2494 3.11874 27.9938 3.22107 27.7719 3.37744C27.5499 3.53382 27.3678 3.7399 27.2399 3.97917Z" fill="#FFFECF"/>
</g>
<g style="mix-blend-mode:overlay">
<path d="M26.8531 6.83105C26.8827 6.83105 26.9068 6.72539 26.9068 6.59506C26.9068 6.46473 26.8827 6.35907 26.8531 6.35907C26.8234 6.35907 26.7993 6.46473 26.7993 6.59506C26.7993 6.72539 26.8234 6.83105 26.8531 6.83105Z" fill="#FFFECF"/>
</g>
<path d="M29.4847 10.0041C29.4847 9.51857 29.0904 9.125 28.6039 9.125C28.1175 9.125 27.7231 9.51857 27.7231 10.0041V15.6537C27.7231 16.1392 28.1175 16.5328 28.6039 16.5328C29.0904 16.5328 29.4847 16.1392 29.4847 15.6537V10.0041Z" fill="url(#paint35_linear_147_4117)"/>
<g style="mix-blend-mode:multiply" opacity="0.75">
<path d="M28.9047 9.48944V15.2999C28.9058 15.4233 28.865 15.5434 28.7889 15.6408C28.7128 15.7381 28.606 15.8069 28.4858 15.8359C28.398 15.851 28.3078 15.8345 28.2311 15.7893C28.1543 15.7442 28.0961 15.6733 28.0669 15.5893V16.2111H29.141V9.53232L28.9047 9.48944Z" fill="#FFD876"/>
</g>
<g style="mix-blend-mode:overlay">
<path d="M28.2495 14.4744C28.291 14.4744 28.3247 13.3753 28.3247 12.0195C28.3247 10.6636 28.291 9.56451 28.2495 9.56451C28.208 9.56451 28.1743 10.6636 28.1743 12.0195C28.1743 13.3753 28.208 14.4744 28.2495 14.4744Z" fill="#FFFECF"/>
</g>
<path d="M29.4847 -1.63832C29.4847 -2.12382 29.0904 -2.5174 28.6039 -2.5174C28.1175 -2.5174 27.7231 -2.12382 27.7231 -1.63832V4.01132C27.7231 4.49682 28.1175 4.8904 28.6039 4.8904C29.0904 4.8904 29.4847 4.49682 29.4847 4.01132V-1.63832Z" fill="url(#paint36_linear_147_4117)"/>
<g style="mix-blend-mode:multiply" opacity="0.75">
<path d="M28.9047 -2.15286V3.6147C28.9078 3.73861 28.8677 3.85974 28.7913 3.95747C28.7149 4.0552 28.607 4.12349 28.4858 4.15072C28.398 4.16581 28.3078 4.14931 28.2311 4.10415C28.1543 4.059 28.0961 3.98812 28.0669 3.90416V4.57954H29.141V-2.15286H28.9047Z" fill="#FFD876"/>
</g>
<g style="mix-blend-mode:overlay">
<path d="M28.2495 2.84279C28.291 2.84279 28.3247 1.74367 28.3247 0.387828C28.3247 -0.968012 28.291 -2.06714 28.2495 -2.06714C28.208 -2.06714 28.1743 -0.968012 28.1743 0.387828C28.1743 1.74367 28.208 2.84279 28.2495 2.84279Z" fill="#FFFECF"/>
</g>
</g>
<defs>
<radialGradient id="paint0_radial_147_4117" cx="0" cy="0" r="1" gradientUnits="userSpaceOnUse" gradientTransform="translate(30.8739 152.15) rotate(-0.772717) scale(7.84589 7.83066)">
<stop stop-color="#FFDE57"/>
<stop offset="0.36" stop-color="#D09132"/>
<stop offset="0.49" stop-color="#C27B2D"/>
<stop offset="0.76" stop-color="#9F4421"/>
<stop offset="0.8" stop-color="#993B1F"/>
</radialGradient>
<linearGradient id="paint1_linear_147_4117" x1="28.7623" y1="153.853" x2="32.3397" y2="154.818" gradientUnits="userSpaceOnUse">
<stop stop-color="#FFDE57" stop-opacity="0"/>
<stop offset="0.12" stop-color="#FFDE57" stop-opacity="0.02"/>
<stop offset="0.25" stop-color="#FFDE57" stop-opacity="0.06"/>
<stop offset="0.38" stop-color="#FFDE57" stop-opacity="0.14"/>
<stop offset="0.5" stop-color="#FFDE57" stop-opacity="0.26"/>
<stop offset="0.63" stop-color="#FFDE57" stop-opacity="0.4"/>
<stop offset="0.76" stop-color="#FFDE57" stop-opacity="0.58"/>
<stop offset="0.88" stop-color="#FFDE57" stop-opacity="0.78"/>
<stop offset="1" stop-color="#FFDE57"/>
</linearGradient>
<linearGradient id="paint2_linear_147_4117" x1="26.8184" y1="113.25" x2="33.6576" y2="104.412" gradientUnits="userSpaceOnUse">
<stop stop-color="#993B1F"/>
<stop offset="0.02" stop-color="#9F4421"/>
<stop offset="0.13" stop-color="#C27B2D"/>
<stop offset="0.18" stop-color="#D09132"/>
<stop offset="0.34" stop-color="#FFDE57"/>
<stop offset="0.39" stop-color="#FDDB55"/>
<stop offset="0.42" stop-color="#F7D151"/>
<stop offset="0.46" stop-color="#EDC049"/>
<stop offset="0.49" stop-color="#DFA93E"/>
<stop offset="0.51" stop-color="#D09132"/>
<stop offset="0.55" stop-color="#B56629"/>
<stop offset="0.58" stop-color="#A14722"/>
<stop offset="0.6" stop-color="#993B1F"/>
</linearGradient>
<linearGradient id="paint3_linear_147_4117" x1="26.7325" y1="113.219" x2="30.6769" y2="108.119" gradientUnits="userSpaceOnUse">
<stop offset="0.03" stop-color="#993B1F" stop-opacity="0"/>
<stop offset="0.05" stop-color="#9C4020" stop-opacity="0.06"/>
<stop offset="0.09" stop-color="#A54D23" stop-opacity="0.21"/>
<stop offset="0.14" stop-color="#B26228" stop-opacity="0.46"/>
<stop offset="0.2" stop-color="#C57F2E" stop-opacity="0.79"/>
<stop offset="0.24" stop-color="#D09132"/>
<stop offset="0.28" stop-color="#DFA93E"/>
<stop offset="0.33" stop-color="#EDC049"/>
<stop offset="0.39" stop-color="#F7D151"/>
<stop offset="0.45" stop-color="#FDDB55"/>
<stop offset="0.53" stop-color="#FFDE57"/>
<stop offset="0.72" stop-color="#D09132"/>
<stop offset="0.8" stop-color="#BD732B" stop-opacity="0.65"/>
<stop offset="0.87" stop-color="#AD5B26" stop-opacity="0.37"/>
<stop offset="0.93" stop-color="#A24A22" stop-opacity="0.17"/>
<stop offset="0.97" stop-color="#9C3F20" stop-opacity="0.05"/>
<stop offset="1" stop-color="#993B1F" stop-opacity="0"/>
</linearGradient>
<linearGradient id="paint4_linear_147_4117" x1="490.111" y1="-1185.48" x2="477.846" y2="-1189.29" gradientUnits="userSpaceOnUse">
<stop offset="0.03" stop-color="#993B1F" stop-opacity="0"/>
<stop offset="0.05" stop-color="#9C4020" stop-opacity="0.06"/>
<stop offset="0.09" stop-color="#A54D23" stop-opacity="0.21"/>
<stop offset="0.14" stop-color="#B26228" stop-opacity="0.46"/>
<stop offset="0.2" stop-color="#C57F2E" stop-opacity="0.79"/>
<stop offset="0.24" stop-color="#D09132"/>
<stop offset="0.28" stop-color="#DFA93E"/>
<stop offset="0.33" stop-color="#EDC049"/>
<stop offset="0.39" stop-color="#F7D151"/>
<stop offset="0.45" stop-color="#FDDB55"/>
<stop offset="0.53" stop-color="#FFDE57"/>
<stop offset="0.72" stop-color="#D09132"/>
<stop offset="0.8" stop-color="#BD732B" stop-opacity="0.65"/>
<stop offset="0.87" stop-color="#AD5B26" stop-opacity="0.37"/>
<stop offset="0.93" stop-color="#A24A22" stop-opacity="0.17"/>
<stop offset="0.97" stop-color="#9C3F20" stop-opacity="0.05"/>
<stop offset="1" stop-color="#993B1F" stop-opacity="0"/>
</linearGradient>
<linearGradient id="paint5_linear_147_4117" x1="25.6011" y1="108.799" x2="28.5182" y2="108.773" gradientUnits="userSpaceOnUse">
<stop offset="0.57" stop-color="#FFDE57"/>
<stop offset="0.76" stop-color="#FFDE57"/>
</linearGradient>
<linearGradient id="paint6_linear_147_4117" x1="8.21732" y1="133.449" x2="49.3025" y2="133.449" gradientUnits="userSpaceOnUse">
<stop offset="0.06" stop-color="#993B1F"/>
<stop offset="0.07" stop-color="#9F4421"/>
<stop offset="0.18" stop-color="#C27B2D"/>
<stop offset="0.23" stop-color="#D09132"/>
<stop offset="0.24" stop-color="#D29434"/>
<stop offset="0.29" stop-color="#E6B443"/>
<stop offset="0.34" stop-color="#F4CB4E"/>
<stop offset="0.39" stop-color="#FCD955"/>
<stop offset="0.43" stop-color="#FFDE57"/>
<stop offset="0.47" stop-color="#F9D452"/>
<stop offset="0.54" stop-color="#E9BA46"/>
<stop offset="0.62" stop-color="#D09132"/>
<stop offset="0.72" stop-color="#B56629"/>
<stop offset="0.8" stop-color="#A14722"/>
<stop offset="0.85" stop-color="#993B1F"/>
</linearGradient>
<linearGradient id="paint7_linear_147_4117" x1="5.77755" y1="147.45" x2="33.994" y2="118.7" gradientUnits="userSpaceOnUse">
<stop stop-color="#D09132"/>
<stop offset="0.29" stop-color="#E9BA46"/>
<stop offset="0.52" stop-color="#F9D452"/>
<stop offset="0.66" stop-color="#FFDE57"/>
<stop offset="0.7" stop-color="#F6D050" stop-opacity="0.82"/>
<stop offset="0.74" stop-color="#ECC048" stop-opacity="0.6"/>
<stop offset="0.79" stop-color="#E4B142" stop-opacity="0.42"/>
<stop offset="0.83" stop-color="#DDA63C" stop-opacity="0.27"/>
<stop offset="0.88" stop-color="#D79D38" stop-opacity="0.15"/>
<stop offset="0.92" stop-color="#D39634" stop-opacity="0.07"/>
<stop offset="0.96" stop-color="#D19233" stop-opacity="0.02"/>
<stop offset="1" stop-color="#D09132" stop-opacity="0"/>
</linearGradient>
<linearGradient id="paint8_linear_147_4117" x1="28.0614" y1="131.186" x2="49.135" y2="131.013" gradientUnits="userSpaceOnUse">
<stop offset="0.26" stop-color="#D09132" stop-opacity="0"/>
<stop offset="0.29" stop-color="#D19233" stop-opacity="0.02"/>
<stop offset="0.33" stop-color="#D39634" stop-opacity="0.07"/>
<stop offset="0.37" stop-color="#D79D38" stop-opacity="0.15"/>
<stop offset="0.41" stop-color="#DDA63C" stop-opacity="0.27"/>
<stop offset="0.45" stop-color="#E4B142" stop-opacity="0.42"/>
<stop offset="0.49" stop-color="#ECC048" stop-opacity="0.6"/>
<stop offset="0.54" stop-color="#F6D050" stop-opacity="0.82"/>
<stop offset="0.57" stop-color="#FFDE57"/>
<stop offset="0.66" stop-color="#F9D452"/>
<stop offset="0.81" stop-color="#E9BA46"/>
<stop offset="1" stop-color="#D09132"/>
</linearGradient>
<linearGradient id="paint9_linear_147_4117" x1="9.35649" y1="133.302" x2="29.4634" y2="133.136" gradientUnits="userSpaceOnUse">
<stop offset="0.23" stop-color="#D09132"/>
<stop offset="0.62" stop-color="#D09132"/>
</linearGradient>
<linearGradient id="paint10_linear_147_4117" x1="40.0611" y1="121.655" x2="17.0219" y2="121.845" gradientUnits="userSpaceOnUse">
<stop stop-color="#D09132"/>
<stop offset="0.22" stop-color="#D39534"/>
<stop offset="0.45" stop-color="#DAA23A"/>
<stop offset="0.69" stop-color="#E7B744"/>
<stop offset="0.94" stop-color="#FAD553"/>
<stop offset="1" stop-color="#FFDE57"/>
</linearGradient>
<linearGradient id="paint11_linear_147_4117" x1="-5177.38" y1="4845.63" x2="-5197.7" y2="4826.59" gradientUnits="userSpaceOnUse">
<stop offset="0.57" stop-color="#FFDE57"/>
<stop offset="0.76" stop-color="#FFDE57"/>
</linearGradient>
<linearGradient id="paint12_linear_147_4117" x1="40.0491" y1="122.515" x2="17.0469" y2="122.709" gradientUnits="userSpaceOnUse">
<stop offset="0.06" stop-color="#993B1F"/>
<stop offset="0.85" stop-color="#993B1F"/>
</linearGradient>
<linearGradient id="paint13_linear_147_4117" x1="1537.14" y1="-387.74" x2="602.714" y2="-380.06" gradientUnits="userSpaceOnUse">
<stop offset="0.06" stop-color="#993B1F"/>
<stop offset="0.85" stop-color="#993B1F"/>
</linearGradient>
<linearGradient id="paint14_linear_147_4117" x1="1536.92" y1="-408.881" x2="602.515" y2="-401.201" gradientUnits="userSpaceOnUse">
<stop stop-color="#D09132"/>
<stop offset="0.22" stop-color="#D39534"/>
<stop offset="0.45" stop-color="#DAA23A"/>
<stop offset="0.69" stop-color="#E7B744"/>
<stop offset="0.94" stop-color="#FAD553"/>
<stop offset="1" stop-color="#FFDE57"/>
</linearGradient>
<linearGradient id="paint15_linear_147_4117" x1="-3285.58" y1="3157.55" x2="-3343.01" y2="3105.87" gradientUnits="userSpaceOnUse">
<stop offset="0.57" stop-color="#FFDE57"/>
<stop offset="0.76" stop-color="#FFDE57"/>
</linearGradient>
<linearGradient id="paint16_linear_147_4117" x1="27639.2" y1="1491.37" x2="27667.7" y2="1278.21" gradientUnits="userSpaceOnUse">
<stop offset="0.57" stop-color="#FFDE57"/>
<stop offset="0.76" stop-color="#FFDE57"/>
</linearGradient>
<linearGradient id="paint17_linear_147_4117" x1="27644.2" y1="1552.36" x2="27675.3" y2="1329.19" gradientUnits="userSpaceOnUse">
<stop stop-color="#D09132"/>
<stop offset="0.22" stop-color="#D39534"/>
<stop offset="0.45" stop-color="#DAA23A"/>
<stop offset="0.69" stop-color="#E7B744"/>
<stop offset="0.94" stop-color="#FAD553"/>
<stop offset="1" stop-color="#FFDE57"/>
</linearGradient>
<linearGradient id="paint18_linear_147_4117" x1="28.6043" y1="105.008" x2="28.6043" y2="95.5098" gradientUnits="userSpaceOnUse">
<stop offset="0.06" stop-color="#993B1F"/>
<stop offset="0.07" stop-color="#9F4421"/>
<stop offset="0.18" stop-color="#C27B2D"/>
<stop offset="0.23" stop-color="#D09132"/>
<stop offset="0.24" stop-color="#D29434"/>
<stop offset="0.31" stop-color="#E6B443"/>
<stop offset="0.39" stop-color="#F4CB4E"/>
<stop offset="0.45" stop-color="#FCD955"/>
<stop offset="0.51" stop-color="#FFDE57"/>
<stop offset="0.55" stop-color="#F9D452"/>
<stop offset="0.62" stop-color="#E9BA46"/>
<stop offset="0.7" stop-color="#D09132"/>
<stop offset="0.82" stop-color="#B56629"/>
<stop offset="0.93" stop-color="#A14722"/>
<stop offset="0.99" stop-color="#993B1F"/>
</linearGradient>
<linearGradient id="paint19_linear_147_4117" x1="516.201" y1="1575.29" x2="516.201" y2="1506.1" gradientUnits="userSpaceOnUse">
<stop offset="0.06" stop-color="#993B1F"/>
<stop offset="0.07" stop-color="#9F4421"/>
<stop offset="0.18" stop-color="#C27B2D"/>
<stop offset="0.23" stop-color="#D09132"/>
<stop offset="0.24" stop-color="#D29434"/>
<stop offset="0.29" stop-color="#E6B443"/>
<stop offset="0.34" stop-color="#F4CB4E"/>
<stop offset="0.39" stop-color="#FCD955"/>
<stop offset="0.43" stop-color="#FFDE57"/>
<stop offset="0.47" stop-color="#F9D452"/>
<stop offset="0.54" stop-color="#E9BA46"/>
<stop offset="0.62" stop-color="#D09132"/>
<stop offset="0.72" stop-color="#B56629"/>
<stop offset="0.8" stop-color="#A14722"/>
<stop offset="0.85" stop-color="#993B1F"/>
</linearGradient>
<linearGradient id="paint20_linear_147_4117" x1="3251.52" y1="1722.48" x2="3251.52" y2="1643.07" gradientUnits="userSpaceOnUse">
<stop offset="0.06" stop-color="#993B1F"/>
<stop offset="0.07" stop-color="#9F4421"/>
<stop offset="0.18" stop-color="#C27B2D"/>
<stop offset="0.23" stop-color="#D09132"/>
<stop offset="0.24" stop-color="#D29434"/>
<stop offset="0.31" stop-color="#E6B443"/>
<stop offset="0.39" stop-color="#F4CB4E"/>
<stop offset="0.45" stop-color="#FCD955"/>
<stop offset="0.51" stop-color="#FFDE57"/>
<stop offset="0.55" stop-color="#F9D452"/>
<stop offset="0.62" stop-color="#E9BA46"/>
<stop offset="0.7" stop-color="#D09132"/>
<stop offset="0.82" stop-color="#B56629"/>
<stop offset="0.93" stop-color="#A14722"/>
<stop offset="0.99" stop-color="#993B1F"/>
</linearGradient>
<linearGradient id="paint21_linear_147_4117" x1="516.201" y1="1483.19" x2="516.201" y2="1414.08" gradientUnits="userSpaceOnUse">
<stop offset="0.06" stop-color="#993B1F"/>
<stop offset="0.07" stop-color="#9F4421"/>
<stop offset="0.18" stop-color="#C27B2D"/>
<stop offset="0.23" stop-color="#D09132"/>
<stop offset="0.24" stop-color="#D29434"/>
<stop offset="0.29" stop-color="#E6B443"/>
<stop offset="0.34" stop-color="#F4CB4E"/>
<stop offset="0.39" stop-color="#FCD955"/>
<stop offset="0.43" stop-color="#FFDE57"/>
<stop offset="0.47" stop-color="#F9D452"/>
<stop offset="0.54" stop-color="#E9BA46"/>
<stop offset="0.62" stop-color="#D09132"/>
<stop offset="0.72" stop-color="#B56629"/>
<stop offset="0.8" stop-color="#A14722"/>
<stop offset="0.85" stop-color="#993B1F"/>
</linearGradient>
<linearGradient id="paint22_linear_147_4117" x1="3251.52" y1="1613.5" x2="3251.52" y2="1534.1" gradientUnits="userSpaceOnUse">
<stop offset="0.06" stop-color="#993B1F"/>
<stop offset="0.07" stop-color="#9F4421"/>
<stop offset="0.18" stop-color="#C27B2D"/>
<stop offset="0.23" stop-color="#D09132"/>
<stop offset="0.24" stop-color="#D29434"/>
<stop offset="0.31" stop-color="#E6B443"/>
<stop offset="0.39" stop-color="#F4CB4E"/>
<stop offset="0.45" stop-color="#FCD955"/>
<stop offset="0.51" stop-color="#FFDE57"/>
<stop offset="0.55" stop-color="#F9D452"/>
<stop offset="0.62" stop-color="#E9BA46"/>
<stop offset="0.7" stop-color="#D09132"/>
<stop offset="0.82" stop-color="#B56629"/>
<stop offset="0.93" stop-color="#A14722"/>
<stop offset="0.99" stop-color="#993B1F"/>
</linearGradient>
<linearGradient id="paint23_linear_147_4117" x1="516.201" y1="1391.11" x2="516.201" y2="1321.99" gradientUnits="userSpaceOnUse">
<stop offset="0.06" stop-color="#993B1F"/>
<stop offset="0.07" stop-color="#9F4421"/>
<stop offset="0.18" stop-color="#C27B2D"/>
<stop offset="0.23" stop-color="#D09132"/>
<stop offset="0.24" stop-color="#D29434"/>
<stop offset="0.29" stop-color="#E6B443"/>
<stop offset="0.34" stop-color="#F4CB4E"/>
<stop offset="0.39" stop-color="#FCD955"/>
<stop offset="0.43" stop-color="#FFDE57"/>
<stop offset="0.47" stop-color="#F9D452"/>
<stop offset="0.54" stop-color="#E9BA46"/>
<stop offset="0.62" stop-color="#D09132"/>
<stop offset="0.72" stop-color="#B56629"/>
<stop offset="0.8" stop-color="#A14722"/>
<stop offset="0.85" stop-color="#993B1F"/>
</linearGradient>
<linearGradient id="paint24_linear_147_4117" x1="3251.52" y1="1502.9" x2="3251.52" y2="1423.5" gradientUnits="userSpaceOnUse">
<stop offset="0.06" stop-color="#993B1F"/>
<stop offset="0.07" stop-color="#9F4421"/>
<stop offset="0.18" stop-color="#C27B2D"/>
<stop offset="0.23" stop-color="#D09132"/>
<stop offset="0.24" stop-color="#D29434"/>
<stop offset="0.31" stop-color="#E6B443"/>
<stop offset="0.39" stop-color="#F4CB4E"/>
<stop offset="0.45" stop-color="#FCD955"/>
<stop offset="0.51" stop-color="#FFDE57"/>
<stop offset="0.55" stop-color="#F9D452"/>
<stop offset="0.62" stop-color="#E9BA46"/>
<stop offset="0.7" stop-color="#D09132"/>
<stop offset="0.82" stop-color="#B56629"/>
<stop offset="0.93" stop-color="#A14722"/>
<stop offset="0.99" stop-color="#993B1F"/>
</linearGradient>
<linearGradient id="paint25_linear_147_4117" x1="516.201" y1="1299.03" x2="516.201" y2="1229.91" gradientUnits="userSpaceOnUse">
<stop offset="0.06" stop-color="#993B1F"/>
<stop offset="0.07" stop-color="#9F4421"/>
<stop offset="0.18" stop-color="#C27B2D"/>
<stop offset="0.23" stop-color="#D09132"/>
<stop offset="0.24" stop-color="#D29434"/>
<stop offset="0.29" stop-color="#E6B443"/>
<stop offset="0.34" stop-color="#F4CB4E"/>
<stop offset="0.39" stop-color="#FCD955"/>
<stop offset="0.43" stop-color="#FFDE57"/>
<stop offset="0.47" stop-color="#F9D452"/>
<stop offset="0.54" stop-color="#E9BA46"/>
<stop offset="0.62" stop-color="#D09132"/>
<stop offset="0.72" stop-color="#B56629"/>
<stop offset="0.8" stop-color="#A14722"/>
<stop offset="0.85" stop-color="#993B1F"/>
</linearGradient>
<linearGradient id="paint26_linear_147_4117" x1="3251.52" y1="1394.05" x2="3251.52" y2="1314.65" gradientUnits="userSpaceOnUse">
<stop offset="0.06" stop-color="#993B1F"/>
<stop offset="0.07" stop-color="#9F4421"/>
<stop offset="0.18" stop-color="#C27B2D"/>
<stop offset="0.23" stop-color="#D09132"/>
<stop offset="0.24" stop-color="#D29434"/>
<stop offset="0.31" stop-color="#E6B443"/>
<stop offset="0.39" stop-color="#F4CB4E"/>
<stop offset="0.45" stop-color="#FCD955"/>
<stop offset="0.51" stop-color="#FFDE57"/>
<stop offset="0.55" stop-color="#F9D452"/>
<stop offset="0.62" stop-color="#E9BA46"/>
<stop offset="0.7" stop-color="#D09132"/>
<stop offset="0.82" stop-color="#B56629"/>
<stop offset="0.93" stop-color="#A14722"/>
<stop offset="0.99" stop-color="#993B1F"/>
</linearGradient>
<linearGradient id="paint27_linear_147_4117" x1="516.201" y1="1207.01" x2="516.201" y2="1137.82" gradientUnits="userSpaceOnUse">
<stop offset="0.06" stop-color="#993B1F"/>
<stop offset="0.07" stop-color="#9F4421"/>
<stop offset="0.18" stop-color="#C27B2D"/>
<stop offset="0.23" stop-color="#D09132"/>
<stop offset="0.24" stop-color="#D29434"/>
<stop offset="0.29" stop-color="#E6B443"/>
<stop offset="0.34" stop-color="#F4CB4E"/>
<stop offset="0.39" stop-color="#FCD955"/>
<stop offset="0.43" stop-color="#FFDE57"/>
<stop offset="0.47" stop-color="#F9D452"/>
<stop offset="0.54" stop-color="#E9BA46"/>
<stop offset="0.62" stop-color="#D09132"/>
<stop offset="0.72" stop-color="#B56629"/>
<stop offset="0.8" stop-color="#A14722"/>
<stop offset="0.85" stop-color="#993B1F"/>
</linearGradient>
<linearGradient id="paint28_linear_147_4117" x1="3251.52" y1="1286.68" x2="3251.52" y2="1207.19" gradientUnits="userSpaceOnUse">
<stop offset="0.06" stop-color="#993B1F"/>
<stop offset="0.07" stop-color="#9F4421"/>
<stop offset="0.18" stop-color="#C27B2D"/>
<stop offset="0.23" stop-color="#D09132"/>
<stop offset="0.24" stop-color="#D29434"/>
<stop offset="0.31" stop-color="#E6B443"/>
<stop offset="0.39" stop-color="#F4CB4E"/>
<stop offset="0.45" stop-color="#FCD955"/>
<stop offset="0.51" stop-color="#FFDE57"/>
<stop offset="0.55" stop-color="#F9D452"/>
<stop offset="0.62" stop-color="#E9BA46"/>
<stop offset="0.7" stop-color="#D09132"/>
<stop offset="0.82" stop-color="#B56629"/>
<stop offset="0.93" stop-color="#A14722"/>
<stop offset="0.99" stop-color="#993B1F"/>
</linearGradient>
<linearGradient id="paint29_linear_147_4117" x1="516.201" y1="1114.92" x2="516.201" y2="1045.73" gradientUnits="userSpaceOnUse">
<stop offset="0.06" stop-color="#993B1F"/>
<stop offset="0.07" stop-color="#9F4421"/>
<stop offset="0.18" stop-color="#C27B2D"/>
<stop offset="0.23" stop-color="#D09132"/>
<stop offset="0.24" stop-color="#D29434"/>
<stop offset="0.29" stop-color="#E6B443"/>
<stop offset="0.34" stop-color="#F4CB4E"/>
<stop offset="0.39" stop-color="#FCD955"/>
<stop offset="0.43" stop-color="#FFDE57"/>
<stop offset="0.47" stop-color="#F9D452"/>
<stop offset="0.54" stop-color="#E9BA46"/>
<stop offset="0.62" stop-color="#D09132"/>
<stop offset="0.72" stop-color="#B56629"/>
<stop offset="0.8" stop-color="#A14722"/>
<stop offset="0.85" stop-color="#993B1F"/>
</linearGradient>
<linearGradient id="paint30_linear_147_4117" x1="3251.52" y1="1177.71" x2="3251.52" y2="1098.31" gradientUnits="userSpaceOnUse">
<stop offset="0.06" stop-color="#993B1F"/>
<stop offset="0.07" stop-color="#9F4421"/>
<stop offset="0.18" stop-color="#C27B2D"/>
<stop offset="0.23" stop-color="#D09132"/>
<stop offset="0.24" stop-color="#D29434"/>
<stop offset="0.31" stop-color="#E6B443"/>
<stop offset="0.39" stop-color="#F4CB4E"/>
<stop offset="0.45" stop-color="#FCD955"/>
<stop offset="0.51" stop-color="#FFDE57"/>
<stop offset="0.55" stop-color="#F9D452"/>
<stop offset="0.62" stop-color="#E9BA46"/>
<stop offset="0.7" stop-color="#D09132"/>
<stop offset="0.82" stop-color="#B56629"/>
<stop offset="0.93" stop-color="#A14722"/>
<stop offset="0.99" stop-color="#993B1F"/>
</linearGradient>
<linearGradient id="paint31_linear_147_4117" x1="516.201" y1="1022.83" x2="516.201" y2="953.638" gradientUnits="userSpaceOnUse">
<stop offset="0.06" stop-color="#993B1F"/>
<stop offset="0.07" stop-color="#9F4421"/>
<stop offset="0.18" stop-color="#C27B2D"/>
<stop offset="0.23" stop-color="#D09132"/>
<stop offset="0.24" stop-color="#D29434"/>
<stop offset="0.29" stop-color="#E6B443"/>
<stop offset="0.34" stop-color="#F4CB4E"/>
<stop offset="0.39" stop-color="#FCD955"/>
<stop offset="0.43" stop-color="#FFDE57"/>
<stop offset="0.47" stop-color="#F9D452"/>
<stop offset="0.54" stop-color="#E9BA46"/>
<stop offset="0.62" stop-color="#D09132"/>
<stop offset="0.72" stop-color="#B56629"/>
<stop offset="0.8" stop-color="#A14722"/>
<stop offset="0.85" stop-color="#993B1F"/>
</linearGradient>
<linearGradient id="paint32_linear_147_4117" x1="3251.52" y1="1068.74" x2="3251.52" y2="989.336" gradientUnits="userSpaceOnUse">
<stop offset="0.06" stop-color="#993B1F"/>
<stop offset="0.07" stop-color="#9F4421"/>
<stop offset="0.18" stop-color="#C27B2D"/>
<stop offset="0.23" stop-color="#D09132"/>
<stop offset="0.24" stop-color="#D29434"/>
<stop offset="0.31" stop-color="#E6B443"/>
<stop offset="0.39" stop-color="#F4CB4E"/>
<stop offset="0.45" stop-color="#FCD955"/>
<stop offset="0.51" stop-color="#FFDE57"/>
<stop offset="0.55" stop-color="#F9D452"/>
<stop offset="0.62" stop-color="#E9BA46"/>
<stop offset="0.7" stop-color="#D09132"/>
<stop offset="0.82" stop-color="#B56629"/>
<stop offset="0.93" stop-color="#A14722"/>
<stop offset="0.99" stop-color="#993B1F"/>
</linearGradient>
<linearGradient id="paint33_linear_147_4117" x1="516.201" y1="930.734" x2="516.201" y2="861.62" gradientUnits="userSpaceOnUse">
<stop offset="0.06" stop-color="#993B1F"/>
<stop offset="0.07" stop-color="#9F4421"/>
<stop offset="0.18" stop-color="#C27B2D"/>
<stop offset="0.23" stop-color="#D09132"/>
<stop offset="0.24" stop-color="#D29434"/>
<stop offset="0.29" stop-color="#E6B443"/>
<stop offset="0.34" stop-color="#F4CB4E"/>
<stop offset="0.39" stop-color="#FCD955"/>
<stop offset="0.43" stop-color="#FFDE57"/>
<stop offset="0.47" stop-color="#F9D452"/>
<stop offset="0.54" stop-color="#E9BA46"/>
<stop offset="0.62" stop-color="#D09132"/>
<stop offset="0.72" stop-color="#B56629"/>
<stop offset="0.8" stop-color="#A14722"/>
<stop offset="0.85" stop-color="#993B1F"/>
</linearGradient>
<linearGradient id="paint34_linear_147_4117" x1="3251.52" y1="959.769" x2="3251.52" y2="880.363" gradientUnits="userSpaceOnUse">
<stop offset="0.06" stop-color="#993B1F"/>
<stop offset="0.07" stop-color="#9F4421"/>
<stop offset="0.18" stop-color="#C27B2D"/>
<stop offset="0.23" stop-color="#D09132"/>
<stop offset="0.24" stop-color="#D29434"/>
<stop offset="0.31" stop-color="#E6B443"/>
<stop offset="0.39" stop-color="#F4CB4E"/>
<stop offset="0.45" stop-color="#FCD955"/>
<stop offset="0.51" stop-color="#FFDE57"/>
<stop offset="0.55" stop-color="#F9D452"/>
<stop offset="0.62" stop-color="#E9BA46"/>
<stop offset="0.7" stop-color="#D09132"/>
<stop offset="0.82" stop-color="#B56629"/>
<stop offset="0.93" stop-color="#A14722"/>
<stop offset="0.99" stop-color="#993B1F"/>
</linearGradient>
<linearGradient id="paint35_linear_147_4117" x1="516.201" y1="838.645" x2="516.201" y2="769.53" gradientUnits="userSpaceOnUse">
<stop offset="0.06" stop-color="#993B1F"/>
<stop offset="0.07" stop-color="#9F4421"/>
<stop offset="0.18" stop-color="#C27B2D"/>
<stop offset="0.23" stop-color="#D09132"/>
<stop offset="0.24" stop-color="#D29434"/>
<stop offset="0.29" stop-color="#E6B443"/>
<stop offset="0.34" stop-color="#F4CB4E"/>
<stop offset="0.39" stop-color="#FCD955"/>
<stop offset="0.43" stop-color="#FFDE57"/>
<stop offset="0.47" stop-color="#F9D452"/>
<stop offset="0.54" stop-color="#E9BA46"/>
<stop offset="0.62" stop-color="#D09132"/>
<stop offset="0.72" stop-color="#B56629"/>
<stop offset="0.8" stop-color="#A14722"/>
<stop offset="0.85" stop-color="#993B1F"/>
</linearGradient>
<linearGradient id="paint36_linear_147_4117" x1="516.201" y1="746.554" x2="516.201" y2="677.439" gradientUnits="userSpaceOnUse">
<stop offset="0.06" stop-color="#993B1F"/>
<stop offset="0.07" stop-color="#9F4421"/>
<stop offset="0.18" stop-color="#C27B2D"/>
<stop offset="0.23" stop-color="#D09132"/>
<stop offset="0.24" stop-color="#D29434"/>
<stop offset="0.29" stop-color="#E6B443"/>
<stop offset="0.34" stop-color="#F4CB4E"/>
<stop offset="0.39" stop-color="#FCD955"/>
<stop offset="0.43" stop-color="#FFDE57"/>
<stop offset="0.47" stop-color="#F9D452"/>
<stop offset="0.54" stop-color="#E9BA46"/>
<stop offset="0.62" stop-color="#D09132"/>
<stop offset="0.72" stop-color="#B56629"/>
<stop offset="0.8" stop-color="#A14722"/>
<stop offset="0.85" stop-color="#993B1F"/>
</linearGradient>
</defs>
</svg>
