<svg width="24" height="24" viewBox="0 0 24 24" fill="none" xmlns="http://www.w3.org/2000/svg">
<g clip-path="url(#clip0_177_3318)">
<path d="M11.4999 12.5417C12.0752 12.5417 12.5416 12.0753 12.5416 11.5C12.5416 10.9247 12.0752 10.4583 11.4999 10.4583C10.9246 10.4583 10.4583 10.9247 10.4583 11.5C10.4583 12.0753 10.9246 12.5417 11.4999 12.5417Z" fill="black"/>
<path d="M15.6667 12.5417C16.242 12.5417 16.7083 12.0753 16.7083 11.5C16.7083 10.9247 16.242 10.4583 15.6667 10.4583C15.0914 10.4583 14.625 10.9247 14.625 11.5C14.625 12.0753 15.0914 12.5417 15.6667 12.5417Z" fill="black"/>
<path d="M7.33341 12.5417C7.90871 12.5417 8.37508 12.0753 8.37508 11.5C8.37508 10.9247 7.90871 10.4583 7.33341 10.4583C6.75812 10.4583 6.29175 10.9247 6.29175 11.5C6.29175 12.0753 6.75812 12.5417 7.33341 12.5417Z" fill="black"/>
<path d="M18.8646 4.13542C17.1555 2.41511 14.8997 1.34502 12.4861 1.10963C10.0726 0.874243 7.65251 1.48831 5.64317 2.84597C3.63384 4.20363 2.16114 6.2198 1.47898 8.54689C0.796825 10.874 0.947953 13.3661 1.90631 15.5938C2.0062 15.8008 2.03897 16.0339 2.00006 16.2604L1.0834 20.6667C1.04808 20.8356 1.05529 21.0107 1.10438 21.1761C1.15347 21.3416 1.24291 21.4923 1.36465 21.6146C1.46444 21.7137 1.58326 21.7915 1.71395 21.8434C1.84464 21.8953 1.98449 21.9203 2.12506 21.9167H2.3334L6.79173 21.0208C7.01832 20.9936 7.2481 21.0259 7.45839 21.1146C9.686 22.0729 12.1782 22.2241 14.5053 21.5419C16.8323 20.8598 18.8485 19.3871 20.2062 17.3777C21.5638 15.3684 22.1779 12.9483 21.9425 10.5348C21.7071 8.12121 20.637 5.86541 18.9167 4.15625L18.8646 4.13542ZM19.7292 12.8438C19.5256 14.0875 19.0425 15.2688 18.3163 16.2989C17.5901 17.3289 16.6397 18.1808 15.5367 18.7905C14.4337 19.4002 13.2067 19.7517 11.9482 19.8187C10.6897 19.8856 9.43238 19.6663 8.27089 19.1771C7.85896 19.0019 7.41645 18.9098 6.96881 18.9063C6.77327 18.9076 6.57817 18.925 6.38548 18.9583L3.44798 19.5521L4.04173 16.6146C4.15998 15.9784 4.08375 15.3214 3.82298 14.7292C3.3338 13.5677 3.11444 12.3104 3.18141 11.0519C3.24837 9.79334 3.59992 8.56641 4.20959 7.46339C4.81925 6.36037 5.67116 5.41 6.7012 4.6838C7.73124 3.95761 8.91258 3.4745 10.1563 3.27084C11.4618 3.05658 12.7995 3.15623 14.0589 3.56152C15.3182 3.96682 16.463 4.66613 17.3985 5.6016C18.3339 6.53708 19.0332 7.68183 19.4385 8.94117C19.8438 10.2005 19.9435 11.5383 19.7292 12.8438Z" fill="black"/>
</g>
<defs>
<clipPath id="clip0_177_3318">
<rect width="25" height="25" fill="white" transform="translate(-1 -1)"/>
</clipPath>
</defs>
</svg>
