<svg width="5183" height="1813" viewBox="0 0 5183 1813" fill="none" xmlns="http://www.w3.org/2000/svg">
<path d="M2222.77 1132.16H2031.5C2031.5 1139.37 2030.61 1145 2030.61 1150.63V1407.75C2030.61 1435.1 2045.39 1444.11 2069.12 1430.26C2083.65 1422.98 2096.14 1412.15 2105.42 1398.76C2114.71 1385.36 2120.51 1369.83 2122.28 1353.6C2122.28 1349.66 2123.95 1345.72 2125.08 1340.65C2147.45 1363.17 2169.82 1384.22 2190.76 1406.85C2194.78 1414.11 2195.87 1422.66 2193.79 1430.71C2181.81 1500.73 2107.5 1532.03 2052.65 1487C2022.59 1461.1 1995.55 1431.83 1972.09 1399.75C1961.93 1384.34 1956.55 1366.24 1956.65 1347.75C1954.4 1282.9 1954.85 1217.83 1954.4 1152.88C1954.4 1146.69 1954.4 1140.38 1954.4 1133.29H1781.95V1226.05C1764.89 1221.39 1747.59 1217.64 1730.14 1214.79C1714.52 1212.89 1698.7 1213.42 1683.25 1216.37C1665.79 1220.09 1660.08 1233.93 1666.57 1251.04C1677.72 1278.44 1699.15 1300.32 1726.22 1311.95C1754.87 1325.57 1784.52 1336.83 1812.95 1350.9C1830.42 1359.54 1846.93 1370.03 1862.19 1382.19C1869.02 1387.8 1873.81 1395.52 1875.83 1404.15C1877.86 1412.78 1877 1421.84 1873.38 1429.92C1868.17 1444.77 1859.95 1458.36 1849.24 1469.83C1838.53 1481.3 1825.56 1490.41 1811.16 1496.57C1769.41 1515.45 1723.22 1522.12 1677.87 1515.82C1625.77 1512.87 1575.74 1494.33 1534.18 1462.57C1502.51 1437.02 1484.83 1404.82 1492.21 1362.38C1498.37 1326.92 1515.94 1311.83 1551.97 1311.83C1585.29 1312.05 1617.48 1324 1642.96 1345.61C1631.43 1346.13 1619.95 1347.44 1608.6 1349.55C1568.42 1360.13 1556.56 1402.57 1587.45 1430.49C1601.99 1442.55 1618.99 1451.24 1637.25 1455.93C1676.38 1466.44 1717.82 1464.11 1755.54 1449.29C1764.46 1446.05 1772.79 1441.33 1780.16 1435.33C1783.65 1433.06 1786.57 1429.99 1788.68 1426.39C1790.79 1422.79 1792.04 1418.73 1792.33 1414.56C1792.61 1410.38 1791.92 1406.2 1790.31 1402.34C1788.71 1398.48 1786.22 1395.05 1783.07 1392.32C1768.29 1379.65 1752.2 1368.63 1735.06 1359.45C1705.29 1342.57 1673.51 1329.06 1644.75 1310.48C1629.35 1299.28 1616.28 1285.17 1606.25 1268.94C1597.97 1258.36 1593.26 1245.4 1592.79 1231.93C1592.33 1218.47 1596.14 1205.21 1603.68 1194.08C1620.91 1168.08 1647.43 1160.31 1677.2 1162.9C1688.55 1164.65 1699.77 1167.17 1710.78 1170.44V1133.85H1374.37C1374.37 1153.1 1373.7 1172.58 1374.93 1191.94C1374.93 1196.44 1381.31 1201.06 1385.45 1204.89C1395.15 1212.75 1403.19 1222.49 1409.09 1233.53C1414.99 1244.57 1418.64 1256.69 1419.81 1269.17C1421.94 1308.46 1400.45 1334.91 1370.57 1354.5C1327.37 1382.71 1277.87 1399.66 1226.54 1403.81C1196.66 1406.28 1183.79 1398.07 1178.08 1374.54C1197.33 1368.57 1216.69 1362.38 1236.05 1356.64C1270.34 1347.29 1302.29 1330.8 1329.83 1308.23C1341.81 1298.21 1350.98 1286.62 1346.51 1269.73C1344.47 1262.79 1340.42 1256.62 1334.88 1252.01C1329.34 1247.39 1322.55 1244.55 1315.4 1243.84C1235.38 1227.63 1166.89 1281.33 1157.49 1341.78C1154.74 1356.48 1155.67 1371.64 1160.2 1385.89C1164.74 1400.14 1172.73 1413.03 1183.45 1423.39C1245.68 1486.1 1328.94 1479.68 1382.21 1409.55C1383.1 1408.2 1384.22 1406.96 1385.79 1404.93L1433.91 1448.95C1430.22 1452.89 1427.53 1456.6 1424.17 1459.53C1353.89 1522.8 1231.35 1533.15 1153.8 1463.47C1085.76 1402.23 1076.35 1294.61 1135.11 1230.1C1174.05 1187.44 1234.26 1167.17 1304.09 1173.82V1133.74H1004.51V1506.14C977.762 1480.36 954.037 1457.95 931.207 1434.76C928.422 1429.77 927.322 1424 928.074 1418.33C928.074 1329.85 928.074 1241.47 928.074 1153.1V1133.51H616.516V1278.06C638.897 1258.14 660.383 1239.79 681.536 1221.77C700.895 1205.22 719.472 1188 740.175 1172.92C769.385 1152.09 780.464 1153.21 803.74 1180.23C820.758 1201.19 836.526 1223.15 850.968 1245.98C851.904 1248.35 852.24 1250.92 851.947 1253.45C851.654 1255.99 850.741 1258.41 849.288 1260.5C834.069 1278.17 817.953 1295.06 801.167 1313.18C792.214 1301.93 784.381 1290.67 775.428 1280.42C754.837 1256.67 743.757 1253.74 716.563 1267.93C686.01 1283.8 656.579 1301.7 626.363 1318.02C622.589 1319.82 619.476 1322.76 617.467 1326.45C615.457 1330.12 614.653 1334.35 615.172 1338.51C615.172 1388.05 615.172 1437.47 615.172 1487V1507.15C588.314 1480.81 564.365 1457.84 541.311 1434.2C538.402 1431.27 539.072 1424.18 539.072 1419C539.072 1330.07 539.072 1241.14 539.072 1152.2V1133.85H175.588V1244.18C183.421 1237.76 189.912 1232.13 196.738 1226.84C232.437 1198.81 269.704 1173.82 314.915 1164.59C333.344 1161.13 352.294 1161.71 370.482 1166.26C388.671 1170.82 405.674 1179.25 420.34 1191C435.007 1202.74 446.992 1217.51 455.487 1234.32C463.982 1251.13 468.787 1269.58 469.576 1288.42C472.374 1382.64 424.813 1446.02 348.713 1494.32C296.898 1526.96 244.972 1524.49 191.256 1501.86L174.916 1494.77V1685.47C147.722 1658.9 123.885 1636.05 100.831 1612.41C97.6979 1609.14 98.2575 1601.15 98.2575 1595.86C98.2575 1448.24 98.2575 1300.73 98.2575 1153.33V1132.39C83.4852 1132.39 69.8321 1131.49 56.4028 1132.39C51.5303 1133.01 46.5897 1132 42.3425 1129.52C38.0956 1127.04 34.7782 1123.22 32.9017 1118.65C22.7179 1100.31 11.0791 1082.86 0 1065.07V1058.77H1953.74C1956.07 1014.21 1951.8 969.557 1941.1 926.265C1937.05 917.114 1932.49 908.206 1927.43 899.583C1925.19 893.899 1924.64 887.677 1925.87 881.686C1961.06 893.237 1990.5 917.94 2008.12 950.692C2025.7 984.466 2029.5 1020.15 2030.51 1058.77H2091.38C2117.79 1058.77 2144.32 1058.77 2170.74 1058.77C2173.16 1058.77 2175.57 1059.29 2177.81 1060.28C2180.04 1061.27 2182.06 1062.71 2183.71 1064.51C2197.13 1086.68 2209.11 1108.41 2222.77 1132.16ZM386.428 1360.02C395.835 1336.72 398.323 1311.19 393.588 1286.5C391.788 1277.81 388.282 1269.57 383.275 1262.26C378.271 1254.95 371.863 1248.71 364.435 1243.92C357.004 1239.13 348.697 1235.88 340.004 1234.36C331.309 1232.84 322.4 1233.07 313.797 1235.06C274.629 1245.19 243.405 1270.41 209.609 1291.34C183.086 1307.78 164.844 1326.24 174.356 1354.95C174.356 1407.75 174.357 1407.75 195.732 1433.75C229.305 1474.62 278.098 1481.37 321.408 1450.64C351.752 1427.8 374.439 1396.18 386.428 1360.02Z" fill="#157E42"/>
<path d="M1015.24 935.835L966.674 986.381L961.526 982.103L914.523 939.213L969.473 885.064C983.461 900.712 999.689 918.949 1015.24 935.835Z" fill="#157E42"/>
<path d="M4903.69 1318.93C4892.02 1319.14 4880.39 1320.27 4868.89 1322.3C4861.53 1323.71 4854.69 1327.12 4849.12 1332.14C4843.54 1337.17 4839.43 1343.63 4837.23 1350.84C4835.04 1358.04 4834.82 1365.71 4836.63 1373.02C4838.45 1380.33 4842.2 1387 4847.5 1392.32C4859.53 1404.88 4874.5 1414.18 4891.05 1419.34C4929.46 1430.44 4970.42 1428.82 5007.87 1414.73C5011.75 1413.33 5015.5 1411.6 5019.08 1409.55C5047.28 1393.9 5049.63 1371.39 5023.54 1352.13C5008.41 1341.59 4992.25 1332.61 4975.32 1325.34C4940.52 1309.47 4905.03 1294.38 4880.75 1263.2C4869.61 1250.34 4861.92 1234.85 4858.36 1218.17C4851.19 1170.21 4894.85 1137.57 4946.44 1149.95C4952.48 1151.41 4958.52 1153.33 4965.57 1155.35V1120.91H4650.32C4650.32 1138.36 4650.32 1156.14 4650.32 1173.93C4650.32 1177.53 4655.81 1181.25 4659.17 1184.4C4706.39 1228.64 4703.92 1283.24 4651.44 1320.39C4607.4 1352.4 4554.37 1369.51 4500.03 1369.25C4480.34 1369.25 4473.17 1362.94 4467.68 1342.9C4483.47 1337.95 4499.24 1332.55 4515.36 1328.04C4548.7 1319.54 4579.93 1304.21 4607.12 1283.01C4618.31 1273.9 4627.94 1263.43 4625.15 1248.12C4623.65 1240.95 4619.9 1234.46 4614.43 1229.62C4608.95 1224.79 4602.07 1221.88 4594.81 1221.32C4521.63 1207.25 4460.53 1255.1 4449.32 1307.22C4445.85 1320.16 4445.63 1333.76 4448.68 1346.81C4451.73 1359.86 4457.95 1371.94 4466.78 1381.97C4514.13 1434.31 4598.05 1456.83 4660.51 1371.72L4705.28 1412.7C4669.66 1448.75 4621.5 1469.42 4570.98 1470.34C4537.22 1472.17 4503.68 1464.06 4474.43 1447C4445.21 1429.95 4421.55 1404.69 4406.36 1374.31C4360.82 1278.96 4417.55 1174.27 4524.31 1158.96C4543.44 1156.14 4563.04 1156.37 4583.74 1155.13V1121.36H4280V1206.35C4256.29 1206.35 4233.9 1206.35 4211.41 1206.35C4180.93 1205.89 4151.34 1216.61 4128.15 1236.52C4094.57 1264.21 4074.78 1299.34 4083.38 1344.14C4092 1388.95 4126.92 1410.56 4166.64 1422.94C4186.64 1429.57 4208.2 1429.73 4228.3 1423.39C4248.41 1417.05 4266.02 1404.53 4278.66 1387.6C4282.26 1383.09 4285.71 1378.48 4289.85 1372.74C4297.7 1379.72 4305.19 1386.13 4312.24 1392.77C4319.29 1399.42 4326.67 1406.51 4334.62 1414.05C4308.57 1441.44 4274.78 1460.11 4237.82 1467.52C4165.98 1481.82 4102.63 1465.95 4055.06 1407.18C3992.74 1330.07 4010.32 1185.07 4151.88 1165.37C4172.02 1162.56 4192.61 1163.23 4214.09 1162.22V1121.92H3940.81V1469.33C3932.42 1461.67 3927.05 1457.28 3922.24 1452.44C3904.66 1434.76 3880.72 1419.79 3871.65 1398.52C3862.59 1377.24 3869.08 1350.33 3869.08 1325.91C3869.08 1264.1 3869.08 1202.07 3869.08 1140.49V1121.92H3777.08C3760.42 1176.52 3745.07 1231.57 3726.84 1285.72C3713.96 1323.88 3698.19 1361.03 3682.07 1398.29C3671.66 1422.41 3654.57 1443 3632.84 1457.62C3601.16 1479.01 3573.64 1473.15 3559.31 1437.92C3525.07 1353.49 3492.94 1268.15 3460.28 1183.05C3453.56 1165.71 3448.53 1147.81 3441.69 1130.59C3440.64 1128.3 3439.09 1126.29 3437.14 1124.69C3435.2 1123.09 3432.93 1121.95 3430.5 1121.36C3346.89 1121.36 3263.3 1121.36 3178.58 1121.36V1256.45C3200.98 1237.31 3221 1219.3 3241.82 1201.73C3260.39 1185.98 3278.41 1169.31 3298.34 1155.58C3320.71 1140.27 3331.9 1141.73 3349.47 1162.11C3367.05 1182.49 3381.15 1204.55 3396.26 1226.28C3397.25 1228.13 3397.76 1230.2 3397.76 1232.3C3397.76 1234.4 3397.25 1236.47 3396.26 1238.32C3381.48 1255.54 3365.81 1272.1 3350.6 1288.53C3338.4 1274.57 3327.64 1261.63 3316.13 1249.47C3311.47 1243.87 3304.9 1240.24 3297.72 1239.28C3290.53 1238.32 3283.23 1240.11 3277.28 1244.29C3247.74 1260.84 3218.2 1277.27 3188.43 1293.26C3184.66 1295.02 3181.54 1297.94 3179.54 1301.61C3177.52 1305.27 3176.72 1309.48 3177.24 1313.63C3177.24 1364.29 3177.24 1414.95 3177.24 1470C3163.1 1454.69 3148.15 1440.15 3132.48 1426.43C3111.66 1410.11 3105.85 1390.64 3106.51 1364.52C3108.32 1289.99 3107.19 1215.36 3107.19 1140.72V1122.37H2982.08C2982.08 1139.14 2981.4 1156.14 2982.08 1172.8C2982.08 1177.53 2988 1182.37 2992.04 1186.2C3001.32 1193.71 3008.99 1203.05 3014.59 1213.63C3020.2 1224.21 3023.6 1235.83 3024.59 1247.78C3025.06 1261.74 3021.91 1275.59 3015.46 1287.96C3008.99 1300.33 2999.46 1310.81 2987.79 1318.36C2942.94 1351.95 2888.58 1370.18 2832.66 1370.37C2811.96 1370.37 2804.37 1363.62 2800.56 1343.69C2819.36 1337.84 2838.26 1331.65 2857.41 1326.02C2887.47 1317.54 2915.54 1303.03 2939.89 1283.35C2951.08 1274.23 2960.48 1263.54 2957 1248C2955.25 1241.23 2951.47 1235.15 2946.2 1230.59C2940.92 1226.02 2934.38 1223.18 2927.46 1222.45C2855.39 1207.93 2792.5 1254.65 2781.97 1309.13C2778.71 1321.83 2778.6 1335.13 2781.61 1347.89C2784.64 1360.64 2790.71 1372.46 2799.32 1382.3C2850.57 1439.38 2933.62 1451.88 2987.67 1379.6L2993.38 1372.51L3038.15 1413.49C3014.43 1438.96 2983.67 1456.68 2949.84 1464.37C2875.53 1481.82 2809.16 1468.09 2759.6 1406.4C2682.38 1310.37 2735.09 1177.98 2856.73 1159.86C2875.88 1157.04 2895.57 1157.27 2916.49 1156.03V1122.26H2587.02V1207.48C2568.12 1203.31 2550.99 1198.58 2533.65 1196.22C2522.21 1194.68 2510.6 1195.06 2499.29 1197.34C2479.04 1201.73 2472.88 1215.36 2481.27 1234.61C2492.59 1259.02 2512.54 1278.32 2537.22 1288.76C2562.53 1300.8 2588.71 1311.27 2613.88 1322.53C2628.74 1329.44 2642.86 1337.81 2656.08 1347.52C2676.22 1362.72 2679.47 1378.59 2670.84 1402.45C2657.54 1439.04 2627.32 1455.59 2593.86 1468.2C2589.72 1469.78 2585.35 1471.01 2577.74 1473.49L2619.26 1497.36L2579.08 1542.39C2553.32 1529.87 2530.44 1512.08 2511.94 1490.15C2506.56 1484.31 2499.47 1480.37 2491.68 1478.89C2445.24 1472.03 2400.48 1460.66 2361.98 1431.84C2338.25 1414.05 2320.13 1391.76 2317.21 1361.25C2311.95 1304.97 2350 1271.98 2405.29 1281.66C2420.98 1284.31 2435.8 1290.69 2448.56 1300.27C2461.3 1309.84 2471.6 1322.33 2478.59 1336.71C2491.56 1360.47 2504.67 1384.11 2517.08 1408.08C2518.29 1411.45 2520.23 1414.5 2522.75 1417.02C2525.28 1419.54 2528.33 1421.46 2531.67 1422.64C2535.03 1423.83 2538.6 1424.25 2542.14 1423.87C2545.67 1423.5 2549.09 1422.33 2552.12 1420.47C2562.43 1416.53 2572.4 1411.71 2581.87 1406.06C2600.79 1392.77 2602.69 1374.65 2585.58 1359.11C2572.92 1348.18 2558.98 1338.84 2544.06 1331.31C2520.77 1318.81 2496.26 1308.79 2473.33 1295.62C2450.82 1283.32 2432.46 1264.55 2420.62 1241.7C2398.24 1198.25 2422.64 1152.43 2471.09 1148.83C2488.07 1148.95 2505.02 1150.38 2521.78 1153.1V1120.12H2504.32C2442.33 1120.12 2380.45 1120.12 2318.44 1120.12C2313.6 1120.65 2308.71 1119.57 2304.53 1117.05C2300.36 1114.53 2297.09 1110.71 2295.29 1106.16C2286.1 1087.7 2275.48 1070.02 2264.17 1049.87H2283.19C2700.4 1049.87 3117.64 1049.87 3534.91 1049.87C3540.25 1049.26 3545.65 1050.46 3550.26 1053.27C3554.86 1056.08 3558.39 1060.35 3560.32 1065.41C3569.15 1083.42 3579.56 1100.53 3590.54 1120.23H3516C3527.18 1152.2 3537.71 1182.15 3548.57 1211.87C3566.47 1261.29 3584.15 1310.71 3602.85 1359.68C3613.24 1386.81 3625.22 1388.83 3645.36 1367.67C3652.78 1360.2 3659.13 1351.76 3664.28 1342.57C3699.98 1272.88 3721.13 1197.79 3745.97 1121.02C3722.7 1121.02 3701.2 1121.02 3679.95 1121.02C3676.38 1121.51 3672.75 1120.8 3669.6 1119.01C3666.47 1117.22 3664.01 1114.45 3662.61 1111.11C3651.97 1091.08 3640.78 1072.39 3628.47 1049.87H3646.04C4140.01 1049.87 4634.02 1049.87 5128.07 1049.87C5132.91 1049.26 5137.8 1050.25 5142.01 1052.68C5146.23 1055.12 5149.55 1058.88 5151.45 1063.38C5160.52 1081.84 5171.38 1099.52 5182.68 1119.67H5031.04V1207.48C5013.72 1202.84 4996.16 1199.09 4978.45 1196.22C4965.41 1194.79 4952.25 1195.63 4939.51 1198.7C4936.18 1199.24 4933.04 1200.58 4930.32 1202.6C4927.62 1204.61 4925.42 1207.25 4923.93 1210.29C4922.45 1213.33 4921.7 1216.68 4921.75 1220.07C4921.83 1223.46 4922.69 1226.78 4924.28 1229.77C4929.23 1242.7 4936.75 1254.49 4946.38 1264.41C4955.99 1274.34 4967.51 1282.2 4980.23 1287.52C5005.87 1299.9 5032.5 1310.03 5058.58 1322.53C5072.52 1328.68 5085.85 1336.22 5098.3 1345.04C5121.58 1362.49 5124.94 1379.72 5113.19 1406.51C5106.43 1421.05 5096.55 1433.9 5084.24 1444.1C5071.92 1454.31 5057.49 1461.62 5042.01 1465.5C5003.44 1478.19 4962.5 1481.85 4922.32 1476.19C4882.11 1470.53 4843.76 1455.71 4810.14 1432.85C4792.56 1423.04 4778.58 1407.82 4770.27 1389.41C4761.93 1371.01 4759.72 1350.4 4763.91 1330.63C4770.63 1299.34 4786.29 1286.84 4818.74 1286.95C4849.93 1287.14 4880.04 1298.47 4903.69 1318.93ZM2468.18 1428.12C2449.26 1393 2436.41 1357.54 2399.35 1341.55C2393.89 1347.68 2390.73 1355.52 2390.4 1363.74C2390.07 1371.96 2392.61 1380.04 2397.56 1386.58C2405.14 1398.72 2415.51 1408.84 2427.8 1416.07C2440.1 1423.31 2453.94 1427.44 2468.18 1428.12Z" fill="#FD642A"/>
<path d="M3908.12 889.902L3953.45 937.521L3905.77 984.466L3859 939.436L3908.12 889.902Z" fill="#FD642A"/>
<path d="M2955.1 283.687C2955.18 282.114 2954.92 280.541 2954.36 279.071C2953.8 277.599 2952.94 276.265 2951.84 275.15C2950.73 274.035 2949.41 273.167 2947.93 272.602C2946.48 272.037 2944.92 271.787 2943.35 271.868H2935.74C2937.52 270.887 2939 269.437 2940.03 267.671C2941.06 265.906 2941.58 263.892 2941.56 261.849C2941.64 260.276 2941.39 258.703 2940.82 257.231C2940.26 255.761 2939.41 254.425 2938.3 253.31C2937.19 252.197 2935.85 251.329 2934.4 250.764C2932.94 250.199 2931.37 249.948 2929.81 250.028H2921.42C2923.52 249.162 2925.31 247.676 2926.53 245.767C2927.77 243.856 2928.41 241.613 2928.36 239.333C2928.43 236.762 2927.62 234.243 2926.08 232.194C2924.53 230.145 2922.33 228.693 2919.85 228.077C2921.83 223.389 2922.84 218.345 2922.84 213.249C2922.84 208.155 2921.79 203.116 2919.81 198.434C2917.81 193.751 2914.88 189.525 2911.23 186.01C2907.55 182.495 2903.22 179.764 2898.47 177.98H2878C2873.37 179.904 2869.16 182.726 2865.62 186.286C2862.09 189.848 2859.27 194.076 2857.37 198.729C2855.45 203.384 2854.48 208.371 2854.48 213.407C2854.48 218.442 2855.49 223.428 2857.41 228.077C2854.9 228.671 2852.67 230.114 2851.1 232.165C2849.54 234.216 2848.71 236.746 2848.79 239.333C2848.73 241.613 2849.37 243.856 2850.59 245.767C2851.83 247.676 2853.62 249.162 2855.72 250.028H2847.33C2845.72 249.863 2844.1 250.051 2842.57 250.579C2841.04 251.106 2839.64 251.96 2838.47 253.085C2837.29 254.207 2836.37 255.572 2835.79 257.087C2835.19 258.6 2834.94 260.224 2835.02 261.849C2835 263.892 2835.52 265.906 2836.55 267.671C2837.58 269.437 2839.05 270.887 2840.84 271.868H2833.67C2832.16 271.866 2830.66 272.175 2829.27 272.775C2827.87 273.375 2826.61 274.257 2825.56 275.362C2824.51 276.467 2823.69 277.776 2823.17 279.207C2822.64 280.638 2822.41 282.163 2822.49 283.687C2822.47 285.591 2822.93 287.467 2823.83 289.141C2824.74 290.813 2826.04 292.23 2827.63 293.258C2790.33 350.5 2766.88 415.733 2759.13 483.734H3018.78C3011.03 415.733 2987.59 350.5 2950.28 293.258C2951.82 292.19 2953.06 290.756 2953.89 289.086C2954.73 287.416 2955.16 285.559 2955.1 283.687Z" fill="#FD642A"/>
<path d="M3476.28 1024.54C3460.33 860.218 3413.94 700.347 3339.51 553.193C3344.6 550.437 3348.76 546.205 3351.42 541.045C3354.08 535.887 3355.13 530.04 3354.45 524.27C3353.75 518.498 3351.36 513.068 3347.55 508.691C3343.75 504.312 3338.73 501.185 3333.14 499.719V488.462C3338.73 486.998 3342.76 483.959 3342.76 480.356C3342.76 476.754 3338.5 473.602 3332.58 472.25L3330.56 406.621C3330.56 405.426 3330.09 404.281 3329.26 403.436C3328.42 402.591 3327.28 402.117 3326.09 402.117C3324.91 402.117 3323.76 402.591 3322.93 403.436C3322.09 404.281 3321.6 405.426 3321.6 406.621L3319.6 472.25C3313.66 473.602 3309.52 476.754 3309.52 480.356C3309.52 483.959 3313.45 486.998 3319.16 488.462V499.719C3313.54 501.171 3308.51 504.286 3304.71 508.658C3300.88 513.029 3298.47 518.455 3297.77 524.229C3297.08 530.003 3298.12 535.854 3300.78 541.02C3303.43 546.186 3307.56 550.429 3312.65 553.193C3247.14 682.681 3202.98 822.03 3181.94 965.778V860.972H3172.99C3139.43 793.428 3077.42 525.837 3016.32 496.792H2760.71C2699.84 525.837 2637.61 793.202 2604.03 860.972H2595.2V965.553C2574.47 821.962 2530.76 682.702 2465.71 553.193C2470.8 550.429 2474.94 546.186 2477.6 541.02C2480.26 535.854 2481.31 530.003 2480.61 524.229C2479.91 518.455 2477.48 513.029 2473.68 508.658C2469.87 504.286 2464.82 501.171 2459.23 499.719V488.462C2464.94 486.998 2468.86 483.959 2468.86 480.356C2468.86 476.754 2464.72 473.602 2458.78 472.25L2456.76 406.621C2456.72 405.473 2456.23 404.387 2455.42 403.576C2454.62 402.764 2453.54 402.284 2452.41 402.23C2451.81 402.214 2451.22 402.315 2450.68 402.529C2450.14 402.741 2449.63 403.061 2449.2 403.469C2448.78 403.877 2448.43 404.364 2448.19 404.906C2447.96 405.446 2447.83 406.028 2447.81 406.621L2445.81 472.25C2439.86 473.602 2435.61 476.754 2435.61 480.356C2435.61 483.959 2439.65 486.998 2445.24 488.462V499.719C2439.65 501.185 2434.62 504.312 2430.83 508.691C2427.02 513.068 2424.62 518.498 2423.94 524.27C2423.26 530.04 2424.31 535.887 2426.97 541.045C2429.63 546.205 2433.76 550.437 2438.85 553.193C2364.43 700.347 2318.05 860.218 2302.1 1024.54H2292.94V1055.5H3487.8V1024.54H3476.28Z" fill="#FD642A"/>
<path d="M2893.77 12.4961H2887.16V181.02H2893.77V12.4961Z" fill="#01529C"/>
<path d="M2897.48 6.97971C2897.48 8.83087 2896.74 10.6061 2895.44 11.915C2894.13 13.224 2892.37 13.9594 2890.52 13.9594C2888.7 13.9594 2886.93 13.224 2885.63 11.915C2884.33 10.6061 2883.59 8.83087 2883.59 6.97971C2883.59 3.15211 2890.52 0 2890.52 0C2890.52 0 2897.48 2.92697 2897.48 6.97971Z" fill="#DAD9ED"/>
<path d="M3073.84 120.229C3067.32 112.762 3059.3 106.743 3050.34 102.555C3040.24 101.293 3030.55 97.836 3021.91 92.4231C3013.95 86.7279 3005.42 81.8268 2996.51 77.7885C3006.22 75.6542 3015.66 72.3665 3024.59 67.9943C3034.55 62.3657 3039.37 52.0088 3048.44 48.2938C3053.88 46.1357 3059.7 45.1021 3065.55 45.2543C3056.44 39.3278 3045.6 36.634 3034.79 37.5992C3018.74 40.2099 3002.29 37.7722 2987.67 30.6195C2976.4 23.8085 2963.26 20.8467 2950.19 22.1764C2938.84 23.3364 2927.38 21.9918 2916.61 18.2364C2906.55 15.7114 2896.19 14.5751 2885.82 14.859V124.282C2887.65 124.248 2889.45 124.476 2891.2 124.957C2907.4 128.865 2924.01 130.756 2940.67 130.586C2956.56 128.897 2979.49 122.593 2992.14 122.931C3004.8 123.269 3025.72 132.274 3045.64 125.858C3057.28 122.056 3069.75 121.743 3081.55 124.957C3081.55 124.957 3076.08 121.918 3073.84 120.229Z" fill="#01529C"/>
<path d="M2848.45 854.554C2848.45 854.554 2847.77 846.337 2853.48 847.686C2909.44 860.521 2927.58 738.489 3003.67 737.477C3056.71 736.689 3091.96 790.499 3090.06 847.686C3086.49 954.52 3022.36 977.149 2998.97 977.149C2927.46 977.149 2922.88 896.544 2939.99 872.115C2943.91 899.584 2967.74 933.243 2996.62 933.243C3036.13 933.243 3059.3 893.618 3060.4 854.443C3061.65 808.512 3034.44 784.533 3004.45 782.282C2952.87 778.229 2945.93 865.812 2884.27 865.812C2854.49 865.812 2864.56 891.367 2862.44 877.07C2862.21 874.368 2847.56 856.018 2848.45 854.554Z" fill="white"/>
<path d="M2720.43 737.478C2735.87 705.844 2772.9 686.705 2813.86 686.705C2836.24 686.705 2884.6 700.777 2884.6 753.012C2884.42 769.961 2878.54 786.351 2867.92 799.499C2857.27 812.649 2842.53 821.78 2826.06 825.398C2871.39 845.999 2907.21 875.381 2904.41 941.575C2902.37 963.388 2892.23 983.624 2875.99 998.236C2859.78 1012.85 2838.67 1020.76 2816.89 1020.38C2697.59 1020.38 2660.22 894.745 2683.49 824.948C2686.17 866.713 2716.39 962.402 2809.61 962.402C2842.63 962.402 2860.75 940.562 2860.42 914.67C2859.76 852.191 2779.95 844.31 2781.41 825.398C2783.55 799.169 2850.46 798.944 2850.46 765.282C2850.46 738.039 2828.08 731.51 2811.51 731.51C2786.67 731.51 2766.09 754.026 2750.18 765.282C2726.02 782.619 2709.34 760.105 2720.43 737.478Z" fill="white"/>
<path d="M2851.7 589.328C2830.55 613.644 2847.68 684.228 2922.65 701.114C2978.6 713.724 3033.66 692.334 3033.66 660.137C3033.93 656.575 3033.45 652.998 3032.28 649.631C3031.1 646.263 3029.23 643.179 3026.78 640.575C3024.36 637.971 3021.42 635.904 3018.16 634.504C3014.88 633.104 3011.36 632.403 3007.81 632.443C2985.44 632.443 2993.5 663.402 2938.55 663.402C2917.63 663.576 2897.38 656.193 2881.43 642.597C2865.51 629 2854.94 610.096 2851.7 589.328Z" fill="white"/>
<path d="M2967.74 607.452C2967.74 613.71 2965.9 619.825 2962.44 625.028C2958.98 630.231 2954.09 634.284 2948.34 636.678C2942.59 639.073 2936.26 639.7 2930.16 638.478C2924.06 637.259 2918.47 634.245 2914.06 629.821C2909.67 625.397 2906.68 619.761 2905.46 613.624C2904.25 607.487 2904.87 601.127 2907.24 595.348C2909.63 589.568 2913.65 584.627 2918.84 581.151C2924 577.675 2930.08 575.82 2936.3 575.82C2944.63 575.82 2952.63 579.153 2958.54 585.086C2964.44 591.017 2967.74 599.063 2967.74 607.452Z" fill="white"/>
<path d="M1624.73 1722.45C1624.73 1734.35 1622.48 1744.47 1617.97 1752.82C1613.49 1761.16 1607.38 1767.54 1599.64 1771.94C1591.94 1776.31 1583.27 1778.49 1573.65 1778.49C1563.95 1778.49 1555.25 1776.29 1547.55 1771.89C1539.84 1767.48 1533.75 1761.11 1529.28 1752.76C1524.8 1744.42 1522.56 1734.32 1522.56 1722.45C1522.56 1710.56 1524.8 1700.44 1529.28 1692.09C1533.75 1683.75 1539.84 1677.39 1547.55 1673.02C1555.25 1668.62 1563.95 1666.42 1573.65 1666.42C1583.27 1666.42 1591.94 1668.62 1599.64 1673.02C1607.38 1677.39 1613.49 1683.75 1617.97 1692.09C1622.48 1700.44 1624.73 1710.56 1624.73 1722.45ZM1601.35 1722.45C1601.35 1714.75 1600.19 1708.25 1597.88 1702.96C1595.61 1697.67 1592.4 1693.65 1588.24 1690.92C1584.09 1688.19 1579.22 1686.82 1573.65 1686.82C1568.07 1686.82 1563.21 1688.19 1559.05 1690.92C1554.9 1693.65 1551.67 1697.67 1549.36 1702.96C1547.08 1708.25 1545.95 1714.75 1545.95 1722.45C1545.95 1730.16 1547.08 1736.66 1549.36 1741.95C1551.67 1747.24 1554.9 1751.25 1559.05 1753.99C1563.21 1756.72 1568.07 1758.09 1573.65 1758.09C1579.22 1758.09 1584.09 1756.72 1588.24 1753.99C1592.4 1751.25 1595.61 1747.24 1597.88 1741.95C1600.19 1736.66 1601.35 1730.16 1601.35 1722.45ZM1651.89 1777V1695.18H1673.89V1709.46H1674.74C1676.23 1704.38 1678.74 1700.54 1682.25 1697.95C1685.77 1695.32 1689.82 1694.01 1694.4 1694.01C1695.53 1694.01 1696.76 1694.08 1698.07 1694.22C1699.39 1694.37 1700.54 1694.56 1701.53 1694.81V1714.94C1700.47 1714.62 1699 1714.34 1697.11 1714.09C1695.23 1713.84 1693.51 1713.72 1691.95 1713.72C1688.61 1713.72 1685.63 1714.45 1683 1715.9C1680.41 1717.32 1678.35 1719.31 1676.82 1721.87C1675.33 1724.43 1674.58 1727.37 1674.58 1730.71V1777H1651.89ZM1756.82 1809.39C1749.47 1809.39 1743.16 1808.37 1737.91 1806.35C1732.69 1804.36 1728.53 1801.64 1725.44 1798.2C1722.35 1794.76 1720.35 1790.88 1719.43 1786.59L1740.41 1783.76C1741.05 1785.4 1742.06 1786.93 1743.45 1788.35C1744.83 1789.77 1746.66 1790.9 1748.94 1791.75C1751.24 1792.64 1754.05 1793.09 1757.35 1793.09C1762.29 1793.09 1766.35 1791.88 1769.55 1789.46C1772.78 1787.09 1774.4 1783.09 1774.4 1777.48V1762.51H1773.44C1772.44 1764.78 1770.95 1766.93 1768.96 1768.96C1766.97 1770.98 1764.42 1772.63 1761.29 1773.91C1758.17 1775.19 1754.44 1775.83 1750.11 1775.83C1743.96 1775.83 1738.37 1774.41 1733.33 1771.57C1728.32 1768.69 1724.33 1764.3 1721.34 1758.41C1718.4 1752.48 1716.92 1744.99 1716.92 1735.93C1716.92 1726.66 1718.43 1718.92 1721.45 1712.71C1724.47 1706.49 1728.48 1701.84 1733.49 1698.75C1738.53 1695.66 1744.05 1694.12 1750.05 1694.12C1754.63 1694.12 1758.47 1694.9 1761.56 1696.46C1764.65 1697.99 1767.13 1699.9 1769.02 1702.21C1770.93 1704.49 1772.41 1706.72 1773.44 1708.92H1774.29V1695.18H1796.82V1777.8C1796.82 1784.76 1795.12 1790.58 1791.71 1795.27C1788.3 1799.96 1783.58 1803.47 1777.54 1805.82C1771.54 1808.2 1764.63 1809.39 1756.82 1809.39ZM1757.3 1758.78C1760.96 1758.78 1764.05 1757.88 1766.57 1756.07C1769.12 1754.22 1771.08 1751.59 1772.43 1748.18C1773.81 1744.74 1774.5 1740.62 1774.5 1735.82C1774.5 1731.03 1773.83 1726.88 1772.48 1723.36C1771.13 1719.81 1769.18 1717.06 1766.62 1715.1C1764.06 1713.15 1760.96 1712.17 1757.3 1712.17C1753.57 1712.17 1750.43 1713.19 1747.87 1715.21C1745.31 1717.2 1743.38 1719.97 1742.06 1723.52C1740.75 1727.07 1740.09 1731.17 1740.09 1735.82C1740.09 1740.55 1740.75 1744.63 1742.06 1748.08C1743.41 1751.49 1745.35 1754.13 1747.87 1756.01C1750.43 1757.86 1753.57 1758.78 1757.3 1758.78ZM1848.71 1778.54C1843.49 1778.54 1838.84 1777.64 1834.75 1775.83C1830.67 1773.98 1827.44 1771.26 1825.06 1767.68C1822.72 1764.06 1821.54 1759.55 1821.54 1754.15C1821.54 1749.6 1822.38 1745.79 1824.05 1742.7C1825.72 1739.61 1827.99 1737.12 1830.87 1735.24C1833.74 1733.36 1837.01 1731.94 1840.67 1730.98C1844.36 1730.02 1848.23 1729.34 1852.28 1728.95C1857.04 1728.46 1860.87 1727.99 1863.79 1727.57C1866.7 1727.11 1868.81 1726.43 1870.12 1725.54C1871.44 1724.66 1872.09 1723.34 1872.09 1721.6V1721.28C1872.09 1717.91 1871.03 1715.3 1868.9 1713.45C1866.8 1711.61 1863.82 1710.68 1859.95 1710.68C1855.87 1710.68 1852.62 1711.59 1850.2 1713.4C1847.79 1715.17 1846.19 1717.41 1845.41 1720.11L1824.42 1718.41C1825.49 1713.43 1827.58 1709.14 1830.71 1705.52C1833.83 1701.86 1837.86 1699.05 1842.8 1697.1C1847.77 1695.11 1853.52 1694.12 1860.06 1694.12C1864.6 1694.12 1868.95 1694.65 1873.11 1695.71C1877.3 1696.78 1881.01 1698.43 1884.24 1700.67C1887.51 1702.91 1890.08 1705.78 1891.96 1709.3C1893.85 1712.78 1894.79 1716.95 1894.79 1721.82V1777H1873.27V1765.65H1872.63C1871.31 1768.21 1869.56 1770.47 1867.35 1772.42C1865.15 1774.34 1862.51 1775.85 1859.42 1776.95C1856.33 1778.01 1852.76 1778.54 1848.71 1778.54ZM1855.21 1762.88C1858.55 1762.88 1861.49 1762.23 1864.05 1760.91C1866.61 1759.56 1868.61 1757.75 1870.07 1755.48C1871.53 1753.21 1872.25 1750.63 1872.25 1747.76V1739.07C1871.54 1739.54 1870.57 1739.96 1869.32 1740.35C1868.12 1740.71 1866.75 1741.04 1865.22 1741.36C1863.7 1741.65 1862.17 1741.91 1860.64 1742.16C1859.12 1742.38 1857.73 1742.57 1856.49 1742.75C1853.82 1743.14 1851.5 1743.76 1849.51 1744.61C1847.52 1745.47 1845.98 1746.62 1844.88 1748.08C1843.77 1749.5 1843.22 1751.27 1843.22 1753.4C1843.22 1756.49 1844.34 1758.85 1846.58 1760.49C1848.85 1762.09 1851.73 1762.88 1855.21 1762.88ZM1945.58 1729.7V1777H1922.89V1695.18H1944.52V1709.62H1945.48C1947.29 1704.86 1950.32 1701.09 1954.59 1698.32C1958.85 1695.52 1964.01 1694.12 1970.09 1694.12C1975.77 1694.12 1980.72 1695.36 1984.95 1697.85C1989.17 1700.33 1992.46 1703.88 1994.8 1708.5C1997.15 1713.08 1998.32 1718.55 1998.32 1724.9V1777H1975.63V1728.95C1975.66 1723.95 1974.38 1720.04 1971.79 1717.23C1969.2 1714.39 1965.63 1712.97 1961.08 1712.97C1958.03 1712.97 1955.33 1713.63 1952.99 1714.94C1950.68 1716.26 1948.87 1718.18 1947.55 1720.7C1946.28 1723.18 1945.62 1726.18 1945.58 1729.7ZM2026.7 1777V1695.18H2049.39V1777H2026.7ZM2038.1 1684.63C2034.73 1684.63 2031.83 1683.52 2029.42 1681.28C2027.04 1679.01 2025.85 1676.29 2025.85 1673.13C2025.85 1670 2027.04 1667.32 2029.42 1665.09C2031.83 1662.81 2034.73 1661.68 2038.1 1661.68C2041.47 1661.68 2044.35 1662.81 2046.73 1665.09C2049.15 1667.32 2050.35 1670 2050.35 1673.13C2050.35 1676.29 2049.15 1679.01 2046.73 1681.28C2044.35 1683.52 2041.47 1684.63 2038.1 1684.63ZM2077.64 1777V1763.47L2117.7 1713.88V1713.29H2079.03V1695.18H2145.03V1709.94L2107.42 1758.3V1758.89H2146.41V1777H2077.64ZM2174.26 1777V1695.18H2196.96V1777H2174.26ZM2185.66 1684.63C2182.29 1684.63 2179.4 1683.52 2176.98 1681.28C2174.6 1679.01 2173.41 1676.29 2173.41 1673.13C2173.41 1670 2174.6 1667.32 2176.98 1665.09C2179.4 1662.81 2182.29 1661.68 2185.66 1661.68C2189.04 1661.68 2191.91 1662.81 2194.29 1665.09C2196.71 1667.32 2197.91 1670 2197.91 1673.13C2197.91 1676.29 2196.71 1679.01 2194.29 1681.28C2191.91 1683.52 2189.04 1684.63 2185.66 1684.63ZM2248.33 1729.7V1777H2225.63V1695.18H2247.26V1709.62H2248.22C2250.03 1704.86 2253.07 1701.09 2257.33 1698.32C2261.59 1695.52 2266.76 1694.12 2272.83 1694.12C2278.51 1694.12 2283.46 1695.36 2287.69 1697.85C2291.92 1700.33 2295.2 1703.88 2297.54 1708.5C2299.89 1713.08 2301.06 1718.55 2301.06 1724.9V1777H2278.37V1728.95C2278.4 1723.95 2277.13 1720.04 2274.53 1717.23C2271.94 1714.39 2268.37 1712.97 2263.83 1712.97C2260.77 1712.97 2258.07 1713.63 2255.73 1714.94C2253.42 1716.26 2251.61 1718.18 2250.3 1720.7C2249.02 1723.18 2248.36 1726.18 2248.33 1729.7ZM2366.3 1809.39C2358.95 1809.39 2352.65 1808.37 2347.4 1806.35C2342.17 1804.36 2338.02 1801.64 2334.93 1798.2C2331.84 1794.76 2329.83 1790.88 2328.91 1786.59L2349.9 1783.76C2350.54 1785.4 2351.55 1786.93 2352.93 1788.35C2354.32 1789.77 2356.15 1790.9 2358.42 1791.75C2360.73 1792.64 2363.53 1793.09 2366.84 1793.09C2371.77 1793.09 2375.84 1791.88 2379.04 1789.46C2382.27 1787.09 2383.88 1783.09 2383.88 1777.48V1762.51H2382.92C2381.93 1764.78 2380.44 1766.93 2378.45 1768.96C2376.46 1770.98 2373.9 1772.63 2370.78 1773.91C2367.65 1775.19 2363.93 1775.83 2359.59 1775.83C2353.45 1775.83 2347.86 1774.41 2342.81 1771.57C2337.81 1768.69 2333.81 1764.3 2330.83 1758.41C2327.88 1752.48 2326.41 1744.99 2326.41 1735.93C2326.41 1726.66 2327.92 1718.92 2330.94 1712.71C2333.95 1706.49 2337.97 1701.84 2342.97 1698.75C2348.02 1695.66 2353.54 1694.12 2359.54 1694.12C2364.12 1694.12 2367.96 1694.9 2371.05 1696.46C2374.14 1697.99 2376.62 1699.9 2378.5 1702.21C2380.42 1704.49 2381.89 1706.72 2382.92 1708.92H2383.78V1695.18H2406.31V1777.8C2406.31 1784.76 2404.6 1790.58 2401.19 1795.27C2397.79 1799.96 2393.06 1803.47 2387.03 1805.82C2381.02 1808.2 2374.12 1809.39 2366.3 1809.39ZM2366.78 1758.78C2370.44 1758.78 2373.53 1757.88 2376.05 1756.07C2378.61 1754.22 2380.56 1751.59 2381.91 1748.18C2383.3 1744.74 2383.99 1740.62 2383.99 1735.82C2383.99 1731.03 2383.31 1726.88 2381.97 1723.36C2380.62 1719.81 2378.66 1717.06 2376.11 1715.1C2373.55 1713.15 2370.44 1712.17 2366.78 1712.17C2363.06 1712.17 2359.91 1713.19 2357.36 1715.21C2354.8 1717.2 2352.86 1719.97 2351.55 1723.52C2350.24 1727.07 2349.58 1731.17 2349.58 1735.82C2349.58 1740.55 2350.24 1744.63 2351.55 1748.08C2352.9 1751.49 2354.83 1754.13 2357.36 1756.01C2359.91 1757.86 2363.06 1758.78 2366.78 1758.78ZM2539.69 1699.28C2539.26 1694.99 2537.43 1691.65 2534.2 1689.27C2530.97 1686.89 2526.58 1685.7 2521.05 1685.7C2517.28 1685.7 2514.1 1686.23 2511.51 1687.3C2508.92 1688.33 2506.93 1689.77 2505.54 1691.61C2504.19 1693.46 2503.52 1695.55 2503.52 1697.9C2503.45 1699.85 2503.86 1701.56 2504.75 1703.01C2505.67 1704.47 2506.93 1705.73 2508.53 1706.79C2510.13 1707.82 2511.97 1708.73 2514.07 1709.51C2516.16 1710.26 2518.4 1710.9 2520.78 1711.43L2530.58 1713.77C2535.34 1714.84 2539.71 1716.26 2543.68 1718.03C2547.66 1719.81 2551.11 1721.99 2554.02 1724.59C2556.93 1727.18 2559.18 1730.23 2560.78 1733.75C2562.42 1737.26 2563.25 1741.29 2563.29 1745.84C2563.25 1752.51 2561.55 1758.3 2558.17 1763.2C2554.83 1768.07 2550 1771.85 2543.68 1774.55C2537.4 1777.21 2529.82 1778.54 2520.94 1778.54C2512.13 1778.54 2504.46 1777.2 2497.93 1774.5C2491.43 1771.8 2486.35 1767.8 2482.69 1762.51C2479.07 1757.18 2477.17 1750.6 2476.99 1742.75H2499.31C2499.56 1746.41 2500.61 1749.46 2502.45 1751.91C2504.34 1754.33 2506.84 1756.15 2509.97 1757.4C2513.13 1758.61 2516.69 1759.21 2520.67 1759.21C2524.58 1759.21 2527.97 1758.64 2530.85 1757.5C2533.76 1756.37 2536.01 1754.79 2537.61 1752.76C2539.21 1750.74 2540.01 1748.41 2540.01 1745.79C2540.01 1743.34 2539.28 1741.28 2537.82 1739.61C2536.4 1737.94 2534.31 1736.52 2531.54 1735.35C2528.8 1734.17 2525.45 1733.11 2521.47 1732.15L2509.59 1729.17C2500.4 1726.93 2493.13 1723.43 2487.81 1718.67C2482.48 1713.91 2479.83 1707.5 2479.87 1699.44C2479.83 1692.84 2481.59 1687.07 2485.14 1682.13C2488.73 1677.2 2493.65 1673.34 2499.9 1670.57C2506.15 1667.8 2513.25 1666.42 2521.2 1666.42C2529.3 1666.42 2536.37 1667.8 2542.41 1670.57C2548.48 1673.34 2553.2 1677.2 2556.57 1682.13C2559.95 1687.07 2561.69 1692.78 2561.79 1699.28H2539.69ZM2588.87 1807.68V1695.18H2611.25V1708.92H2612.26C2613.25 1706.72 2614.69 1704.49 2616.57 1702.21C2618.49 1699.9 2620.98 1697.99 2624.03 1696.46C2627.12 1694.9 2630.95 1694.12 2635.54 1694.12C2641.5 1694.12 2647.01 1695.68 2652.05 1698.8C2657.09 1701.89 2661.12 1706.56 2664.14 1712.81C2667.16 1719.03 2668.67 1726.82 2668.67 1736.2C2668.67 1745.32 2667.19 1753.03 2664.25 1759.32C2661.33 1765.57 2657.36 1770.31 2652.31 1773.54C2647.31 1776.73 2641.7 1778.33 2635.48 1778.33C2631.08 1778.33 2627.33 1777.6 2624.24 1776.15C2621.19 1774.69 2618.69 1772.86 2616.73 1770.66C2614.78 1768.42 2613.29 1766.17 2612.26 1763.9H2611.57V1807.68H2588.87ZM2611.09 1736.09C2611.09 1740.96 2611.76 1745.2 2613.11 1748.82C2614.46 1752.44 2616.41 1755.27 2618.97 1757.29C2621.53 1759.28 2624.63 1760.27 2628.29 1760.27C2631.98 1760.27 2635.11 1759.26 2637.67 1757.24C2640.22 1755.18 2642.16 1752.34 2643.47 1748.72C2644.82 1745.06 2645.5 1740.85 2645.5 1736.09C2645.5 1731.37 2644.84 1727.21 2643.53 1723.63C2642.21 1720.04 2640.28 1717.23 2637.72 1715.21C2635.16 1713.19 2632.02 1712.17 2628.29 1712.17C2624.6 1712.17 2621.47 1713.15 2618.92 1715.1C2616.4 1717.06 2614.46 1719.83 2613.11 1723.41C2611.76 1727 2611.09 1731.23 2611.09 1736.09ZM2694.3 1777V1695.18H2716.99V1777H2694.3ZM2705.69 1684.63C2702.32 1684.63 2699.43 1683.52 2697.01 1681.28C2694.63 1679.01 2693.44 1676.29 2693.44 1673.13C2693.44 1670 2694.63 1667.32 2697.01 1665.09C2699.43 1662.81 2702.32 1661.68 2705.69 1661.68C2709.07 1661.68 2711.94 1662.81 2714.32 1665.09C2716.74 1667.32 2717.95 1670 2717.95 1673.13C2717.95 1676.29 2716.74 1679.01 2714.32 1681.28C2711.94 1683.52 2709.07 1684.63 2705.69 1684.63ZM2745.66 1777V1695.18H2767.66V1709.46H2768.52C2770.01 1704.38 2772.51 1700.54 2776.03 1697.95C2779.54 1695.32 2783.59 1694.01 2788.17 1694.01C2789.31 1694.01 2790.53 1694.08 2791.85 1694.22C2793.16 1694.37 2794.32 1694.56 2795.31 1694.81V1714.94C2794.24 1714.62 2792.77 1714.34 2790.89 1714.09C2789.01 1713.84 2787.28 1713.72 2785.72 1713.72C2782.38 1713.72 2779.4 1714.45 2776.77 1715.9C2774.18 1717.32 2772.12 1719.31 2770.59 1721.87C2769.1 1724.43 2768.36 1727.37 2768.36 1730.71V1777H2745.66ZM2817.54 1777V1695.18H2840.23V1777H2817.54ZM2828.94 1684.63C2825.57 1684.63 2822.67 1683.52 2820.26 1681.28C2817.88 1679.01 2816.69 1676.29 2816.69 1673.13C2816.69 1670 2817.88 1667.32 2820.26 1665.09C2822.67 1662.81 2825.57 1661.68 2828.94 1661.68C2832.31 1661.68 2835.19 1662.81 2837.57 1665.09C2839.98 1667.32 2841.19 1670 2841.19 1673.13C2841.19 1676.29 2839.98 1679.01 2837.57 1681.28C2835.19 1683.52 2832.31 1684.63 2828.94 1684.63ZM2912.43 1695.18V1712.23H2863.16V1695.18H2912.43ZM2874.34 1675.58H2897.04V1751.86C2897.04 1753.95 2897.36 1755.59 2897.99 1756.76C2898.63 1757.89 2899.52 1758.69 2900.66 1759.16C2901.83 1759.62 2903.18 1759.85 2904.71 1759.85C2905.77 1759.85 2906.84 1759.76 2907.9 1759.58C2908.97 1759.37 2909.78 1759.21 2910.35 1759.1L2913.92 1775.99C2912.79 1776.34 2911.19 1776.75 2909.13 1777.21C2907.07 1777.71 2904.56 1778.01 2901.62 1778.12C2896.15 1778.33 2891.35 1777.6 2887.23 1775.93C2883.15 1774.27 2879.97 1771.67 2877.7 1768.16C2875.43 1764.64 2874.31 1760.2 2874.34 1754.84V1675.58ZM2990.18 1742.16V1695.18H3012.87V1777H2991.09V1762.14H2990.23C2988.39 1766.93 2985.31 1770.79 2981.02 1773.7C2976.76 1776.61 2971.55 1778.07 2965.41 1778.07C2959.94 1778.07 2955.13 1776.82 2950.98 1774.34C2946.82 1771.85 2943.57 1768.32 2941.23 1763.74C2938.92 1759.16 2937.75 1753.67 2937.71 1747.28V1695.18H2960.4V1743.23C2960.44 1748.06 2961.74 1751.88 2964.29 1754.68C2966.85 1757.49 2970.28 1758.89 2974.57 1758.89C2977.31 1758.89 2979.86 1758.27 2982.24 1757.02C2984.62 1755.75 2986.54 1753.86 2988 1751.38C2989.49 1748.89 2990.22 1745.82 2990.18 1742.16ZM3064.85 1778.54C3059.63 1778.54 3054.98 1777.64 3050.9 1775.83C3046.81 1773.98 3043.58 1771.26 3041.2 1767.68C3038.86 1764.06 3037.69 1759.55 3037.69 1754.15C3037.69 1749.6 3038.52 1745.79 3040.19 1742.7C3041.86 1739.61 3044.13 1737.12 3047.01 1735.24C3049.89 1733.36 3053.15 1731.94 3056.81 1730.98C3060.5 1730.02 3064.37 1729.34 3068.42 1728.95C3073.18 1728.46 3077.02 1727.99 3079.93 1727.57C3082.84 1727.11 3084.95 1726.43 3086.27 1725.54C3087.58 1724.66 3088.24 1723.34 3088.24 1721.6V1721.28C3088.24 1717.91 3087.17 1715.3 3085.04 1713.45C3082.95 1711.61 3079.96 1710.68 3076.09 1710.68C3072.01 1710.68 3068.76 1711.59 3066.34 1713.4C3063.93 1715.17 3062.33 1717.41 3061.55 1720.11L3040.56 1718.41C3041.63 1713.43 3043.72 1709.14 3046.85 1705.52C3049.97 1701.86 3054 1699.05 3058.94 1697.1C3063.91 1695.11 3069.66 1694.12 3076.2 1694.12C3080.74 1694.12 3085.09 1694.65 3089.25 1695.71C3093.44 1696.78 3097.15 1698.43 3100.38 1700.67C3103.65 1702.91 3106.22 1705.78 3108.11 1709.3C3109.99 1712.78 3110.93 1716.95 3110.93 1721.82V1777H3089.41V1765.65H3088.77C3087.46 1768.21 3085.7 1770.47 3083.5 1772.42C3081.29 1774.34 3078.65 1775.85 3075.56 1776.95C3072.47 1778.01 3068.9 1778.54 3064.85 1778.54ZM3071.35 1762.88C3074.69 1762.88 3077.64 1762.23 3080.19 1760.91C3082.75 1759.56 3084.76 1757.75 3086.21 1755.48C3087.67 1753.21 3088.4 1750.63 3088.4 1747.76V1739.07C3087.69 1739.54 3086.71 1739.96 3085.47 1740.35C3084.26 1740.71 3082.89 1741.04 3081.37 1741.36C3079.84 1741.65 3078.31 1741.91 3076.78 1742.16C3075.26 1742.38 3073.87 1742.57 3072.63 1742.75C3069.97 1743.14 3067.64 1743.76 3065.65 1744.61C3063.66 1745.47 3062.12 1746.62 3061.02 1748.08C3059.92 1749.5 3059.37 1751.27 3059.37 1753.4C3059.37 1756.49 3060.49 1758.85 3062.72 1760.49C3065 1762.09 3067.87 1762.88 3071.35 1762.88ZM3161.73 1667.91V1777H3139.03V1667.91H3161.73ZM3260.6 1777L3229.39 1667.91H3254.58L3272.64 1743.71H3273.55L3293.47 1667.91H3315.04L3334.91 1743.87H3335.87L3353.93 1667.91H3379.12L3347.91 1777H3325.43L3304.65 1705.68H3303.8L3283.08 1777H3260.6ZM3429.72 1778.6C3421.44 1778.6 3414.29 1776.84 3408.25 1773.32C3402.25 1769.77 3397.62 1764.84 3394.35 1758.52C3391.08 1752.16 3389.45 1744.79 3389.45 1736.41C3389.45 1727.96 3391.08 1720.57 3394.35 1714.25C3397.62 1707.89 3402.25 1702.96 3408.25 1699.44C3414.29 1695.89 3421.44 1694.12 3429.72 1694.12C3437.99 1694.12 3445.13 1695.89 3451.13 1699.44C3457.17 1702.96 3461.82 1707.89 3465.09 1714.25C3468.35 1720.57 3469.99 1727.96 3469.99 1736.41C3469.99 1744.79 3468.35 1752.16 3465.09 1758.52C3461.82 1764.84 3457.17 1769.77 3451.13 1773.32C3445.13 1776.84 3437.99 1778.6 3429.72 1778.6ZM3429.82 1761.02C3433.59 1761.02 3436.73 1759.95 3439.25 1757.82C3441.77 1755.66 3443.67 1752.71 3444.95 1748.98C3446.27 1745.25 3446.92 1741.01 3446.92 1736.25C3446.92 1731.49 3446.27 1727.25 3444.95 1723.52C3443.67 1719.79 3441.77 1716.84 3439.25 1714.68C3436.73 1712.51 3433.59 1711.43 3429.82 1711.43C3426.02 1711.43 3422.83 1712.51 3420.24 1714.68C3417.68 1716.84 3415.74 1719.79 3414.43 1723.52C3413.15 1727.25 3412.51 1731.49 3412.51 1736.25C3412.51 1741.01 3413.15 1745.25 3414.43 1748.98C3415.74 1752.71 3417.68 1755.66 3420.24 1757.82C3422.83 1759.95 3426.02 1761.02 3429.82 1761.02ZM3495.24 1777V1695.18H3517.24V1709.46H3518.09C3519.59 1704.38 3522.09 1700.54 3525.61 1697.95C3529.12 1695.32 3533.17 1694.01 3537.75 1694.01C3538.89 1694.01 3540.11 1694.08 3541.43 1694.22C3542.74 1694.37 3543.89 1694.56 3544.89 1694.81V1714.94C3543.82 1714.62 3542.35 1714.34 3540.47 1714.09C3538.58 1713.84 3536.86 1713.72 3535.3 1713.72C3531.96 1713.72 3528.98 1714.45 3526.35 1715.9C3523.76 1717.32 3521.7 1719.31 3520.17 1721.87C3518.68 1724.43 3517.93 1727.37 3517.93 1730.71V1777H3495.24ZM3589.81 1667.91V1777H3567.12V1667.91H3589.81ZM3648.64 1778.33C3642.42 1778.33 3636.8 1776.73 3631.75 1773.54C3626.75 1770.31 3622.77 1765.57 3619.82 1759.32C3616.91 1753.03 3615.45 1745.32 3615.45 1736.2C3615.45 1726.82 3616.96 1719.03 3619.98 1712.81C3623 1706.56 3627.01 1701.89 3632.02 1698.8C3637.06 1695.68 3642.58 1694.12 3648.58 1694.12C3653.17 1694.12 3656.98 1694.9 3660.04 1696.46C3663.13 1697.99 3665.61 1699.9 3667.49 1702.21C3669.41 1704.49 3670.87 1706.72 3671.86 1708.92H3672.56V1667.91H3695.19V1777H3672.82V1763.9H3671.86C3670.8 1766.17 3669.29 1768.42 3667.33 1770.66C3665.42 1772.86 3662.91 1774.69 3659.82 1776.15C3656.77 1777.6 3653.04 1778.33 3648.64 1778.33ZM3655.83 1760.27C3659.49 1760.27 3662.58 1759.28 3665.1 1757.29C3667.65 1755.27 3669.61 1752.44 3670.96 1748.82C3672.34 1745.2 3673.03 1740.96 3673.03 1736.09C3673.03 1731.23 3672.36 1727 3671.01 1723.41C3669.66 1719.83 3667.71 1717.06 3665.15 1715.1C3662.59 1713.15 3659.49 1712.17 3655.83 1712.17C3652.1 1712.17 3648.96 1713.19 3646.4 1715.21C3643.84 1717.23 3641.91 1720.04 3640.59 1723.63C3639.28 1727.21 3638.62 1731.37 3638.62 1736.09C3638.62 1740.85 3639.28 1745.06 3640.59 1748.72C3641.94 1752.34 3643.88 1755.18 3646.4 1757.24C3648.96 1759.26 3652.1 1760.27 3655.83 1760.27Z" fill="#01529C"/>
<line x1="3817" y1="1735.5" x2="4795" y2="1735.5" stroke="#01529C" stroke-width="35"/>
<line x1="426" y1="1735.5" x2="1404" y2="1735.5" stroke="#01529C" stroke-width="35"/>
</svg>
