<svg width="30" height="24" viewBox="0 0 30 24" fill="none" xmlns="http://www.w3.org/2000/svg">
<g clip-path="url(#clip0_147_4930)">
<path fill-rule="evenodd" clip-rule="evenodd" d="M29.0251 2.84117C27.9669 3.32308 26.8275 3.64897 25.6324 3.79459C26.8529 3.04572 27.7894 1.85829 28.2306 0.443774C27.0879 1.13717 25.8251 1.6416 24.4761 1.91202C23.401 0.734993 21.8644 0 20.1638 0C16.903 0 14.2574 2.71289 14.2574 6.0585C14.2574 6.53348 14.3081 6.99459 14.4096 7.43836C9.49884 7.18527 5.14596 4.77573 2.22996 1.10596C1.72113 2.0039 1.43037 3.04572 1.43037 4.15515C1.43037 6.25612 2.47338 8.11095 4.05902 9.19784C3.09208 9.16837 2.17924 8.89275 1.38135 8.44204V8.51657C1.38135 11.4531 3.41833 13.9025 6.12303 14.4572C5.62774 14.5993 5.10539 14.6704 4.56614 14.6704C4.1858 14.6704 3.8139 14.634 3.45383 14.5629C4.20608 16.969 6.38674 18.7216 8.97311 18.7684C6.95134 20.3944 4.40217 21.3634 1.63492 21.3634C1.15821 21.3634 0.686587 21.3356 0.225098 21.2802C2.84021 22.9963 5.94723 24 9.28246 24C20.152 24 26.0939 14.7692 26.0939 6.7623C26.0939 6.49881 26.0888 6.23532 26.0787 5.97703C27.2332 5.12243 28.2357 4.05634 29.0251 2.84117Z" fill="#00AAEC"/>
</g>
<defs>
<clipPath id="clip0_147_4930">
<rect width="28.8" height="24" fill="white" transform="translate(0.225098)"/>
</clipPath>
</defs>
</svg>
