<svg width="351" height="121" viewBox="0 0 351 121" fill="none" xmlns="http://www.w3.org/2000/svg">
<path d="M350.611 120.987V113.171C345.906 113.171 336.32 111.624 336.32 99.2829C336.32 83.2151 327.041 71.5773 310.18 77.9763C316.064 59.6407 305.33 49.55 290.587 49.55C275.553 49.55 277.946 31.2319 277.946 31.2319H241.912C236.529 15.7618 216.483 13.6522 200.835 13.6522C182.584 13.6522 175.665 0.309204 175.665 0.309204C175.665 0.309204 168.746 13.6522 150.495 13.6522C134.846 13.6522 114.801 15.6739 109.417 31.2319H73.3839C73.3839 31.2319 75.7926 49.55 60.7423 49.55C45.9829 49.55 35.265 59.6407 41.1494 77.9763C24.3046 71.5773 15.0255 83.2503 15.0255 99.2829C15.0255 111.589 5.42299 113.153 0.71875 113.171V120.987H350.611Z" fill="white"/>
</svg>
