<svg width="351" height="121" viewBox="0 0 351 121" fill="none" xmlns="http://www.w3.org/2000/svg">
<path d="M350.611 0.012619V7.82917C345.906 7.82917 336.32 9.37617 336.32 21.7171C336.32 37.785 327.041 49.4228 310.18 43.0237C316.064 61.3594 305.33 71.4501 290.587 71.4501C275.553 71.4501 277.946 89.7682 277.946 89.7682H241.912C236.529 105.238 216.483 107.348 200.835 107.348C182.584 107.348 175.665 120.691 175.665 120.691C175.665 120.691 168.746 107.348 150.495 107.348C134.846 107.348 114.801 105.326 109.417 89.7682H73.3839C73.3839 89.7682 75.7926 71.4501 60.7423 71.4501C45.9829 71.4501 35.265 61.3594 41.1494 43.0237C24.3046 49.4228 15.0255 37.7498 15.0255 21.7171C15.0255 9.41133 5.42299 7.84675 0.71875 7.82917V0.012619H350.611Z" fill="white"/>
</svg>
