<svg width="16" height="20" viewBox="0 0 16 20" fill="none" xmlns="http://www.w3.org/2000/svg">
<path d="M15.74 5.33L11.3 0.329997C11.2065 0.226404 11.0924 0.143526 10.9649 0.0866923C10.8375 0.0298583 10.6995 0.0003267 10.56 -3.1293e-06H2.56C2.22775 -0.00396622 1.89797 0.0575569 1.5895 0.181053C1.28103 0.304549 0.999904 0.4876 0.762182 0.719751C0.524459 0.951902 0.334794 1.22861 0.204018 1.53406C0.0732421 1.83952 0.00391638 2.16775 0 2.5V17.5C0.00391638 17.8322 0.0732421 18.1605 0.204018 18.4659C0.334794 18.7714 0.524459 19.0481 0.762182 19.2802C0.999904 19.5124 1.28103 19.6954 1.5895 19.8189C1.89797 19.9424 2.22775 20.004 2.56 20H13.44C13.7723 20.004 14.102 19.9424 14.4105 19.8189C14.719 19.6954 15.0001 19.5124 15.2378 19.2802C15.4755 19.0481 15.6652 18.7714 15.796 18.4659C15.9268 18.1605 15.9961 17.8322 16 17.5V6C15.9994 5.75216 15.9067 5.51339 15.74 5.33ZM5 10H8C8.26522 10 8.51957 10.1054 8.70711 10.2929C8.89464 10.4804 9 10.7348 9 11C9 11.2652 8.89464 11.5196 8.70711 11.7071C8.51957 11.8946 8.26522 12 8 12H5C4.73478 12 4.48043 11.8946 4.29289 11.7071C4.10536 11.5196 4 11.2652 4 11C4 10.7348 4.10536 10.4804 4.29289 10.2929C4.48043 10.1054 4.73478 10 5 10ZM11 16H5C4.73478 16 4.48043 15.8946 4.29289 15.7071C4.10536 15.5196 4 15.2652 4 15C4 14.7348 4.10536 14.4804 4.29289 14.2929C4.48043 14.1054 4.73478 14 5 14H11C11.2652 14 11.5196 14.1054 11.7071 14.2929C11.8946 14.4804 12 14.7348 12 15C12 15.2652 11.8946 15.5196 11.7071 15.7071C11.5196 15.8946 11.2652 16 11 16ZM10.71 6C10.5038 5.9797 10.3139 5.87923 10.1811 5.72025C10.0483 5.56126 9.98327 5.35647 10 5.15V2L13.74 6H10.71Z" fill="#FD642A"/>
</svg>
