<svg width="411" height="842" viewBox="0 0 411 842" fill="none" xmlns="http://www.w3.org/2000/svg">
<path d="M410.972 902.309V133.128C405.447 133.128 394.188 131.311 394.188 116.817C394.188 97.9455 383.29 84.2771 363.487 91.7927C370.398 70.2577 357.791 58.4063 340.475 58.4063C322.818 58.4063 325.628 36.892 325.628 36.892H283.307C276.984 18.7225 253.441 16.2448 235.062 16.2448C213.626 16.2448 205.5 0.573669 205.5 0.573669C205.5 0.573669 197.374 16.2448 175.938 16.2448C157.559 16.2448 134.016 18.6193 127.693 36.892H85.3726C85.3726 36.892 88.2016 58.4063 70.5251 58.4063C53.1905 58.4063 40.6025 70.2577 47.5135 91.7927C27.7296 84.2771 16.8314 97.9868 16.8314 116.817C16.8314 131.27 5.55339 133.108 0.0283203 133.128V902.309H410.972Z" fill="white"/>
</svg>
