<svg width="22" height="22" viewBox="0 0 22 22" fill="none" xmlns="http://www.w3.org/2000/svg">
<path d="M18.6592 3.34082C16.8817 1.55169 14.5356 0.438797 12.0255 0.193995C9.51541 -0.0508066 6.99855 0.587826 4.90884 1.99979C2.81913 3.41176 1.28753 5.50857 0.578084 7.92874C-0.13136 10.3489 0.0258125 12.9408 1.02251 15.2575C1.12639 15.4728 1.16047 15.7152 1.12001 15.9508L0.166673 20.5333C0.129943 20.709 0.137444 20.8911 0.188499 21.0632C0.239555 21.2352 0.332565 21.3919 0.459173 21.5191C0.562961 21.6222 0.686536 21.7031 0.822451 21.7571C0.958366 21.8111 1.10381 21.837 1.25001 21.8333H1.46667L6.10334 20.9016C6.339 20.8733 6.57797 20.9069 6.79667 20.9991C9.11338 21.9958 11.7052 22.153 14.1254 21.4436C16.5456 20.7341 18.6424 19.2025 20.0544 17.1128C21.4663 15.0231 22.105 12.5062 21.8602 9.99614C21.6154 7.48604 20.5025 5.14 18.7133 3.36248L18.6592 3.34082ZM6.66667 12.0833C6.45241 12.0833 6.24296 12.0198 6.0648 11.9007C5.88665 11.7817 5.7478 11.6125 5.6658 11.4146C5.58381 11.2166 5.56235 10.9988 5.60415 10.7886C5.64596 10.5785 5.74913 10.3855 5.90064 10.234C6.05215 10.0824 6.24518 9.97927 6.45532 9.93747C6.66547 9.89567 6.88329 9.91712 7.08125 9.99911C7.2792 10.0811 7.44839 10.22 7.56743 10.3981C7.68647 10.5763 7.75001 10.7857 7.75001 11C7.75001 11.2873 7.63587 11.5629 7.4327 11.766C7.22954 11.9692 6.95399 12.0833 6.66667 12.0833ZM11 12.0833C10.7857 12.0833 10.5763 12.0198 10.3981 11.9007C10.22 11.7817 10.0811 11.6125 9.99914 11.4146C9.91714 11.2166 9.89569 10.9988 9.93749 10.7886C9.97929 10.5785 10.0825 10.3855 10.234 10.234C10.3855 10.0824 10.5785 9.97927 10.7887 9.93747C10.9988 9.89567 11.2166 9.91712 11.4146 9.99911C11.6125 10.0811 11.7817 10.22 11.9008 10.3981C12.0198 10.5763 12.0833 10.7857 12.0833 11C12.0833 11.2873 11.9692 11.5629 11.766 11.766C11.5629 11.9692 11.2873 12.0833 11 12.0833ZM15.3333 12.0833C15.1191 12.0833 14.9096 12.0198 14.7315 11.9007C14.5533 11.7817 14.4145 11.6125 14.3325 11.4146C14.2505 11.2166 14.229 10.9988 14.2708 10.7886C14.3126 10.5785 14.4158 10.3855 14.5673 10.234C14.7188 10.0824 14.9118 9.97927 15.122 9.93747C15.3321 9.89567 15.55 9.91712 15.7479 9.99911C15.9459 10.0811 16.1151 10.22 16.2341 10.3981C16.3531 10.5763 16.4167 10.7857 16.4167 11C16.4167 11.2873 16.3025 11.5629 16.0994 11.766C15.8962 11.9692 15.6207 12.0833 15.3333 12.0833Z" fill="#157E42"/>
</svg>
