<svg width="412" height="809" viewBox="0 0 412 809" fill="none" xmlns="http://www.w3.org/2000/svg">
<path d="M411.136 901.863V132.683C405.611 132.683 394.352 130.866 394.352 116.372C394.352 97.5002 383.454 83.8318 363.651 91.3473C370.562 69.8124 357.955 57.9609 340.64 57.9609C322.982 57.9609 325.792 36.4466 325.792 36.4466H283.471C277.149 18.2771 253.605 15.7995 235.227 15.7995C213.791 15.7995 205.665 0.128326 205.665 0.128326C205.665 0.128326 197.538 15.7995 176.103 15.7995C157.724 15.7995 134.181 18.1739 127.858 36.4466H85.5371C85.5371 36.4466 88.3661 57.9609 70.6897 57.9609C53.355 57.9609 40.767 69.8124 47.6781 91.3473C27.8942 83.8318 16.9959 97.5415 16.9959 116.372C16.9959 130.825 5.71794 132.662 0.192871 132.683V901.863H411.136Z" fill="white"/>
</svg>
